<svg width="1150" height="1150" viewBox="0 0 1150 1150" fill="none" xmlns="http://www.w3.org/2000/svg">
<path opacity="0.07" d="M914.2 510C914.2 514.5 914.1 519 913.8 523.2C956.8 555.9 989.9 626 989.9 687.7C989.9 754.9 950.6 786.6 902.1 758.6C902 758.5 901.9 758.5 901.8 758.4L597.1 582.7C597 582.6 596.9 582.6 596.7 582.5C542.2 551 498 464.3 498 388.8C498 318.1 536.8 282.2 586.5 303.9C592.6 255.4 625.1 234.5 664.3 257.2C683.1 268.1 700.4 287.2 713.9 310.2C733.5 281.1 766.9 273.7 804.7 295.5C865.2 330.3 914.2 426.4 914.2 510Z" fill="url(#paint0_linear_553_1197)"/>
<path opacity="0.4" d="M864.2 558C864.2 562.5 864.1 567 863.8 571.2C906.8 603.9 939.9 674 939.9 735.7C939.9 802.9 900.6 834.6 852.1 806.6C852 806.5 851.9 806.5 851.8 806.4L547.1 630.7C547 630.6 546.9 630.6 546.7 630.5C492.2 599 448 512.3 448 436.8C448 366.1 486.8 330.2 536.5 351.9C542.6 303.4 575.1 282.5 614.3 305.2C633.1 316.1 650.4 335.2 663.9 358.2C683.5 329.1 716.9 321.7 754.7 343.5C815.2 378.3 864.2 474.4 864.2 558Z" fill="url(#paint1_linear_553_1197)"/>
<path opacity="0.2" d="M381.798 643.6L335.398 616.8V601.1L381.798 627.9C385.598 630.1 391.098 634.5 395.798 641.3C400.898 648.6 404.498 657.8 404.498 667.8C404.498 678.8 401.698 685.1 396.298 686.9C391.298 688.6 385.398 685.7 381.698 683.6L362.598 672.6L362.498 672.5C360.898 671.5 358.298 670.6 356.198 671.2C354.498 671.7 352.598 673.4 352.598 679.5C352.598 685.6 354.498 689.4 356.098 691.6C358.098 694.4 360.698 696.4 362.298 697.2L362.498 697.3L420.798 731V746.7L362.798 713.2C358.798 711.1 353.098 706.7 348.098 699.7C342.698 692.1 338.898 682.4 338.998 671.6C338.998 660.9 342.698 655.4 348.098 653.9C353.098 652.5 358.798 654.5 362.798 657L381.698 667.9C384.398 669.5 386.498 670.2 387.798 669.7C388.798 669.4 390.798 667.9 390.798 659.9C390.798 654.8 389.098 651.4 387.598 649.1C385.798 646.5 383.298 644.5 381.798 643.6Z" fill="white"/>
<path d="M345.398 612.899C345.398 625.799 337.798 631.899 328.498 626.599C319.198 621.199 311.598 606.399 311.598 593.399C311.598 580.499 319.198 574.399 328.498 579.699C337.798 585.099 345.398 599.999 345.398 612.899Z" fill="#335FE6"/>
<path d="M444.398 751.899C444.398 764.799 436.798 770.899 427.498 765.599C418.198 760.199 410.598 745.399 410.598 732.399C410.598 719.499 418.198 713.399 427.498 718.699C436.798 724.099 444.398 738.999 444.398 751.899Z" fill="#335FE6"/>
<path opacity="0.07" d="M524.299 419.699L824.199 592.799V751.499L524.199 578.399L524.299 419.699Z" fill="url(#paint2_linear_553_1197)"/>
<path opacity="0.3" d="M484.199 439.699L784.099 612.799V771.499L484.199 598.399V439.699Z" fill="url(#paint3_linear_553_1197)"/>
<path d="M511.098 534.199C511.098 546.999 518.698 561.699 527.998 567.099C537.298 572.499 544.898 566.499 544.898 553.699C544.898 540.899 537.298 526.199 527.998 520.799C518.698 515.399 511.098 521.399 511.098 534.199Z" fill="#335FE6"/>
<path opacity="0.15" d="M553.398 558.899C553.398 564.799 556.898 571.699 561.298 574.199C565.598 576.699 569.098 573.899 569.098 567.999C569.098 562.099 565.598 555.199 561.198 552.699C556.898 550.199 553.398 552.999 553.398 558.899Z" fill="white"/>
<path opacity="0.15" d="M577.5 572.799C577.5 578.699 581 585.599 585.4 588.099C589.7 590.599 593.2 587.799 593.2 581.899C593.2 575.999 589.7 569.099 585.3 566.599C581 564.099 577.5 566.899 577.5 572.799Z" fill="white"/>
<path opacity="0.15" d="M708.398 599.8V690.1L696.598 683.3V593L708.398 599.8Z" fill="white"/>
<path opacity="0.15" d="M734.198 614.8V705.1L722.398 698.3V608L734.198 614.8Z" fill="white"/>
<path opacity="0.15" d="M760.097 629.8V720.1L748.297 713.3V623L760.097 629.8Z" fill="white"/>
<path opacity="0.07" d="M524.199 636.6L824.099 809.7V968.4L524.199 795.3V636.6Z" fill="url(#paint4_linear_553_1197)"/>
<path opacity="0.3" d="M484.199 657.6L784.099 830.7V989.4L484.199 816.3V657.6Z" fill="url(#paint5_linear_553_1197)"/>
<path d="M511.098 752.099C511.098 764.899 518.698 779.599 527.998 784.999C537.298 790.399 544.898 784.399 544.898 771.599C544.898 758.799 537.298 744.099 527.998 738.699C518.698 733.299 511.098 739.299 511.098 752.099Z" fill="#335FE6"/>
<path opacity="0.15" d="M553.398 776.899C553.398 782.799 556.898 789.699 561.298 792.199C565.598 794.699 569.098 791.899 569.098 785.999C569.098 780.099 565.598 773.199 561.198 770.699C556.898 768.199 553.398 770.899 553.398 776.899Z" fill="white"/>
<path opacity="0.15" d="M577.398 790.799C577.398 796.699 580.898 803.599 585.298 806.099C589.598 808.599 593.098 805.799 593.098 799.899C593.098 793.999 589.598 787.099 585.198 784.599C580.898 781.999 577.398 784.799 577.398 790.799Z" fill="white"/>
<path opacity="0.15" d="M708.398 820.8V911.1L696.598 904.3V814L708.398 820.8Z" fill="white"/>
<path opacity="0.15" d="M734.198 835.8V926.1L722.398 919.3V829L734.198 835.8Z" fill="white"/>
<path opacity="0.15" d="M760.097 850.8V941.1L748.297 934.3V844L760.097 850.8Z" fill="white"/>
<path opacity="0.3" d="M217.898 204.6L404.798 312.5V658.8L217.898 550.8V204.6Z" fill="url(#paint6_linear_553_1197)"/>
<path d="M333.299 329.999C333.299 347.299 323.299 355.499 310.999 348.299C298.699 341.099 288.699 321.299 288.699 303.999C288.699 286.699 298.699 278.499 310.999 285.699C323.299 292.899 333.299 312.699 333.299 329.999Z" fill="#F9DE4B"/>
<path d="M311 362.199C291.1 350.599 274.7 361.499 271.8 386.499C271.3 390.799 274.6 396.599 278.6 398.899L343.5 436.799C347.5 439.099 350.8 437.299 350.3 432.299C347.3 403.799 330.8 373.799 311 362.199Z" fill="#F9DE4B"/>
<path opacity="0.15" d="M255.398 429.199L366.798 493.499V507.099L255.398 442.799V429.199Z" fill="white"/>
<path opacity="0.15" d="M266.699 462.699L354.999 513.599V527.199L266.699 476.299V462.699Z" fill="white"/>
<path d="M289.199 519.899L159.199 444.799V483.499L289.199 558.599V519.899Z" fill="#F9DE4B"/>
<path opacity="0.2" d="M445.098 160.699L472.898 215.299C476.698 222.799 476.098 230.299 471.498 232.099C466.898 233.899 460.098 229.199 456.298 221.699L455.998 220.999V281.599C455.998 288.499 451.198 291.299 445.198 287.899C439.198 284.399 434.398 276.099 434.398 269.199V208.599L434.098 208.899C430.298 211.999 423.398 208.799 418.898 201.699C414.298 194.599 413.698 186.399 417.498 183.299L445.098 160.699Z" fill="url(#paint7_linear_553_1197)"/>
<path opacity="0.2" d="M445.099 966.899L417.299 912.299C413.499 904.799 414.099 897.299 418.699 895.499C423.299 893.699 430.099 898.399 433.899 905.899L434.199 906.599V845.999C434.199 839.099 438.999 836.299 444.999 839.699C450.999 843.199 455.799 851.499 455.799 858.399V918.999L456.099 918.699C459.899 915.599 466.799 918.799 471.299 925.899C475.899 932.999 476.499 941.199 472.699 944.299L445.099 966.899Z" fill="url(#paint8_linear_553_1197)"/>
<defs>
<linearGradient id="paint0_linear_553_1197" x1="972.011" y1="319.034" x2="662.583" y2="612.533" gradientUnits="userSpaceOnUse">
<stop stop-color="white"/>
<stop offset="1" stop-color="white" stop-opacity="0"/>
</linearGradient>
<linearGradient id="paint1_linear_553_1197" x1="922" y1="367.034" x2="612.573" y2="660.533" gradientUnits="userSpaceOnUse">
<stop stop-color="white"/>
<stop offset="1" stop-color="white" stop-opacity="0"/>
</linearGradient>
<linearGradient id="paint2_linear_553_1197" x1="668.069" y1="432.39" x2="679.243" y2="713.109" gradientUnits="userSpaceOnUse">
<stop stop-color="white"/>
<stop offset="1" stop-color="white" stop-opacity="0"/>
</linearGradient>
<linearGradient id="paint3_linear_553_1197" x1="628.066" y1="452.39" x2="639.241" y2="733.109" gradientUnits="userSpaceOnUse">
<stop stop-color="white"/>
<stop offset="1" stop-color="white" stop-opacity="0"/>
</linearGradient>
<linearGradient id="paint4_linear_553_1197" x1="668.047" y1="649.324" x2="679.221" y2="930.042" gradientUnits="userSpaceOnUse">
<stop stop-color="white"/>
<stop offset="1" stop-color="white" stop-opacity="0"/>
</linearGradient>
<linearGradient id="paint5_linear_553_1197" x1="628.046" y1="670.324" x2="639.22" y2="951.042" gradientUnits="userSpaceOnUse">
<stop stop-color="white"/>
<stop offset="1" stop-color="white" stop-opacity="0"/>
</linearGradient>
<linearGradient id="paint6_linear_553_1197" x1="424.829" y1="235.035" x2="258.918" y2="522.475" gradientUnits="userSpaceOnUse">
<stop stop-color="white"/>
<stop offset="1" stop-color="white" stop-opacity="0"/>
</linearGradient>
<linearGradient id="paint7_linear_553_1197" x1="464.881" y1="215.775" x2="414.16" y2="244.049" gradientUnits="userSpaceOnUse">
<stop stop-color="white"/>
<stop offset="1" stop-color="white" stop-opacity="0"/>
</linearGradient>
<linearGradient id="paint8_linear_553_1197" x1="425.263" y1="911.86" x2="475.984" y2="883.586" gradientUnits="userSpaceOnUse">
<stop stop-color="white"/>
<stop offset="1" stop-color="white" stop-opacity="0"/>
</linearGradient>
</defs>
</svg>
