<svg width="1150" height="1150" viewBox="0 0 1150 1150" fill="none" xmlns="http://www.w3.org/2000/svg">
<path opacity="0.4" d="M622.8 400.601C614.3 395.701 608.2 395.601 604.5 400.201C600.7 404.801 598.9 412.601 598.9 423.501V482.501C598.9 493.701 597.9 503.001 595.8 510.401C593.7 518.101 590.2 523.501 585.4 526.701C580.7 530.001 574.3 530.801 566.2 529.301C558.3 527.901 548.4 523.701 536.6 516.901L531 513.601V467.101L538.1 471.201C546.6 476.101 552.2 476.701 555 473.201C558 469.701 559.5 462.501 559.5 451.601V399.601C559.5 386.001 560.8 375.301 563.5 367.501C566.1 359.601 571.4 354.601 579.3 352.401C571.4 341.101 566.1 329.901 563.5 319.001C560.9 308.101 559.6 295.901 559.6 282.301V230.301C559.6 219.401 558.1 210.401 555.1 203.501C552.3 196.701 546.6 190.801 538.2 185.901L531.1 181.801V135.301L536.7 138.601C548.5 145.401 558.4 152.701 566.3 160.401C574.4 168.201 580.8 176.401 585.5 185.201C590.4 194.001 593.9 203.401 595.9 213.501C598 223.301 599 233.801 599 245.001V304.001C599 314.901 600.9 324.901 604.6 333.801C608.4 342.701 614.5 349.701 622.9 354.501L622.8 400.601Z" fill="url(#paint0_linear_553_1109)"/>
<path opacity="0.4" d="M408.598 229.7C417.098 234.6 423.198 234.7 426.898 230.1C430.698 225.5 432.498 217.7 432.498 206.8V147.8C432.498 136.6 433.498 127.3 435.598 119.9C437.698 112.2 441.098 106.8 445.798 103.5C450.698 100.3 457.098 99.5002 464.998 100.9C473.098 102.4 483.098 106.6 494.898 113.5L500.498 116.8V163.3L493.398 159.2C484.898 154.3 479.198 153.6 476.198 157.1C473.398 160.7 471.998 167.9 471.998 178.9V230.9C471.998 244.4 470.698 255.2 467.998 263C465.398 270.9 460.098 275.9 452.198 278.1C460.098 289.4 465.398 300.6 467.998 311.5C470.598 322.4 471.898 334.6 471.898 348.2V400.2C471.898 411.1 473.298 420 476.098 426.9C479.098 433.8 484.798 439.8 493.298 444.6L500.398 448.7V495.2L494.798 491.9C482.998 485.1 472.998 477.7 464.898 470C456.998 462.3 450.598 454.1 445.698 445.2C440.998 436.5 437.598 427.1 435.598 417.1C433.498 407.3 432.498 396.8 432.498 385.6V326.6C432.498 315.7 430.598 305.7 426.898 296.8C423.098 287.9 416.998 280.9 408.598 276.1V229.7Z" fill="url(#paint1_linear_553_1109)"/>
<path opacity="0.15" d="M651.698 113.1L862.798 235L862.698 741.1L651.598 619.3L651.698 113.1Z" fill="url(#paint2_linear_553_1109)"/>
<path d="M612 179.4L780 276.3V322.8L612 225.9V179.4Z" fill="#F9DE4B"/>
<path opacity="0.2" d="M679.199 394.701L838.399 486.601V627.301L679.199 535.401V394.701Z" fill="url(#paint3_linear_553_1109)"/>
<path opacity="0.15" d="M677.598 286.801L839.198 380.101V396.001L677.598 302.701V286.801Z" fill="white"/>
<path opacity="0.15" d="M677.598 318.801L817.298 399.401V415.301L677.598 334.701V318.801Z" fill="white"/>
<path opacity="0.15" d="M677.598 350.4L796.198 418.8V434.7L677.598 366.3V350.4Z" fill="white"/>
<path opacity="0.2" d="M651.698 113.1L862.798 235V302.8L651.598 181L651.698 113.1Z" fill="url(#paint4_linear_553_1109)"/>
<path opacity="0.2" d="M704.398 177.9C704.398 188.2 698.398 193 690.998 188.7C683.598 184.4 677.598 172.7 677.598 162.4C677.598 152.1 683.598 147.3 690.998 151.6C698.398 155.9 704.398 167.7 704.398 177.9Z" fill="white"/>
<path opacity="0.15" d="M271.299 268.1L921.099 643.1L920.999 1149.5L271.199 774.5L271.299 268.1Z" fill="url(#paint5_linear_553_1109)"/>
<path d="M228.199 392.9L396.099 489.8V536.3L228.199 439.5V392.9Z" fill="#335FE6"/>
<path opacity="0.15" d="M315.098 520.701L687.898 735.901V751.801L315.098 536.601V520.701Z" fill="white"/>
<path opacity="0.15" d="M315.098 552.701L636.698 738.301V754.201L315.098 568.601V552.701Z" fill="white"/>
<path opacity="0.15" d="M315.098 584.4L588.798 742.4V758.3L315.098 600.3V584.4Z" fill="white"/>
<path opacity="0.2" d="M566.699 786L894.499 975.2V1115.9L566.699 926.7V786Z" fill="url(#paint6_linear_553_1109)"/>
<path opacity="0.15" d="M591.398 828.1L640.798 856.6V903.1L591.398 874.6V828.1Z" fill="white"/>
<path opacity="0.15" d="M651.898 865.301L701.298 893.801V940.301L651.898 911.801V865.301Z" fill="white"/>
<path opacity="0.15" d="M712.699 899.801L762.099 928.301V974.801L712.699 946.301V899.801Z" fill="white"/>
<path opacity="0.15" d="M773.5 936.5L822.9 965V1011.5L773.5 983V936.5Z" fill="white"/>
<path opacity="0.2" d="M254.098 600.201L526.998 757.701V898.401L254.098 740.801V600.201Z" fill="url(#paint7_linear_553_1109)"/>
<path opacity="0.15" d="M281.598 652.1L498.398 777.2V793.1L281.598 668V652.1Z" fill="white"/>
<path opacity="0.15" d="M281.598 684.1L455.198 784.3V800.2L281.598 699.9V684.1Z" fill="white"/>
<path opacity="0.2" d="M271.297 268.1L920.197 642.7V711.3L271.297 336.8V268.1Z" fill="url(#paint8_linear_553_1109)"/>
<path opacity="0.2" d="M341.999 343.201C341.999 353.501 335.999 358.301 328.599 354.001C321.199 349.701 315.199 338.001 315.199 327.701C315.199 317.401 321.199 312.601 328.599 316.901C335.999 321.201 341.999 333.001 341.999 343.201Z" fill="white"/>
<defs>
<linearGradient id="paint0_linear_553_1109" x1="680.362" y1="121.266" x2="516.58" y2="405.194" gradientUnits="userSpaceOnUse">
<stop stop-color="white"/>
<stop offset="0.903" stop-color="white" stop-opacity="0"/>
</linearGradient>
<linearGradient id="paint1_linear_553_1109" x1="585.805" y1="102.017" x2="422.004" y2="385.909" gradientUnits="userSpaceOnUse">
<stop stop-color="white"/>
<stop offset="0.903" stop-color="white" stop-opacity="0"/>
</linearGradient>
<linearGradient id="paint2_linear_553_1109" x1="866.767" y1="237.299" x2="664.912" y2="587.014" gradientUnits="userSpaceOnUse">
<stop stop-color="white"/>
<stop offset="1" stop-color="white" stop-opacity="0"/>
</linearGradient>
<linearGradient id="paint3_linear_553_1109" x1="789.283" y1="458.17" x2="733.181" y2="555.365" gradientUnits="userSpaceOnUse">
<stop stop-color="white"/>
<stop offset="1" stop-color="white" stop-opacity="0"/>
</linearGradient>
<linearGradient id="paint4_linear_553_1109" x1="724.076" y1="114.151" x2="788.441" y2="296.376" gradientUnits="userSpaceOnUse">
<stop stop-color="white"/>
<stop offset="1" stop-color="white" stop-opacity="0"/>
</linearGradient>
<linearGradient id="paint5_linear_553_1109" x1="705.783" y1="518.832" x2="598.864" y2="704.114" gradientUnits="userSpaceOnUse">
<stop stop-color="white"/>
<stop offset="1" stop-color="white" stop-opacity="0"/>
</linearGradient>
<linearGradient id="paint6_linear_553_1109" x1="761.093" y1="898.18" x2="704.991" y2="995.376" gradientUnits="userSpaceOnUse">
<stop stop-color="white"/>
<stop offset="1" stop-color="white" stop-opacity="0"/>
</linearGradient>
<linearGradient id="paint7_linear_553_1109" x1="420.995" y1="696.486" x2="364.893" y2="793.682" gradientUnits="userSpaceOnUse">
<stop stop-color="white"/>
<stop offset="1" stop-color="white" stop-opacity="0"/>
</linearGradient>
<linearGradient id="paint8_linear_553_1109" x1="432.303" y1="212.826" x2="678.696" y2="630.202" gradientUnits="userSpaceOnUse">
<stop stop-color="white"/>
<stop offset="1" stop-color="white" stop-opacity="0"/>
</linearGradient>
</defs>
</svg>
