<svg width="1150" height="1150" viewBox="0 0 1150 1150" fill="none" xmlns="http://www.w3.org/2000/svg">
<path opacity="0.07" d="M867.199 578.2C867.199 715.4 786.899 780.2 687.899 723.1C588.899 666 508.699 508.4 508.699 371.3C508.699 234.1 588.999 169.3 687.999 226.4C786.999 283.5 867.199 441 867.199 578.2Z" fill="url(#paint0_linear_553_1229)"/>
<path opacity="0.4" d="M606.599 289.701C582.999 276.101 559.699 269.101 537.999 269.001C516.299 268.901 496.499 275.801 479.799 289.301C463.099 302.801 449.899 322.501 440.899 347.401C431.899 372.301 427.199 402.001 427.199 434.601L606.499 538.001L606.599 289.701Z" fill="url(#paint1_linear_553_1229)"/>
<path opacity="0.2" d="M467.199 400.201C467.199 449.301 477.699 503.401 497.399 555.601C517.099 607.801 545.099 655.801 577.799 693.501C610.499 731.201 646.599 756.901 681.399 767.401C716.199 777.901 748.099 772.701 773.199 752.401C798.299 732.101 815.299 697.701 822.299 653.601C829.199 609.401 825.699 557.401 812.099 504.201C798.499 451.001 775.599 398.901 746.099 354.601C716.599 310.301 681.999 275.701 646.499 255.301V503.701L467.199 400.201Z" fill="url(#paint2_linear_553_1229)"/>
<path opacity="0.3" d="M517.699 375.001L220.199 203.301L220.299 358.401L491.599 515.001L517.899 553.901L517.699 375.001Z" fill="url(#paint3_linear_553_1229)"/>
<path d="M188.5 263.702V221.602L300.8 286.402V328.502L188.5 263.702Z" fill="#335FE6"/>
<path opacity="0.15" d="M441.2 368.6L376 331V344.6L441.2 382.2V368.6Z" fill="white"/>
<path opacity="0.15" d="M441.302 395.9L315.602 323.4V337L441.302 409.5V395.9Z" fill="white"/>
<path opacity="0.15" d="M441.3 423.101L289 335.301V348.901L441.3 436.801V423.101Z" fill="white"/>
<path d="M457.301 392.101C457.301 404.901 464.901 419.601 474.201 425.001C483.501 430.401 491.101 424.401 491.101 411.601C491.101 398.801 483.501 384.101 474.201 378.701C464.801 373.301 457.301 379.301 457.301 392.101Z" fill="#335FE6"/>
<path opacity="0.3" d="M637.398 614.9L934.998 786.7L935.098 941.8L663.798 785.2L637.598 793.8L637.398 614.9Z" fill="url(#paint4_linear_553_1229)"/>
<path d="M848.398 814V771.9L960.698 836.7V878.8L848.398 814Z" fill="#335FE6"/>
<path opacity="0.15" d="M714 696.9L779.2 734.5V748.1L714 710.5V696.9Z" fill="white"/>
<path opacity="0.15" d="M714 724.102L831.7 792.002V805.602L714 737.802V724.102Z" fill="white"/>
<path opacity="0.15" d="M714 751.4L866.3 839.3V852.9L714 765V751.4Z" fill="white"/>
<path d="M697.902 701.8C697.902 714.6 690.302 720.6 681.002 715.2C671.702 709.8 664.102 695.1 664.102 682.3C664.102 669.5 671.702 663.5 681.002 668.9C690.302 674.3 697.902 689 697.902 701.8Z" fill="#335FE6"/>
<path opacity="0.3" d="M428.102 538.102L595.702 634.802V945.302L428.102 848.602V538.102Z" fill="url(#paint5_linear_553_1229)"/>
<path opacity="0.15" d="M444.602 722.4L579.202 800.1V813.7L444.602 736V722.4Z" fill="white"/>
<path opacity="0.15" d="M454 754.4L569.7 821.2V834.8L454 768V754.4Z" fill="white"/>
<path d="M502.901 809.902L386.301 742.602V777.302L502.901 844.602V809.902Z" fill="#F9DE4B"/>
<path d="M530.999 660.201C530.999 675.201 522.299 682.301 511.599 676.101C500.899 669.901 492.199 652.601 492.199 637.501C492.199 622.501 500.899 615.401 511.599 621.601C522.299 627.901 530.999 645.201 530.999 660.201Z" fill="#F9DE4B"/>
<path d="M511.599 688.2C494.299 678.1 479.999 687.6 477.499 709.3C477.099 713.1 479.899 718.1 483.399 720.1L539.799 753.1C543.299 755.1 546.099 753.5 545.699 749.2C543.199 724.4 528.899 698.3 511.599 688.2Z" fill="#F9DE4B"/>
<path opacity="0.2" d="M334.8 512.702L292 488.002V473.602L334.8 498.302C338.3 500.302 343.4 504.402 347.7 510.702C352.4 517.402 355.7 525.902 355.7 535.102C355.7 545.302 353.1 551.102 348.2 552.702C343.6 554.202 338.1 551.602 334.8 549.702L317.2 539.502L317.1 539.402C315.6 538.502 313.2 537.602 311.3 538.202C309.7 538.702 308 540.202 308 545.902C308 551.602 309.8 555.002 311.2 557.102C313 559.702 315.4 561.502 316.9 562.302L317.1 562.402L370.9 593.502V607.902L317.5 577.002C313.8 575.102 308.5 571.002 303.9 564.602C298.9 557.502 295.5 548.602 295.5 538.702C295.5 528.802 298.9 523.802 303.8 522.402C308.4 521.102 313.7 523.002 317.4 525.202L334.8 535.302C337.3 536.802 339.2 537.402 340.5 537.002C341.5 536.702 343.3 535.302 343.3 528.002C343.3 523.202 341.8 520.102 340.3 518.102C338.5 515.402 336.2 513.502 334.8 512.702Z" fill="white"/>
<path d="M299.8 484.901C299.8 497.801 292.2 503.901 282.9 498.601C273.6 493.201 266 478.401 266 465.401C266 452.501 273.6 446.401 282.9 451.701C292.2 457.101 299.8 472.001 299.8 484.901Z" fill="#335FE6"/>
<path d="M392.8 612.901C392.8 625.801 385.2 631.901 375.9 626.601C366.6 621.201 359 606.401 359 593.401C359 580.501 366.6 574.401 375.9 579.701C385.2 585.101 392.8 600.001 392.8 612.901Z" fill="#F9DE4B"/>
<defs>
<linearGradient id="paint0_linear_553_1229" x1="903.226" y1="367.944" x2="571.291" y2="532.606" gradientUnits="userSpaceOnUse">
<stop stop-color="white"/>
<stop offset="1" stop-color="white" stop-opacity="0"/>
</linearGradient>
<linearGradient id="paint1_linear_553_1229" x1="682.792" y1="346.433" x2="481.951" y2="441.006" gradientUnits="userSpaceOnUse">
<stop stop-color="white"/>
<stop offset="1" stop-color="white" stop-opacity="0"/>
</linearGradient>
<linearGradient id="paint2_linear_553_1229" x1="776.405" y1="415.592" x2="629.479" y2="567.292" gradientUnits="userSpaceOnUse">
<stop stop-color="white"/>
<stop offset="1" stop-color="white" stop-opacity="0"/>
</linearGradient>
<linearGradient id="paint3_linear_553_1229" x1="452.842" y1="312.903" x2="299.192" y2="433.207" gradientUnits="userSpaceOnUse">
<stop stop-color="white"/>
<stop offset="1" stop-color="white" stop-opacity="0"/>
</linearGradient>
<linearGradient id="paint4_linear_553_1229" x1="765.258" y1="619.954" x2="803.728" y2="931.984" gradientUnits="userSpaceOnUse">
<stop stop-color="white"/>
<stop offset="1" stop-color="white" stop-opacity="0"/>
</linearGradient>
<linearGradient id="paint5_linear_553_1229" x1="613.652" y1="565.468" x2="464.885" y2="823.207" gradientUnits="userSpaceOnUse">
<stop stop-color="white"/>
<stop offset="1" stop-color="white" stop-opacity="0"/>
</linearGradient>
</defs>
</svg>
