<svg width="1150" height="1150" viewBox="0 0 1150 1150" fill="none" xmlns="http://www.w3.org/2000/svg">
<path opacity="0.5" d="M737.503 438.499C654.803 390.199 586.403 435.399 574.303 539.499C572.203 557.599 585.903 581.399 602.503 591.099L872.403 748.699C889.003 758.399 902.703 750.599 900.703 730.099C888.603 611.799 820.203 486.699 737.503 438.499Z" fill="url(#paint0_linear_553_1404)"/>
<path opacity="0.5" d="M829.7 303.2C829.7 375.1 788.1 409.1 736.8 379.1C685.6 349.2 644 266.7 644 194.8C644 122.9 685.6 88.8998 736.9 118.9C788.2 148.8 829.7 231.4 829.7 303.2Z" fill="url(#paint1_linear_553_1404)"/>
<path opacity="0.07" d="M777.503 408.499C694.803 360.199 626.403 405.399 614.303 509.499C612.203 527.599 625.903 551.399 642.503 561.099L912.403 718.699C929.003 728.399 942.703 720.599 940.703 700.099C928.603 581.799 860.203 456.699 777.503 408.499Z" fill="url(#paint2_linear_553_1404)"/>
<path opacity="0.07" d="M869.7 273.2C869.7 345.1 828.1 379.1 776.8 349.1C725.6 319.2 684 236.7 684 164.8C684 92.8998 725.6 58.8998 776.9 88.8998C828.2 118.8 869.7 201.4 869.7 273.2Z" fill="url(#paint3_linear_553_1404)"/>
<path opacity="0.2" d="M395.302 475.199L209.102 367.699V464.699L395.402 572.199L395.302 475.199Z" fill="url(#paint4_linear_553_1404)"/>
<path d="M246.903 422.1C246.903 430.1 242.203 433.8 236.303 430.5C230.503 427.1 225.703 417.9 225.703 409.9C225.703 401.9 230.403 398.2 236.303 401.5C242.203 404.9 246.903 414.1 246.903 422.1Z" fill="#335FE6"/>
<path opacity="0.15" d="M256.5 419.1L317.4 454.2V467.8L256.5 432.7V419.1Z" fill="white"/>
<path opacity="0.15" d="M256.801 446.5L376.101 515.4V529L256.801 460.1V446.5Z" fill="white"/>
<path opacity="0.05" d="M689.301 573L876.401 681V1083.9L689.301 976V573Z" fill="url(#paint5_linear_553_1404)"/>
<path opacity="0.3" d="M845.2 708L658 600V1002.9L845.1 1110.9L845.2 708ZM719 661L781.5 697V713L719 677.5V661Z" fill="url(#paint6_linear_553_1404)"/>
<path opacity="0.15" d="M676.102 855.301L826.402 942.001V955.601L676.102 868.901V855.301Z" fill="white"/>
<path opacity="0.15" d="M686.703 887.9L816.003 962.5V976.1L686.703 901.5V887.9Z" fill="white"/>
<path d="M793.4 821.4C793.4 789.5 774.7 752.8 751.7 739.5C728.7 726.2 710 741.3 710 773.2C710 805.1 728.7 841.8 751.7 855.1C774.7 868.4 793.4 853.3 793.4 821.4Z" fill="#335FE6"/>
<path opacity="0.05" d="M456.301 248.699L643.401 356.699V759.599L456.301 651.599V248.699Z" fill="url(#paint7_linear_553_1404)"/>
<path opacity="0.3" d="M612.2 384L425 276V678.9L612.1 786.9L612.2 384ZM486 337L548.5 373V389L486 353.5V337Z" fill="url(#paint8_linear_553_1404)"/>
<path opacity="0.15" d="M443.102 530.9L593.402 617.6V631.2L443.102 544.5V530.9Z" fill="white"/>
<path opacity="0.15" d="M453.6 563.6L582.8 638.2V651.8L453.5 577.2L453.6 563.6Z" fill="white"/>
<path d="M560.4 497.099C560.4 465.199 541.7 428.499 518.7 415.199C495.7 401.899 477 416.999 477 448.899C477 480.799 495.7 517.499 518.7 530.799C541.7 544.099 560.4 528.999 560.4 497.099Z" fill="#F9DE4B"/>
<path opacity="0.3" d="M560.401 721.8L262.801 550L262.901 705.1L534.201 861.7L560.501 900.6L560.401 721.8Z" fill="url(#paint9_linear_553_1404)"/>
<path d="M231.102 610.5V568.4L343.402 633.2V675.3L231.102 610.5Z" fill="#335FE6"/>
<path opacity="0.15" d="M483.903 715.401L418.703 677.801V691.401L483.903 729.001V715.401Z" fill="white"/>
<path opacity="0.15" d="M483.903 742.699L358.203 670.199V683.799L483.903 756.299V742.699Z" fill="white"/>
<path opacity="0.15" d="M483.903 769.9L331.703 682V695.6L484.003 783.5L483.903 769.9Z" fill="white"/>
<path d="M500.001 738.9C500.001 751.7 507.601 766.4 516.901 771.8C526.201 777.2 533.801 771.2 533.801 758.4C533.801 745.6 526.201 730.9 516.901 725.5C507.501 720.1 499.901 726.1 500.001 738.9Z" fill="#335FE6"/>
<path opacity="0.2" d="M327.101 256.4C333.101 259.8 337.901 268.2 337.901 275.1V305.6L358.101 317.2C364.101 320.6 368.901 329 368.901 335.9C368.901 342.8 364.101 345.6 358.101 342.2L337.901 330.6V361.1C337.901 368 333.101 370.8 327.101 367.4C321.101 364 316.301 355.6 316.301 348.7V318.2L296.101 306.6C290.101 303.2 285.301 294.8 285.301 287.9C285.301 281 290.101 278.2 296.101 281.6L316.301 293.2V262.7C316.301 255.8 321.101 253 327.101 256.4Z" fill="url(#paint10_linear_553_1404)"/>
<defs>
<linearGradient id="paint0_linear_553_1404" x1="1078.74" y1="359.717" x2="742.816" y2="604.763" gradientUnits="userSpaceOnUse">
<stop stop-color="white"/>
<stop offset="1" stop-color="white" stop-opacity="0"/>
</linearGradient>
<linearGradient id="paint1_linear_553_1404" x1="907.545" y1="124.499" x2="571.622" y2="369.545" gradientUnits="userSpaceOnUse">
<stop stop-color="white"/>
<stop offset="1" stop-color="white" stop-opacity="0"/>
</linearGradient>
<linearGradient id="paint2_linear_553_1404" x1="1118.74" y1="329.717" x2="782.816" y2="574.763" gradientUnits="userSpaceOnUse">
<stop stop-color="white"/>
<stop offset="1" stop-color="white" stop-opacity="0"/>
</linearGradient>
<linearGradient id="paint3_linear_553_1404" x1="947.545" y1="94.4987" x2="611.622" y2="339.545" gradientUnits="userSpaceOnUse">
<stop stop-color="white"/>
<stop offset="1" stop-color="white" stop-opacity="0"/>
</linearGradient>
<linearGradient id="paint4_linear_553_1404" x1="323.217" y1="433.592" x2="281.205" y2="506.377" gradientUnits="userSpaceOnUse">
<stop stop-color="white"/>
<stop offset="1" stop-color="white" stop-opacity="0"/>
</linearGradient>
<linearGradient id="paint5_linear_553_1404" x1="891.523" y1="640.289" x2="659.804" y2="1041.74" gradientUnits="userSpaceOnUse">
<stop stop-color="white"/>
<stop offset="1" stop-color="white" stop-opacity="0"/>
</linearGradient>
<linearGradient id="paint6_linear_553_1404" x1="860.227" y1="667.239" x2="628.508" y2="1068.69" gradientUnits="userSpaceOnUse">
<stop stop-color="white"/>
<stop offset="1" stop-color="white" stop-opacity="0"/>
</linearGradient>
<linearGradient id="paint7_linear_553_1404" x1="658.516" y1="315.97" x2="426.797" y2="717.424" gradientUnits="userSpaceOnUse">
<stop stop-color="white"/>
<stop offset="1" stop-color="white" stop-opacity="0"/>
</linearGradient>
<linearGradient id="paint8_linear_553_1404" x1="627.226" y1="343.238" x2="395.507" y2="744.692" gradientUnits="userSpaceOnUse">
<stop stop-color="white"/>
<stop offset="1" stop-color="white" stop-opacity="0"/>
</linearGradient>
<linearGradient id="paint9_linear_553_1404" x1="495.502" y1="659.684" x2="341.852" y2="779.988" gradientUnits="userSpaceOnUse">
<stop stop-color="white"/>
<stop offset="1" stop-color="white" stop-opacity="0"/>
</linearGradient>
<linearGradient id="paint10_linear_553_1404" x1="347.979" y1="295.39" x2="295.621" y2="336.71" gradientUnits="userSpaceOnUse">
<stop stop-color="white"/>
<stop offset="1" stop-color="white" stop-opacity="0"/>
</linearGradient>
</defs>
</svg>
