<svg width="1150" height="1150" viewBox="0 0 1150 1150" fill="none" xmlns="http://www.w3.org/2000/svg">
<path opacity="0.07" d="M941.5 634.5C928.8 627.1 919.6 626.9 913.9 633.9C908.2 640.8 905.4 652.5 905.4 669V757.9C905.4 774.8 903.8 788.8 900.7 799.9C897.6 811.4 892.3 819.6 885 824.4C877.9 829.3 868.3 830.6 856.1 828.3C844.2 826.1 829.3 819.9 811.5 809.6L803 804.7V734.7L813.6 740.8C826.3 748.2 834.8 749.1 839.1 743.7C843.6 738.5 845.9 727.6 845.9 711.1V632.8C845.9 612.4 847.9 596.3 851.9 584.4C855.9 572.5 863.8 565 875.7 561.6C863.8 544.5 855.9 527.8 851.9 511.4C847.9 495 846 476.6 846 456.2V377.9C846 361.4 843.7 348 839.2 337.5C835 327.2 826.5 318.4 813.7 311L803.1 304.9V234.9L811.6 239.8C829.4 250.1 844.3 261 856.2 272.6C868.4 284.3 878 296.8 885.1 309.9C892.5 323.2 897.7 337.4 900.8 352.5C903.9 367.2 905.5 383.1 905.5 399.9V488.8C905.5 505.3 908.3 520.3 914 533.7C919.7 547.2 928.9 557.6 941.6 564.9L941.5 634.5Z" fill="url(#paint0_linear_553_1563)"/>
<path opacity="0.07" d="M619.002 377C631.702 384.4 640.902 384.6 646.602 377.6C652.302 370.7 655.102 359 655.102 342.5V253.6C655.102 236.7 656.702 222.7 659.802 211.6C662.902 200.1 668.002 191.8 675.102 186.9C682.502 182.1 692.102 180.8 704.002 183C716.202 185.3 731.202 191.6 749.002 201.9L757.502 206.8V276.8L746.902 270.7C734.202 263.3 725.502 262.3 721.002 267.5C716.802 272.9 714.602 283.8 714.602 300.3V378.6C714.602 399 712.602 415.1 708.602 427C704.602 438.8 696.702 446.4 684.802 449.8C696.702 466.9 704.602 483.6 708.602 500C712.602 516.4 714.502 534.8 714.502 555.2V633.5C714.502 650 716.602 663.4 720.902 673.7C725.402 684.2 734.102 693.1 746.802 700.4L757.402 706.5V776.5L748.902 771.6C731.102 761.3 716.102 750.3 703.902 738.6C692.002 727 682.402 714.6 675.002 701.3C667.902 688.2 662.802 674.1 659.702 658.9C656.602 644.2 655.002 628.3 655.002 611.5V522.6C655.002 506.1 652.202 491.1 646.502 477.7C640.802 464.2 631.602 453.8 618.902 446.5L619.002 377Z" fill="url(#paint1_linear_553_1563)"/>
<path opacity="0.4" d="M901.5 664.5C888.8 657.1 879.6 656.9 873.9 663.9C868.2 670.8 865.4 682.5 865.4 699V787.9C865.4 804.8 863.8 818.8 860.7 829.9C857.6 841.4 852.3 849.6 845 854.4C837.9 859.3 828.3 860.6 816.1 858.3C804.2 856.1 789.3 849.9 771.5 839.6L763 834.7V764.7L773.6 770.8C786.3 778.2 794.8 779.1 799.1 773.7C803.6 768.5 805.9 757.6 805.9 741.1V662.8C805.9 642.4 807.9 626.3 811.9 614.4C815.9 602.5 823.8 595 835.7 591.6C823.8 574.5 815.9 557.8 811.9 541.4C807.9 525 806 506.6 806 486.2V407.9C806 391.4 803.7 378 799.2 367.5C795 357.2 786.5 348.4 773.7 341L763.1 334.9V264.9L771.6 269.8C789.4 280.1 804.3 291 816.2 302.6C828.4 314.3 838 326.8 845.1 339.9C852.5 353.2 857.7 367.4 860.8 382.5C863.9 397.2 865.5 413.1 865.5 429.9V518.8C865.5 535.3 868.3 550.3 874 563.7C879.7 577.2 888.9 587.6 901.6 594.9L901.5 664.5Z" fill="url(#paint2_linear_553_1563)"/>
<path opacity="0.4" d="M579.002 407C591.702 414.4 600.902 414.6 606.602 407.6C612.302 400.7 615.102 389 615.102 372.5V283.6C615.102 266.7 616.702 252.7 619.802 241.6C622.902 230.1 628.002 221.8 635.102 216.9C642.502 212.1 652.102 210.8 664.002 213C676.202 215.3 691.202 221.6 709.002 231.9L717.502 236.8V306.8L706.902 300.7C694.202 293.3 685.502 292.3 681.002 297.5C676.802 302.9 674.602 313.8 674.602 330.3V408.6C674.602 429 672.602 445.1 668.602 457C664.602 468.8 656.702 476.4 644.802 479.8C656.702 496.9 664.602 513.6 668.602 530C672.602 546.4 674.502 564.8 674.502 585.2V663.5C674.502 680 676.602 693.4 680.902 703.7C685.402 714.2 694.102 723.1 706.802 730.4L717.402 736.5V806.5L708.902 801.6C691.102 791.3 676.102 780.3 663.902 768.6C652.002 757 642.402 744.6 635.002 731.3C627.902 718.2 622.802 704.1 619.702 688.9C616.602 674.2 615.002 658.3 615.002 641.5V552.6C615.002 536.1 612.202 521.1 606.502 507.7C600.802 494.2 591.602 483.8 578.902 476.5L579.002 407Z" fill="url(#paint3_linear_553_1563)"/>
<path opacity="0.15" d="M357.002 194.199L527.902 292.899L527.802 702.199L356.902 603.499L357.002 194.199Z" fill="url(#paint4_linear_553_1563)"/>
<path d="M324.902 257.1L460.802 335.6V373.3L324.902 294.8V257.1Z" fill="#F9DE4B"/>
<path opacity="0.15" d="M378.102 420.699L508.702 496.099V554.699L378.102 479.299V420.699Z" fill="white"/>
<path opacity="0.15" d="M378 349.801L508.8 425.301V438.901L378 363.501V349.801Z" fill="white"/>
<path opacity="0.15" d="M378 376.4L491.1 441.7V455.3L378 390V376.4Z" fill="white"/>
<path opacity="0.2" d="M357 194.199L527.9 292.899V347.799L357 249.099V194.199Z" fill="url(#paint5_linear_553_1563)"/>
<path opacity="0.2" d="M399.7 246.599C399.7 254.899 394.8 258.799 388.8 255.399C382.8 251.899 378 242.399 378 234.099C378 225.799 382.9 221.899 388.9 225.299C394.8 228.799 399.7 238.299 399.7 246.599Z" fill="white"/>
<path opacity="0.15" d="M567.002 573.699L737.902 672.399L737.802 1081.7L566.902 982.999L567.002 573.699Z" fill="url(#paint6_linear_553_1563)"/>
<path d="M632.1 692.801L768 771.201V808.801L632 730.401L632.1 692.801Z" fill="#335FE6"/>
<path opacity="0.15" d="M588.102 731.699L718.802 807.199V865.699L588.102 790.199V731.699Z" fill="white"/>
<path opacity="0.15" d="M587.902 815.301L718.702 890.801V904.401L587.902 829.001V815.301Z" fill="white"/>
<path opacity="0.15" d="M587.902 839.9L701.002 905.2V918.8L587.902 853.5V839.9Z" fill="white"/>
<path opacity="0.2" d="M567 573.699L737.9 672.399V727.299L567 628.599V573.699Z" fill="url(#paint7_linear_553_1563)"/>
<path opacity="0.2" d="M609.7 626.201C609.7 634.501 604.8 638.401 598.8 635.001C592.8 631.501 588 622.001 588 613.701C588 605.401 592.9 601.501 598.9 604.901C604.8 608.301 609.7 617.901 609.7 626.201Z" fill="white"/>
<path opacity="0.3" d="M537.402 630.399L239.902 458.699L240.002 613.799L511.302 770.399L537.602 809.299L537.402 630.399Z" fill="url(#paint8_linear_553_1563)"/>
<path opacity="0.15" d="M460.903 624L395.703 586.4V600L460.903 637.6V624Z" fill="white"/>
<path opacity="0.15" d="M460.9 651.3L299.5 558.1V571.7L461 664.9L460.9 651.3Z" fill="white"/>
<path opacity="0.15" d="M461.002 678.6L266.102 566.1V579.7L461.002 692.2V678.6Z" fill="white"/>
<path d="M477 647.5C477 660.3 484.6 675 493.9 680.4C503.2 685.8 510.8 679.8 510.8 667C510.8 654.2 503.2 639.5 493.9 634.1C484.5 628.7 477 634.7 477 647.5Z" fill="#335FE6"/>
<path opacity="0.15" d="M269.302 349.799L229.902 326.999V313.699L269.302 336.499C272.502 338.399 277.202 342.099 281.202 347.899C285.502 354.099 288.602 361.899 288.602 370.399C288.602 379.799 286.202 385.099 281.702 386.699C277.402 388.099 272.402 385.699 269.302 383.899L253.102 374.499L253.002 374.399C251.602 373.599 249.402 372.799 247.702 373.299C246.302 373.699 244.602 375.199 244.602 380.399C244.602 385.599 246.202 388.799 247.602 390.699C249.302 393.099 251.502 394.799 252.902 395.499L253.102 395.599L302.702 424.199V437.499L253.402 408.999C250.002 407.199 245.102 403.499 240.902 397.599C236.302 391.099 233.102 382.899 233.102 373.699C233.102 364.599 236.302 359.899 240.802 358.599C245.002 357.399 249.902 359.199 253.302 361.199L269.402 370.499C271.702 371.799 273.502 372.399 274.602 371.999C275.502 371.699 277.102 370.399 277.102 363.699C277.102 359.299 275.702 356.499 274.302 354.499C272.702 352.299 270.602 350.499 269.302 349.799Z" fill="white"/>
<path d="M241.601 328.399C241.601 339.799 234.901 345.099 226.701 340.399C218.501 335.699 211.801 322.599 211.801 311.199C211.801 299.799 218.501 294.499 226.701 299.199C234.901 303.999 241.601 317.099 241.601 328.399Z" fill="#F9DE4B"/>
<path d="M320.601 438.399C320.601 449.799 313.901 455.099 305.701 450.399C297.501 445.699 290.801 432.599 290.801 421.199C290.801 409.799 297.501 404.499 305.701 409.199C313.901 413.999 320.601 427.099 320.601 438.399Z" fill="#F9DE4B"/>
<path opacity="0.2" d="M426.902 786.101C432.902 789.601 437.702 797.901 437.702 804.901V835.401L457.902 847.001C463.902 850.501 468.702 858.801 468.702 865.801C468.702 872.701 463.802 875.501 457.902 872.101L437.702 860.501V891.001C437.702 897.901 432.802 900.701 426.902 897.301C420.902 893.801 416.102 885.501 416.102 878.501V848.001L395.902 836.401C389.902 832.901 385.102 824.601 385.102 817.601C385.102 810.701 390.002 807.901 395.902 811.301L416.102 822.901V792.401C416.102 785.401 420.902 782.601 426.902 786.101Z" fill="url(#paint9_linear_553_1563)"/>
<defs>
<linearGradient id="paint0_linear_553_1563" x1="1004.41" y1="255.119" x2="757.783" y2="682.567" gradientUnits="userSpaceOnUse">
<stop stop-color="white"/>
<stop offset="1" stop-color="white" stop-opacity="0"/>
</linearGradient>
<linearGradient id="paint1_linear_553_1563" x1="885.829" y1="184.847" x2="639.198" y2="612.295" gradientUnits="userSpaceOnUse">
<stop stop-color="white"/>
<stop offset="1" stop-color="white" stop-opacity="0"/>
</linearGradient>
<linearGradient id="paint2_linear_553_1563" x1="964.414" y1="285.119" x2="717.783" y2="712.567" gradientUnits="userSpaceOnUse">
<stop stop-color="white"/>
<stop offset="1" stop-color="white" stop-opacity="0"/>
</linearGradient>
<linearGradient id="paint3_linear_553_1563" x1="845.828" y1="214.847" x2="599.198" y2="642.294" gradientUnits="userSpaceOnUse">
<stop stop-color="white"/>
<stop offset="1" stop-color="white" stop-opacity="0"/>
</linearGradient>
<linearGradient id="paint4_linear_553_1563" x1="531.003" y1="294.653" x2="367.735" y2="577.516" gradientUnits="userSpaceOnUse">
<stop stop-color="white"/>
<stop offset="1" stop-color="white" stop-opacity="0"/>
</linearGradient>
<linearGradient id="paint5_linear_553_1563" x1="415.636" y1="195.035" x2="467.65" y2="342.512" gradientUnits="userSpaceOnUse">
<stop stop-color="white"/>
<stop offset="1" stop-color="white" stop-opacity="0"/>
</linearGradient>
<linearGradient id="paint6_linear_553_1563" x1="740.996" y1="674.178" x2="577.728" y2="957.041" gradientUnits="userSpaceOnUse">
<stop stop-color="white"/>
<stop offset="1" stop-color="white" stop-opacity="0"/>
</linearGradient>
<linearGradient id="paint7_linear_553_1563" x1="625.629" y1="574.56" x2="677.642" y2="722.037" gradientUnits="userSpaceOnUse">
<stop stop-color="white"/>
<stop offset="1" stop-color="white" stop-opacity="0"/>
</linearGradient>
<linearGradient id="paint8_linear_553_1563" x1="472.535" y1="568.331" x2="318.884" y2="688.635" gradientUnits="userSpaceOnUse">
<stop stop-color="white"/>
<stop offset="1" stop-color="white" stop-opacity="0"/>
</linearGradient>
<linearGradient id="paint9_linear_553_1563" x1="447.761" y1="825.063" x2="395.389" y2="866.368" gradientUnits="userSpaceOnUse">
<stop stop-color="white"/>
<stop offset="1" stop-color="white" stop-opacity="0"/>
</linearGradient>
</defs>
</svg>
