<svg width="1150" height="1150" viewBox="0 0 1150 1150" fill="none" xmlns="http://www.w3.org/2000/svg">
<path opacity="0.1" d="M546.203 204.102L943.903 802.802L546.303 573.202L546.203 204.102Z" fill="url(#paint0_linear_553_1376)"/>
<path opacity="0.4" d="M925.9 844.601C930 847.001 931.8 842.101 928.6 837.301L508 204.201C505.2 199.901 501 199.801 501 204.001L501.1 594.201C501.1 597.001 503 600.301 505.4 601.701L925.9 844.601ZM563.3 384.401C563.3 380.201 567.5 380.301 570.3 384.601L754.7 661.801C757.9 666.601 756.1 671.501 752 669.101L567.7 562.601C565.3 561.201 563.4 557.901 563.4 555.101L563.3 384.401Z" fill="url(#paint1_linear_553_1376)"/>
<path opacity="0.3" d="M699.703 217.201L997.303 389.101V544.201L726.003 387.401L699.803 396.001L699.703 217.201Z" fill="url(#paint2_linear_553_1376)"/>
<path d="M760.101 304.101C760.101 316.901 752.501 322.901 743.201 317.501C733.901 312.101 726.301 297.401 726.301 284.601C726.301 271.801 733.901 265.801 743.201 271.201C752.601 276.601 760.101 291.301 760.101 304.101Z" fill="#F9DE4B"/>
<path opacity="0.15" d="M776.203 299.102L841.403 336.802V350.402L776.203 312.702V299.102Z" fill="white"/>
<path opacity="0.15" d="M776.203 326.4L970.903 438.9V452.5L776.203 340V326.4Z" fill="white"/>
<path opacity="0.15" d="M776.203 353.701L928.503 441.701V455.301L776.203 367.301V353.701Z" fill="white"/>
<path opacity="0.3" d="M449.801 599.4L152.301 427.5V582.6L423.601 739.3L449.901 778.2L449.801 599.4Z" fill="url(#paint3_linear_553_1376)"/>
<path d="M389.402 616.401C389.402 629.201 397.002 643.901 406.302 649.301C415.602 654.701 423.202 648.701 423.202 635.901C423.202 623.101 415.602 608.401 406.302 603.001C397.002 597.701 389.402 603.701 389.402 616.401Z" fill="#335FE6"/>
<path opacity="0.15" d="M373.302 593.001L308.102 555.301V568.901L373.302 606.601V593.001Z" fill="white"/>
<path opacity="0.15" d="M373.402 620.201L178.602 507.701V521.301L373.302 633.801L373.402 620.201Z" fill="white"/>
<path opacity="0.15" d="M373.402 647.5L221.102 559.5V573.1L373.402 661.1V647.5Z" fill="white"/>
<path opacity="0.2" d="M344 198.301L468.3 270.101L468.4 539.401L344 467.601V198.301Z" fill="url(#paint4_linear_553_1376)"/>
<path d="M305.102 272.201L402.902 328.701V361.001L305.102 304.501V272.201Z" fill="#335FE6"/>
<path opacity="0.15" d="M344 427.602L468.3 499.402V539.302L344 467.502V427.602Z" fill="white"/>
<path opacity="0.15" d="M359.301 247.201L410.301 276.601V290.201L359.301 260.801V247.201Z" fill="white"/>
<path opacity="0.15" d="M359.402 274.5L449.602 326.6V340.2L359.402 288.1V274.5Z" fill="white"/>
<path opacity="0.15" d="M412.302 423.5V437.1L359.402 406.5V392.9L412.302 423.5Z" fill="white"/>
<path opacity="0.2" d="M606.601 682.2L482.301 610.4L482.401 879.7L606.701 951.5L606.601 682.2Z" fill="url(#paint5_linear_553_1376)"/>
<path d="M645.503 801L547.703 744.5V776.8L645.503 833.3V801Z" fill="#F9DE4B"/>
<path opacity="0.15" d="M606.702 911.501L482.402 839.701V879.601L606.702 951.401V911.501Z" fill="white"/>
<path opacity="0.15" d="M501.102 661.301L552.102 690.701V704.301L501.102 674.901V661.301Z" fill="white"/>
<path opacity="0.15" d="M501.102 688.602L591.302 740.702V754.302L501.102 702.202V688.602Z" fill="white"/>
<path opacity="0.15" d="M538.402 828.602V842.202L591.302 872.802V859.202L538.402 828.602Z" fill="white"/>
<path opacity="0.2" d="M860.3 510.9C866.3 514.3 871.1 522.7 871.1 529.6V560.1L891.3 571.701C897.3 575.101 902.1 583.5 902.1 590.4C902.1 597.3 897.3 600.101 891.3 596.701L871.1 585.1V615.6C871.1 622.5 866.3 625.3 860.3 621.9C854.3 618.5 849.5 610.101 849.5 603.201V572.701L829.3 561C823.3 557.6 818.5 549.201 818.5 542.201C818.5 535.301 823.3 532.5 829.3 535.9L849.5 547.5V517C849.5 510.2 854.3 507.4 860.3 510.9Z" fill="url(#paint6_linear_553_1376)"/>
<defs>
<linearGradient id="paint0_linear_553_1376" x1="835.901" y1="346.251" x2="632.291" y2="698.699" gradientUnits="userSpaceOnUse">
<stop stop-color="white"/>
<stop offset="1" stop-color="white" stop-opacity="0"/>
</linearGradient>
<linearGradient id="paint1_linear_553_1376" x1="814.133" y1="352.568" x2="607.94" y2="709.27" gradientUnits="userSpaceOnUse">
<stop stop-color="white"/>
<stop offset="0.8963" stop-color="white" stop-opacity="0"/>
</linearGradient>
<linearGradient id="paint2_linear_553_1376" x1="827.59" y1="222.272" x2="865.864" y2="534.295" gradientUnits="userSpaceOnUse">
<stop stop-color="white"/>
<stop offset="1" stop-color="white" stop-opacity="0"/>
</linearGradient>
<linearGradient id="paint3_linear_553_1376" x1="384.942" y1="537.247" x2="231.282" y2="657.5" gradientUnits="userSpaceOnUse">
<stop stop-color="white"/>
<stop offset="1" stop-color="white" stop-opacity="0"/>
</linearGradient>
<linearGradient id="paint4_linear_553_1376" x1="464.463" y1="267.91" x2="357.019" y2="453.897" gradientUnits="userSpaceOnUse">
<stop stop-color="white"/>
<stop offset="1" stop-color="white" stop-opacity="0"/>
</linearGradient>
<linearGradient id="paint5_linear_553_1376" x1="602.83" y1="680.016" x2="495.385" y2="866.003" gradientUnits="userSpaceOnUse">
<stop stop-color="white"/>
<stop offset="1" stop-color="white" stop-opacity="0"/>
</linearGradient>
<linearGradient id="paint6_linear_553_1376" x1="881.174" y1="549.868" x2="828.816" y2="591.188" gradientUnits="userSpaceOnUse">
<stop stop-color="white"/>
<stop offset="1" stop-color="white" stop-opacity="0"/>
</linearGradient>
</defs>
</svg>
