<svg width="1150" height="1150" viewBox="0 0 1150 1150" fill="none" xmlns="http://www.w3.org/2000/svg">
<path opacity="0.1" d="M262.799 108.1L950.599 505.1L950.499 1041.1L262.699 644.1L262.799 108.1Z" fill="url(#paint0_linear_553_1461)"/>
<path opacity="0.2" d="M262.797 108.1L949.697 504.6V577.3L262.797 180.8V108.1Z" fill="url(#paint1_linear_553_1461)"/>
<path d="M197.898 350.9L375.698 453.5V502.8L197.898 400.2V350.9Z" fill="#335FE6"/>
<path d="M688.098 625.799L865.898 728.399V777.699L688.098 675.099V625.799Z" fill="#F9DE4B"/>
<path opacity="0.15" d="M571.5 692.199L918.5 892.499V1041.4L571.5 841.099V692.199Z" fill="url(#paint2_linear_553_1461)"/>
<path opacity="0.07" d="M605.098 675.4L952.098 875.7V1024.6L605.098 824.3V675.4Z" fill="url(#paint3_linear_553_1461)"/>
<path opacity="0.15" d="M597.199 737.299L649.499 767.499V816.799L597.199 786.599V737.299Z" fill="white"/>
<path opacity="0.15" d="M661.598 776.199L713.898 806.399V855.699L661.598 825.499V776.199Z" fill="white"/>
<path opacity="0.15" d="M726 812.699L778.3 842.899V892.199L726 861.899V812.699Z" fill="white"/>
<path opacity="0.15" d="M790.398 851.6L842.698 881.8V931.1L790.398 900.9V851.6Z" fill="white"/>
<path opacity="0.15" d="M309.199 309.6L703.799 537.4V554.2L309.199 326.5V309.6Z" fill="white"/>
<path opacity="0.15" d="M309.199 343.5L649.699 540V556.8L309.199 360.3V343.5Z" fill="white"/>
<path opacity="0.15" d="M309.199 377L598.899 544.2V561L309.199 393.8V377Z" fill="white"/>
<path opacity="0.15" d="M214.199 470.299L503.099 636.999V785.899L214.199 619.199V470.299Z" fill="url(#paint4_linear_553_1461)"/>
<path opacity="0.07" d="M247.797 453.5L536.697 620.2V769.1L247.797 602.4V453.5Z" fill="url(#paint5_linear_553_1461)"/>
<path opacity="0.15" d="M233.898 517.5L463.398 650V666.8L233.898 534.4V517.5Z" fill="white"/>
<path opacity="0.15" d="M233.898 551.4L417.698 657.5V674.3L233.898 568.2V551.4Z" fill="white"/>
<path opacity="0.2" d="M337.599 187.599C337.599 198.499 331.199 203.599 323.399 199.099C315.599 194.599 309.199 182.099 309.199 171.299C309.199 160.499 315.599 155.299 323.399 159.799C331.199 164.299 337.599 176.799 337.599 187.599Z" fill="white"/>
<path opacity="0.3" d="M318.899 760.099C318.899 779.899 314.499 792.599 305.699 798.099C296.899 803.599 285.099 802.099 270.299 793.499C255.499 784.999 243.699 772.899 234.899 757.199C226.099 741.599 221.699 723.799 221.699 703.999C221.699 684.199 226.099 671.499 234.899 665.999C243.699 660.499 255.499 661.999 270.299 670.599C285.099 679.199 296.899 691.199 305.699 706.899C314.499 722.499 318.899 740.199 318.899 760.099ZM287.899 742.199C287.899 731.399 286.299 722.699 282.999 715.899C279.699 709.099 275.499 704.299 270.399 701.299C265.099 698.199 260.799 698.199 257.499 701.099C254.399 704.199 252.799 711.099 252.799 721.799C252.799 732.599 254.399 741.399 257.499 748.199C260.799 754.999 265.099 759.899 270.399 762.899C275.499 765.899 279.699 765.899 282.999 762.899C286.199 759.899 287.899 752.899 287.899 742.199ZM372.399 734.599L410.499 756.599L303.199 914.099L265.099 892.099L372.399 734.599ZM454.399 944.999C454.399 964.799 449.999 977.499 441.199 982.999C432.399 988.499 420.599 986.999 405.799 978.399C390.999 969.899 379.199 957.799 370.399 942.099C361.599 926.499 357.199 908.699 357.199 888.899C357.199 869.099 361.599 856.399 370.399 850.899C379.199 845.399 390.999 846.899 405.799 855.499C420.599 863.999 432.399 876.099 441.199 891.799C449.999 907.399 454.399 925.199 454.399 944.999ZM423.399 927.099C423.399 916.299 421.799 907.599 418.499 900.799C415.199 893.999 410.999 889.199 405.899 886.199C400.599 883.099 396.299 883.099 392.999 885.999C389.899 889.099 388.299 895.999 388.299 906.699C388.299 917.499 389.899 926.299 392.999 933.099C396.299 939.899 400.599 944.799 405.899 947.799C410.999 950.799 415.199 950.799 418.499 947.799C421.699 944.899 423.399 937.899 423.399 927.099Z" fill="url(#paint6_linear_553_1461)"/>
<defs>
<linearGradient id="paint0_linear_553_1461" x1="740.688" y1="440.899" x2="484.181" y2="696.9" gradientUnits="userSpaceOnUse">
<stop stop-color="white"/>
<stop offset="1" stop-color="white" stop-opacity="0"/>
</linearGradient>
<linearGradient id="paint1_linear_553_1461" x1="433.225" y1="49.6241" x2="694.047" y2="491.433" gradientUnits="userSpaceOnUse">
<stop stop-color="white"/>
<stop offset="1" stop-color="white" stop-opacity="0"/>
</linearGradient>
<linearGradient id="paint2_linear_553_1461" x1="777.222" y1="810.985" x2="717.836" y2="913.871" gradientUnits="userSpaceOnUse">
<stop stop-color="white"/>
<stop offset="1" stop-color="white" stop-opacity="0"/>
</linearGradient>
<linearGradient id="paint3_linear_553_1461" x1="810.849" y1="794.172" x2="751.463" y2="897.057" gradientUnits="userSpaceOnUse">
<stop stop-color="white"/>
<stop offset="1" stop-color="white" stop-opacity="0"/>
</linearGradient>
<linearGradient id="paint4_linear_553_1461" x1="390.858" y1="572.262" x2="331.472" y2="675.147" gradientUnits="userSpaceOnUse">
<stop stop-color="white"/>
<stop offset="1" stop-color="white" stop-opacity="0"/>
</linearGradient>
<linearGradient id="paint5_linear_553_1461" x1="424.484" y1="555.449" x2="365.098" y2="658.334" gradientUnits="userSpaceOnUse">
<stop stop-color="white"/>
<stop offset="1" stop-color="white" stop-opacity="0"/>
</linearGradient>
<linearGradient id="paint6_linear_553_1461" x1="392.35" y1="748.406" x2="249.866" y2="948.157" gradientUnits="userSpaceOnUse">
<stop stop-color="white"/>
<stop offset="1" stop-color="white" stop-opacity="0"/>
</linearGradient>
</defs>
</svg>
