<svg width="80" height="80" viewBox="0 0 80 80" fill="none" xmlns="http://www.w3.org/2000/svg">
<path d="M16.6667 15.3473V45.964C16.6667 48.1589 17.2086 50.3198 18.2442 52.2549C19.2798 54.1901 20.7772 55.8397 22.6033 57.0573L40 68.6573L57.3967 57.0573C59.2224 55.84 60.7194 54.191 61.755 52.2564C62.7906 50.3219 63.3327 48.1616 63.3333 45.9673V15.3473L40 10.1673L16.6667 15.3473ZM12.61 9.42065L40 3.33398L67.39 9.42065C68.1302 9.5852 68.7922 9.9972 69.2667 10.5887C69.7412 11.1801 69.9999 11.9157 70 12.674V45.964C69.9998 49.2564 69.1867 52.4979 67.633 55.4007C66.0792 58.3035 63.8329 60.7778 61.0933 62.604L40 76.6673L18.9067 62.604C16.1676 60.7781 13.9215 58.3043 12.3678 55.4022C10.8141 52.5 10.0008 49.2592 10 45.9673V12.674C10.0001 11.9157 10.2588 11.1801 10.7333 10.5887C11.2078 9.9972 11.8698 9.5852 12.61 9.42065ZM40 45.0007L30.2033 50.1507L32.0733 39.244L24.15 31.5173L35.1033 29.924L40 20.0007L44.9 29.924L55.85 31.5173L47.9267 39.244L49.7933 50.1507L40 45.0007Z" fill="#0F3ECE"/>
</svg>
