<svg width="80" height="80" viewBox="0 0 80 80" fill="none" xmlns="http://www.w3.org/2000/svg">
<path d="M73.3337 30H66.667V23.3333H38.6203L31.9537 16.6667H13.3337V63.3333H38.157C39.3811 66.0086 41.2956 68.3097 43.7037 70H10.0003C9.11627 70 8.26842 69.6488 7.6433 69.0237C7.01818 68.3986 6.66699 67.5507 6.66699 66.6667V13.3333C6.66699 12.4493 7.01818 11.6014 7.6433 10.9763C8.26842 10.3512 9.11627 10 10.0003 10H34.7137L41.3803 16.6667H70.0003C70.8844 16.6667 71.7322 17.0179 72.3573 17.643C72.9825 18.2681 73.3337 19.1159 73.3337 20V30ZM43.3337 36.6667H73.3337V56.4967C73.3337 59.7967 71.6637 62.8833 68.8803 64.7133L58.3337 71.66L47.787 64.7133C46.4224 63.8203 45.3011 62.6023 44.5238 61.1687C43.7464 59.7351 43.3375 58.1308 43.3337 56.5V36.6667ZM50.0003 56.4967C50.0003 57.55 50.5403 58.5433 51.4537 59.1467L58.3337 63.68L65.2137 59.1467C65.6567 58.8602 66.0216 58.468 66.2753 58.0054C66.529 57.5427 66.6636 57.0243 66.667 56.4967V43.3333H50.0003V56.4967Z" fill="#0F3ECE"/>
</svg>
