<svg width="80" height="80" viewBox="0 0 80 80" fill="none" xmlns="http://www.w3.org/2000/svg">
<path d="M16.6673 29.9993C17.5514 29.9993 18.3992 30.3505 19.0243 30.9757C19.6495 31.6008 20.0007 32.4486 20.0007 33.3327C25.2378 33.325 30.3239 35.0869 34.434 38.3327H41.6673C46.1107 38.3327 50.1007 40.266 52.8473 43.3327H63.334C66.4849 43.3318 69.5714 44.2241 72.2358 45.9062C74.9001 47.5882 77.0331 49.991 78.3873 52.836C70.504 63.2393 57.7407 69.9993 43.334 69.9993C34.034 69.9993 26.1673 67.9893 19.8007 64.4727C19.5675 65.1162 19.1414 65.6721 18.5807 66.0647C18.02 66.4572 17.3518 66.6672 16.6673 66.666H6.66732C5.78326 66.666 4.93542 66.3148 4.31029 65.6897C3.68517 65.0646 3.33398 64.2167 3.33398 63.3327V33.3327C3.33398 32.4486 3.68517 31.6008 4.31029 30.9757C4.93542 30.3505 5.78326 29.9993 6.66732 29.9993H16.6673ZM20.004 39.9993L20.0007 56.7393L20.1507 56.846C26.134 61.046 33.9273 63.3327 43.334 63.3327C53.3473 63.3327 62.664 59.4793 69.4507 52.8993L69.894 52.456L69.494 52.1227C67.92 50.8899 66.012 50.1583 64.0173 50.0227L63.334 49.9993H56.2973C56.5373 51.0727 56.6673 52.186 56.6673 53.3327V56.666H26.6673V49.9993L49.3007 49.996L49.1873 49.736C48.5485 48.4011 47.5659 47.2604 46.3404 46.4309C45.1149 45.6014 43.6906 45.113 42.214 45.016L41.6673 44.9993H31.9007C30.3517 43.4151 28.5016 42.1566 26.4591 41.298C24.4166 40.4393 22.223 39.9978 20.0073 39.9993H20.004ZM13.334 36.666H10.0007V59.9993H13.334V36.666ZM60.0007 16.666C62.6528 16.666 65.1964 17.7196 67.0717 19.5949C68.9471 21.4703 70.0007 24.0139 70.0007 26.666C70.0007 29.3182 68.9471 31.8617 67.0717 33.7371C65.1964 35.6124 62.6528 36.666 60.0007 36.666C57.3485 36.666 54.8049 35.6124 52.9296 33.7371C51.0542 31.8617 50.0007 29.3182 50.0007 26.666C50.0007 24.0139 51.0542 21.4703 52.9296 19.5949C54.8049 17.7196 57.3485 16.666 60.0007 16.666ZM60.0007 23.3327C59.1166 23.3327 58.2687 23.6839 57.6436 24.309C57.0185 24.9341 56.6673 25.782 56.6673 26.666C56.6673 27.5501 57.0185 28.3979 57.6436 29.023C58.2687 29.6482 59.1166 29.9993 60.0007 29.9993C60.8847 29.9993 61.7326 29.6482 62.3577 29.023C62.9828 28.3979 63.334 27.5501 63.334 26.666C63.334 25.782 62.9828 24.9341 62.3577 24.309C61.7326 23.6839 60.8847 23.3327 60.0007 23.3327ZM36.6673 6.66602C39.3195 6.66602 41.863 7.71958 43.7384 9.59495C45.6138 11.4703 46.6673 14.0139 46.6673 16.666C46.6673 19.3182 45.6138 21.8617 43.7384 23.7371C41.863 25.6124 39.3195 26.666 36.6673 26.666C34.0152 26.666 31.4716 25.6124 29.5963 23.7371C27.7209 21.8617 26.6673 19.3182 26.6673 16.666C26.6673 14.0139 27.7209 11.4703 29.5963 9.59495C31.4716 7.71958 34.0152 6.66602 36.6673 6.66602ZM36.6673 13.3327C35.7833 13.3327 34.9354 13.6839 34.3103 14.309C33.6852 14.9341 33.334 15.782 33.334 16.666C33.334 17.5501 33.6852 18.3979 34.3103 19.023C34.9354 19.6482 35.7833 19.9993 36.6673 19.9993C37.5514 19.9993 38.3992 19.6482 39.0243 19.023C39.6495 18.3979 40.0007 17.5501 40.0007 16.666C40.0007 15.782 39.6495 14.9341 39.0243 14.309C38.3992 13.6839 37.5514 13.3327 36.6673 13.3327Z" fill="#0F3ECE"/>
</svg>
