<svg width="80" height="80" viewBox="0 0 80 80" fill="none" xmlns="http://www.w3.org/2000/svg">
<path d="M33.2437 60.0038H46.757C47.197 55.9972 49.2404 52.6905 52.557 49.0805C52.9337 48.6738 55.3304 46.1905 55.6137 45.8372C57.968 42.8959 59.4436 39.3495 59.8708 35.6064C60.2979 31.8633 59.659 28.0756 58.0278 24.6796C56.3967 21.2836 53.8395 18.4174 50.6507 16.4111C47.462 14.4047 43.7714 13.3398 40.004 13.339C36.2365 13.3382 32.5455 14.4015 29.3559 16.4065C26.1663 18.4115 23.6079 21.2766 21.9752 24.6719C20.3426 28.0672 19.7022 31.8546 20.1277 35.5979C20.5532 39.3412 22.0273 42.8883 24.3804 45.8305C24.667 46.1872 27.0704 48.6738 27.4404 49.0772C30.7604 52.6905 32.8037 55.9972 33.2437 60.0038ZM46.667 66.6705H33.3337V70.0038H46.667V66.6705ZM19.1804 50.0038C16.041 46.0815 14.0735 41.3521 13.5046 36.3604C12.9356 31.3687 13.7884 26.3179 15.9645 21.7896C18.1407 17.2614 21.5518 13.4401 25.8049 10.7658C30.0579 8.09147 34.98 6.67302 40.004 6.67383C45.028 6.67463 49.9495 8.09465 54.2017 10.7703C58.454 13.446 61.8638 17.2684 64.0385 21.7973C66.2133 26.3262 67.0644 31.3774 66.4938 36.3689C65.9233 41.3604 63.9543 46.0891 60.8137 50.0105C58.747 52.5838 53.3337 56.6705 53.3337 61.6705V70.0038C53.3337 71.7719 52.6313 73.4676 51.3811 74.7179C50.1308 75.9681 48.4351 76.6705 46.667 76.6705H33.3337C31.5656 76.6705 29.8699 75.9681 28.6196 74.7179C27.3694 73.4676 26.667 71.7719 26.667 70.0038V61.6705C26.667 56.6705 21.2504 52.5838 19.1804 50.0038ZM43.3337 33.3505H51.667L36.667 53.3505V40.0172H28.3337L43.3337 20.0038V33.3538V33.3505Z" fill="#0F3ECE"/>
</svg>
