<svg width="80" height="80" viewBox="0 0 80 80" fill="none" xmlns="http://www.w3.org/2000/svg">
<path d="M10.5368 14.8962C14.4037 11.0287 19.5901 8.76653 25.0555 8.56374C30.5208 8.36095 35.8606 10.2325 40.0035 13.8029C44.1427 10.2385 49.4754 8.36901 54.9342 8.56878C60.3929 8.76855 65.5748 11.0228 69.4424 14.8803C73.3099 18.7377 75.5778 23.9137 75.7918 29.3719C76.0059 34.8301 74.1504 40.1677 70.5968 44.3162L44.7135 70.2829C43.5243 71.4725 41.9294 72.1686 40.2485 72.2317C38.5677 72.2947 36.9251 71.7201 35.6501 70.6229L35.2835 70.2862L9.40348 44.3162C5.85177 40.1713 3.99541 34.8386 4.20553 29.3842C4.41564 23.9298 6.67676 18.7556 10.5368 14.8962ZM15.2501 19.6096C12.5243 22.3362 10.953 26.0077 10.8624 29.8621C10.7717 33.7166 12.1688 37.4579 14.7635 40.3096L15.2501 40.8229L40.0001 65.5729L57.6768 47.8929L45.8935 36.1096L42.3601 39.6429C41.4317 40.5718 40.3294 41.3087 39.1161 41.8116C37.9029 42.3145 36.6025 42.5734 35.2892 42.5737C32.6368 42.5744 30.0928 41.5213 28.2168 39.6462C26.3408 37.7712 25.2866 35.2277 25.286 32.5753C25.2853 29.9229 26.3384 27.3789 28.2135 25.5029L35.2201 18.4929C32.4317 16.2675 28.9415 15.1085 25.3758 15.224C21.81 15.3395 18.4021 16.7218 15.7635 19.1229L15.2501 19.6096ZM43.5368 29.0362C44.1619 28.4113 45.0096 28.0603 45.8935 28.0603C46.7774 28.0603 47.625 28.4113 48.2501 29.0362L62.3901 43.1762L64.7501 40.8229C67.5217 38.0534 69.0995 34.3093 69.1462 30.3914C69.193 26.4736 67.7049 22.693 65.0002 19.8581C62.2956 17.0232 58.589 15.3591 54.6733 15.2217C50.7576 15.0844 46.9435 16.4846 44.0468 19.1229L43.5368 19.6096L32.9301 30.2162C32.3524 30.7936 32.0067 31.563 31.9588 32.3785C31.9109 33.1939 32.164 33.9985 32.6701 34.6396L32.9301 34.9296C33.5075 35.5073 34.277 35.853 35.0924 35.9009C35.9078 35.9488 36.7124 35.6957 37.3535 35.1896L37.6435 34.9296L43.5368 29.0362Z" fill="#0F3ECE"/>
</svg>
