<svg width="80" height="80" viewBox="0 0 80 80" fill="none" xmlns="http://www.w3.org/2000/svg">
<path d="M39.9997 46.6673V53.334C34.6953 53.334 29.6083 55.4411 25.8575 59.1918C22.1068 62.9426 19.9997 68.0297 19.9997 73.334H13.333C13.333 66.2615 16.1425 59.4788 21.1435 54.4778C26.1445 49.4768 32.9272 46.6673 39.9997 46.6673ZM39.9997 43.334C28.9497 43.334 19.9997 34.384 19.9997 23.334C19.9997 12.284 28.9497 3.33398 39.9997 3.33398C51.0497 3.33398 59.9997 12.284 59.9997 23.334C59.9997 34.384 51.0497 43.334 39.9997 43.334ZM39.9997 36.6673C47.3663 36.6673 53.333 30.7007 53.333 23.334C53.333 15.9673 47.3663 10.0007 39.9997 10.0007C32.633 10.0007 26.6663 15.9673 26.6663 23.334C26.6663 30.7007 32.633 36.6673 39.9997 36.6673ZM59.9997 71.6673L50.203 76.8173L52.073 65.9107L44.1497 58.184L55.103 56.5907L59.9997 46.6673L64.8997 56.5907L75.8497 58.184L67.9263 65.9107L69.793 76.8173L59.9997 71.6673Z" fill="#0F3ECE"/>
</svg>
