<svg xmlns="http://www.w3.org/2000/svg" xmlns:xlink="http://www.w3.org/1999/xlink" version="1.2" width="1059" height="662" viewBox="0 0 1280 800"><g><g id="vb5XTVk9" transform="matrix(1,0,0,1,0,0)"><defs><!----><!----><!----></defs><!----><!----><g><!----><g transform=""><!----><g id="vb5XTVk9_origin" transform="skewX(0) skewY(0)"><path id="shapepath_vb5XTVk9" d="M0,0L1280 0L1280 800L0 800z" filter="" style="fill: rgb(255, 255, 255); stroke: none;"></path></g><!----></g><!----></g></g></g><g><g id="UF8hF8PH" transform="matrix(1,0,0,1,431.76,245.85901639344263)" style=""><defs><!----><!----><!----></defs><!----><!----><g><!----><g transform=""><!----><g id="UF8hF8PH_origin" transform="skewX(0) skewY(0)"><path id="shapepath_UF8hF8PH" d="M0,0C0,249.48,1,270.22,1,270.22L120.15,92.47L208.24,209.23C208.24,209.23,207.27,79.4,205.65,40.77C204.03,2.15,183.61,1.36,183.83,1.45C184.05,1.54,183.95,134.61,183.95,134.61L120.2,49.47L20.73,188.28C20.73,188.28,25.65,66.26,24.46,37.14C23.27,8.02,0,0,0,0Z" filter="" style="fill: rgb(0, 0, 0); stroke: rgb(32, 32, 32); stroke-width: 1.2;"></path></g><!----></g><!----></g></g><g id="cZnNcTxl" transform="matrix(1,0,0,1,481.94307679790967,245.03868852459016)"><defs><!----><!----><!----></defs><!----><!----><g><!----><g transform=""><!----><g id="cZnNcTxl_origin" transform="skewX(0) skewY(0)"><path id="shapepath_cZnNcTxl" d="M23.47,0C23.47,92.43,23.47,99.44,23.47,99.44L0.76,137.25C0.76,137.25,-0.95,61.72,0.76,35.01C2.46,8.3,23.47,0,23.47,0Z" filter="" style="fill: rgb(0, 0, 0); stroke: rgb(32, 32, 32); stroke-width: 1.04;"></path></g><!----></g><!----></g></g><g id="nY2zLKVi" transform="matrix(1,0,0,1,482.33000000000004,245.58999999999997)"><defs><!----><!----><!----></defs><!----><!----><g><!----><g transform=""><!----><g id="nY2zLKVi_origin" transform="skewX(0) skewY(0)"><path id="shapepath_nY2zLKVi" d="M1.78,279.1L0,202.89L22.29,171.48L22.07,198.09L66.85,135.94L183.09,278.79C183.09,278.79,180.77,71.48,179.96,36.79C179.15,2.09,207.24,0,207.24,0L208.01,358.16L68.67,180.7Z" filter="" style="fill: rgb(0, 0, 0); stroke: none;"></path></g><!----></g><!----></g></g></g></svg>