<svg width="380" height="215" viewBox="0 0 380 215" fill="none" xmlns="http://www.w3.org/2000/svg">
<path d="M118.458 93.2725L137.961 118.874V93.2725H141.859V125.054H137.736L118.236 99.2264V125.054H114.335V93.2725H118.458Z" fill="white"/>
<path d="M173.508 123.809C170.938 124.788 168.166 125.276 165.195 125.276C153.651 125.276 147.877 119.757 147.877 108.718C147.877 98.272 153.449 93.0482 164.591 93.0482C167.788 93.0482 170.761 93.4939 173.507 94.3841V97.9398C170.76 96.9024 167.935 96.383 165.037 96.383C156.346 96.383 152.002 100.496 152.002 108.718C152.002 117.534 156.278 121.944 164.839 121.944C166.205 121.944 167.72 121.765 169.385 121.408V110.608H173.508V123.809ZM180.083 112.785V93.2726H184.203V112.785C184.203 118.889 187.251 121.945 193.343 121.945C199.434 121.945 202.481 118.889 202.481 112.785V93.2726H206.604V112.785C206.604 121.115 202.184 125.278 193.343 125.278C184.503 125.278 180.083 121.115 180.083 112.785Z" fill="white"/>
<path d="M234.753 121.721V125.054H213.959V93.2725H218.08V121.721H234.753Z" fill="white"/>
<path d="M252.269 89.0775L268.115 125.053H263.549L259.424 115.05H248.884L250.021 111.72H258.044L252.093 97.3165L240.702 125.053H236.425L252.269 89.0775Z" fill="white"/>
<path d="M272.463 125.053V93.2704H286.059C292.122 93.2704 295.153 95.8125 295.153 100.893C295.153 105.028 292.19 108.088 286.261 110.072L297.203 125.053H291.765L281.626 110.763V108.075C287.716 107.11 290.762 104.777 290.762 101.074C290.762 98.141 289.068 96.6717 285.683 96.6717H276.587V125.054L272.463 125.053ZM312.649 93.2704V115.897C312.649 122.001 309.046 125.052 301.838 125.052V121.719C306.296 121.719 308.526 119.776 308.526 115.896V93.2704H312.649ZM320.004 123.941V120.162C323.348 121.348 326.958 121.942 330.836 121.942C336.319 121.942 339.061 119.942 339.061 115.938C339.061 112.535 337.039 110.827 332.998 110.827H328.896C322.226 110.827 318.887 107.94 318.887 102.161C318.887 96.0868 323.162 93.0464 331.707 93.0464C335.421 93.0464 338.875 93.4944 342.07 94.3824V98.1607C338.874 96.9743 335.421 96.3813 331.707 96.3813C325.912 96.3813 323.014 98.3084 323.014 102.161C323.014 105.567 324.974 107.272 328.896 107.272H332.998C339.786 107.272 343.184 110.163 343.184 115.938C343.184 122.163 339.069 125.275 330.835 125.275C326.958 125.275 323.348 124.829 320.004 123.941Z" fill="white"/>
<path d="M119.499 92.2318L139 117.835V92.2318H142.902V124.015H138.779L119.276 98.1874V124.015H115.376V92.2318H119.499Z" fill="white"/>
<path d="M174.55 122.77C171.981 123.75 169.209 124.237 166.237 124.237C154.693 124.237 148.92 118.719 148.92 107.68C148.92 97.2337 154.492 92.0095 165.636 92.0095C168.83 92.0095 171.803 92.4557 174.55 93.3454V96.9006C171.803 95.8632 168.978 95.3439 166.081 95.3439C157.39 95.3439 153.045 99.4571 153.045 107.679C153.045 116.495 157.323 120.905 165.882 120.905C167.248 120.905 168.765 120.727 170.43 120.369V109.568H174.551L174.55 122.77ZM181.125 111.746V92.2312H185.245V111.746C185.245 117.85 188.292 120.904 194.386 120.904C200.476 120.904 203.523 117.849 203.523 111.746V92.2312H207.646V111.746C207.646 120.075 203.226 124.236 194.386 124.236C185.545 124.236 181.125 120.076 181.125 111.746Z" fill="white"/>
<path d="M235.796 120.68V124.014H215.003V92.23H219.124V120.68H235.796Z" fill="white"/>
<path d="M253.313 88.0384L269.159 124.014H264.589L260.466 114.013H249.926L251.065 110.679H259.086L253.135 96.2758L241.746 124.014H237.467L253.313 88.0384Z" fill="white"/>
<path d="M273.506 124.015V92.233H287.101C293.165 92.233 296.193 94.7733 296.193 99.8561C296.193 103.989 293.232 107.051 287.303 109.034L298.246 124.015H292.805L282.667 109.725V107.035C288.758 106.069 291.805 103.738 291.805 100.033C291.805 97.1004 290.11 95.6334 286.722 95.6334H277.629V124.015H273.506ZM313.692 92.2312V114.858C313.692 120.964 310.088 124.013 302.881 124.013V120.681C307.339 120.681 309.568 118.737 309.568 114.857V92.2312H313.692ZM321.045 122.902V119.124C324.39 120.309 327.998 120.904 331.877 120.904C337.36 120.904 340.102 118.902 340.102 114.901C340.102 111.496 338.08 109.79 334.039 109.79H329.936C323.266 109.79 319.929 106.901 319.929 101.122C319.929 95.0476 324.201 92.0076 332.748 92.0076C336.461 92.0076 339.916 92.4556 343.111 93.3435V97.1223C339.914 95.9355 336.461 95.3425 332.748 95.3425C326.952 95.3425 324.055 97.2696 324.055 101.122C324.055 104.528 326.014 106.233 329.936 106.233H334.039C340.826 106.233 344.225 109.123 344.225 114.901C344.225 121.125 340.11 124.237 331.877 124.237C327.999 124.236 324.389 123.79 321.045 122.902ZM282.963 140.979L281.449 136.39H280.372L282.462 142.189C282.413 142.315 282.333 142.508 282.225 142.767C282.116 143.026 282.052 143.169 282.036 143.197C281.98 143.282 281.91 143.353 281.827 143.411C281.744 143.469 281.615 143.497 281.441 143.497C281.384 143.497 281.319 143.491 281.245 143.482C281.171 143.471 281.052 143.443 280.887 143.397V144.26C280.992 144.289 281.082 144.307 281.153 144.318C281.225 144.328 281.329 144.334 281.462 144.334C282.011 144.334 282.397 144.176 282.621 143.86C282.846 143.545 283.232 142.669 283.781 141.232C284.013 140.622 284.301 139.832 284.646 138.864C285.106 137.576 285.404 136.752 285.537 136.39H284.487L282.963 140.979ZM277.342 141.366C276.657 141.366 276.189 141.056 275.939 140.435C275.805 140.106 275.739 139.676 275.739 139.147C275.739 138.414 275.901 137.888 276.228 137.568C276.555 137.25 276.935 137.09 277.369 137.09C277.866 137.09 278.242 137.285 278.499 137.674C278.755 138.063 278.883 138.554 278.883 139.147C278.883 139.813 278.756 140.35 278.499 140.756C278.242 141.163 277.857 141.366 277.342 141.366ZM274.867 142.024H275.743V141.304C275.943 141.574 276.132 141.77 276.309 141.893C276.606 142.1 276.969 142.203 277.4 142.203C278.17 142.203 278.772 141.909 279.207 141.319C279.641 140.729 279.857 139.99 279.857 139.099C279.857 138.159 279.638 137.448 279.198 136.966C278.758 136.484 278.186 136.243 277.48 136.243C277.141 136.243 276.827 136.314 276.537 136.456C276.247 136.598 275.999 136.804 275.79 137.075V134.271H274.867V142.024Z" fill="white"/>
<path d="M71.9526 113.835L82.7395 113.845L87.7915 125.515L96.0041 125.667L71.9311 74.4602L48.9165 125.513L57.4995 125.355L62.114 113.845H71.9305L71.9526 113.835ZM72.3028 107.044L71.93 107.032H65.1417L71.9919 90.8284L79.7649 107.044H72.3028ZM40.6769 129.451L34.7948 80.8193L72.0174 67.7564L109.478 80.5881L103.599 129.218L72.057 146.65L40.6769 129.451Z" fill="white"/>
<path d="M312.215 137.952C312.215 140.451 310.255 142.292 307.849 142.292C305.444 142.292 303.484 140.451 303.484 137.952C303.484 135.436 305.444 133.612 307.849 133.612C310.255 133.612 312.215 135.436 312.215 137.952ZM310.304 137.952C310.304 136.391 309.168 135.322 307.849 135.322C306.531 135.322 305.395 136.391 305.395 137.952C305.395 139.498 306.531 140.582 307.849 140.582C309.168 140.582 310.304 139.496 310.304 137.952ZM321.634 137.952C321.634 140.451 319.674 142.292 317.268 142.292C314.862 142.292 312.902 140.451 312.902 137.952C312.902 135.438 314.862 133.612 317.268 133.612C319.674 133.612 321.634 135.436 321.634 137.952ZM319.723 137.952C319.723 136.391 318.587 135.322 317.268 135.322C315.949 135.322 314.813 136.391 314.813 137.952C314.813 139.498 315.949 140.582 317.268 140.582C318.587 140.582 319.723 139.496 319.723 137.952ZM330.66 133.874V141.666C330.66 144.871 328.765 146.18 326.524 146.18C324.414 146.18 323.145 144.773 322.666 143.623L324.33 142.932C324.626 143.638 325.352 144.472 326.522 144.472C327.956 144.472 328.845 143.589 328.845 141.928V141.304H328.778C328.351 141.83 327.526 142.29 326.486 142.29C324.31 142.29 322.317 140.4 322.317 137.968C322.317 135.518 324.31 133.612 326.486 133.612C327.524 133.612 328.349 134.072 328.778 134.583H328.845V133.876H330.66V133.874ZM328.98 137.968C328.98 136.44 327.958 135.322 326.657 135.322C325.339 135.322 324.234 136.44 324.234 137.968C324.234 139.48 325.339 140.582 326.657 140.582C327.958 140.582 328.98 139.48 328.98 137.968Z" fill="white"/>
<path d="M333.653 129.306V142.026H331.79V129.306H333.653Z" fill="white"/>
<path d="M340.917 139.38L342.401 140.366C341.922 141.072 340.768 142.289 338.775 142.289C336.302 142.289 334.456 140.384 334.456 137.949C334.456 135.368 336.318 133.609 338.561 133.609C340.819 133.609 341.924 135.402 342.285 136.37L342.483 136.863L336.665 139.266C337.111 140.137 337.803 140.581 338.775 140.581C339.748 140.581 340.423 140.104 340.917 139.38ZM336.351 137.818L340.24 136.208C340.027 135.666 339.383 135.288 338.625 135.288C337.654 135.288 336.302 136.143 336.351 137.818ZM296.428 136.822V134.981H302.65C302.711 135.302 302.743 135.682 302.743 136.092C302.743 137.474 302.364 139.182 301.143 140.399C299.956 141.632 298.439 142.289 296.43 142.289C292.706 142.289 289.574 139.264 289.574 135.55C289.574 131.837 292.706 128.811 296.43 128.811C298.49 128.811 299.958 129.618 301.061 130.668L299.758 131.968C298.967 131.228 297.896 130.653 296.428 130.653C293.709 130.653 291.582 132.838 291.582 135.55C291.582 138.262 293.709 140.448 296.428 140.448C298.192 140.448 299.197 139.742 299.84 139.1C300.362 138.579 300.706 137.836 300.841 136.82L296.428 136.822Z" fill="white"/>
</svg>
