<svg width="380" height="215" viewBox="0 0 380 215" fill="none" xmlns="http://www.w3.org/2000/svg">
<g clip-path="url(#clip0_623_1747)">
<path d="M134.61 86.4772C134.61 89.564 134.946 92.0667 135.535 93.9021C136.209 95.7375 137.05 97.7397 138.229 99.9088C138.649 100.576 138.818 101.244 138.818 101.828C138.818 102.662 138.313 103.496 137.219 104.33L131.916 107.834C131.159 108.335 130.402 108.585 129.728 108.585C128.887 108.585 128.045 108.168 127.203 107.417C126.025 106.166 125.015 104.831 124.174 103.496C123.332 102.078 122.49 100.493 121.565 98.574C115 106.249 106.752 110.087 96.8213 110.087C89.7518 110.087 84.113 108.085 79.9891 104.08C75.8653 100.076 73.7612 94.7364 73.7612 88.0623C73.7612 80.9711 76.2861 75.2147 81.4199 70.8765C86.5537 66.5384 93.3707 64.3693 102.039 64.3693C104.901 64.3693 107.846 64.6196 110.96 65.0367C114.074 65.4538 117.272 66.1213 120.639 66.8721V60.782C120.639 54.4416 119.292 50.02 116.683 47.4338C113.99 44.8476 109.445 43.5962 102.965 43.5962C100.019 43.5962 96.9897 43.9299 93.8757 44.6808C90.7618 45.4316 87.732 46.3493 84.7863 47.5172C83.4397 48.1012 82.4298 48.4349 81.8407 48.6018C81.2516 48.7686 80.8308 48.8521 80.4941 48.8521C79.3159 48.8521 78.7267 48.0178 78.7267 46.2659V42.178C78.7267 40.8432 78.8951 39.842 79.3159 39.2581C79.7367 38.6741 80.4941 38.0901 81.6724 37.5061C84.618 36.0044 88.1528 34.7531 92.2767 33.7519C96.4005 32.6674 100.777 32.1669 105.406 32.1669C115.421 32.1669 122.743 34.4194 127.456 38.9244C132.085 43.4294 134.441 50.2703 134.441 59.4472V86.4772H134.61ZM100.44 99.158C103.218 99.158 106.079 98.6574 109.109 97.6563C112.139 96.6552 114.832 94.8198 117.104 92.317C118.451 90.7319 119.461 88.98 119.966 86.9778C120.471 84.9755 120.807 82.5562 120.807 79.7197V76.2158C118.367 75.6318 115.758 75.1313 113.064 74.7976C110.371 74.4639 107.762 74.297 105.153 74.297C99.5145 74.297 95.3906 75.3815 92.6133 77.634C89.836 79.8865 88.4894 83.0567 88.4894 87.228C88.4894 91.1491 89.4993 94.069 91.6034 96.0712C93.6232 98.1568 96.5689 99.158 100.44 99.158ZM168.022 108.168C166.507 108.168 165.497 107.918 164.823 107.334C164.15 106.833 163.561 105.665 163.056 104.08L143.278 39.5918C142.773 37.9232 142.521 36.8387 142.521 36.2547C142.521 34.9199 143.194 34.1691 144.541 34.1691H152.788C154.387 34.1691 155.482 34.4194 156.071 35.0033C156.744 35.5039 157.249 36.6719 157.754 38.257L171.893 93.485L185.022 38.257C185.443 36.5884 185.948 35.5039 186.621 35.0033C187.294 34.5028 188.473 34.1691 189.988 34.1691H196.72C198.32 34.1691 199.414 34.4194 200.087 35.0033C200.76 35.5039 201.349 36.6719 201.686 38.257L214.983 94.1524L229.543 38.257C230.048 36.5884 230.637 35.5039 231.226 35.0033C231.9 34.5028 232.994 34.1691 234.509 34.1691H242.336C243.682 34.1691 244.44 34.8365 244.44 36.2547C244.44 36.6719 244.356 37.089 244.271 37.5895C244.187 38.0901 244.019 38.7575 243.682 39.6752L223.4 104.164C222.895 105.832 222.305 106.917 221.632 107.417C220.959 107.918 219.865 108.251 218.434 108.251H211.196C209.597 108.251 208.503 108.001 207.83 107.417C207.156 106.833 206.567 105.749 206.231 104.08L193.186 50.2703L180.225 103.997C179.804 105.665 179.299 106.75 178.626 107.334C177.953 107.918 176.774 108.168 175.259 108.168H168.022ZM276.168 110.42C271.792 110.42 267.416 109.92 263.208 108.919C259 107.918 255.717 106.833 253.529 105.582C252.183 104.831 251.257 103.997 250.92 103.246C250.584 102.495 250.415 101.661 250.415 100.91V96.6552C250.415 94.9032 251.088 94.069 252.351 94.069C252.856 94.069 253.361 94.1524 253.866 94.3193C254.371 94.4861 255.128 94.8198 255.97 95.1535C258.831 96.4049 261.945 97.406 265.228 98.0734C268.594 98.7408 271.876 99.0745 275.243 99.0745C280.545 99.0745 284.669 98.1568 287.53 96.3215C290.392 94.4861 291.907 91.8165 291.907 88.396C291.907 86.0601 291.149 84.1413 289.634 82.5562C288.119 80.9711 285.258 79.5528 281.134 78.218L268.931 74.4639C262.787 72.5451 258.242 69.7086 255.465 65.9544C252.688 62.2837 251.257 58.1958 251.257 53.8576C251.257 50.3537 252.014 47.267 253.529 44.5973C255.044 41.9277 257.064 39.5918 259.589 37.7564C262.114 35.8376 264.975 34.4194 268.342 33.4182C271.708 32.4171 275.243 32 278.946 32C280.797 32 282.733 32.0834 284.585 32.3337C286.52 32.584 288.288 32.9177 290.055 33.2514C291.738 33.6685 293.337 34.0857 294.852 34.5862C296.367 35.0868 297.545 35.5873 298.387 36.0879C299.565 36.7553 300.407 37.4227 300.912 38.1735C301.417 38.8409 301.669 39.7586 301.669 40.9266V44.8476C301.669 46.5996 300.996 47.5172 299.734 47.5172C299.06 47.5172 297.966 47.1835 296.535 46.5161C291.738 44.3471 286.352 43.2625 280.377 43.2625C275.579 43.2625 271.792 44.0133 269.183 45.5984C266.574 47.1835 265.228 49.6029 265.228 53.0234C265.228 55.3593 266.069 57.3615 267.752 58.9466C269.436 60.5317 272.55 62.1168 277.01 63.535L288.961 67.2892C295.021 69.208 299.397 71.8776 302.006 75.2981C304.615 78.7186 305.877 82.6396 305.877 86.9778C305.877 90.5651 305.12 93.8187 303.689 96.6552C302.174 99.4917 300.154 101.994 297.545 103.997C294.936 106.082 291.822 107.584 288.203 108.669C284.416 109.836 280.461 110.42 276.168 110.42Z" fill="white"/>
<path fill-rule="evenodd" clip-rule="evenodd" d="M292.075 150.966C264.386 171.238 224.157 182 189.567 182C141.09 182 97.4105 164.23 64.4194 134.698C61.8104 132.362 64.1669 129.191 67.2809 131.027C102.965 151.55 146.981 163.98 192.512 163.98C223.231 163.98 256.98 157.64 288.035 144.625C292.664 142.54 296.62 147.629 292.075 150.966Z" fill="#C2CFF7"/>
<path fill-rule="evenodd" clip-rule="evenodd" d="M303.605 137.951C300.07 133.446 280.208 135.782 271.203 136.867C268.51 137.2 268.089 134.864 270.53 133.112C286.352 122.1 312.358 125.27 315.388 128.941C318.417 132.695 314.546 158.474 299.734 170.821C297.461 172.74 295.273 171.739 296.283 169.236C299.649 160.977 307.14 142.373 303.605 137.951Z" fill="#C2CFF7"/>
</g>
<defs>
<clipPath id="clip0_623_1747">
<rect width="258.228" height="150" fill="white" transform="translate(61 32)"/>
</clipPath>
</defs>
</svg>
