<svg width="380" height="215" viewBox="0 0 380 215" fill="none" xmlns="http://www.w3.org/2000/svg">
<g clip-path="url(#clip0_623_1741)">
<path d="M163.946 32.1518H210.858L162.158 176.749C161.909 177.488 161.547 178.183 161.084 178.81C160.623 179.437 160.066 179.987 159.434 180.441C158.801 180.896 158.104 181.249 157.363 181.487C156.621 181.725 155.848 181.848 155.072 181.848H118.563C117.378 181.848 116.208 181.566 115.154 181.023C114.098 180.48 113.187 179.694 112.496 178.728C111.805 177.763 111.352 176.646 111.176 175.471C111 174.296 111.107 173.095 111.486 171.97L156.857 37.2469C157.105 36.5086 157.468 35.8139 157.931 35.1867C158.393 34.5594 158.952 34.0096 159.582 33.5551C160.214 33.1006 160.912 32.7473 161.653 32.5091C162.394 32.2709 163.167 32.1478 163.944 32.1478V32.1498L163.946 32.1518Z" fill="url(#paint0_linear_623_1741)"/>
<path d="M250.424 181.848H208.301C207.831 181.848 207.362 181.805 206.898 181.715C206.436 181.628 205.982 181.497 205.544 181.324C205.106 181.152 204.686 180.937 204.288 180.687C203.89 180.435 203.516 180.147 203.172 179.826L155.371 135.115C154.865 134.642 154.513 134.028 154.36 133.352C154.207 132.676 154.261 131.97 154.514 131.325C154.768 130.681 155.209 130.128 155.781 129.738C156.354 129.349 157.03 129.14 157.721 129.14H232.11L250.42 181.85L250.424 181.848Z" fill="#0078D4"/>
<path d="M211.026 32.1517L178.187 129.15L231.843 129.138L250.248 181.848H208.283C207.849 181.844 207.415 181.805 206.987 181.727C206.559 181.65 206.139 181.537 205.73 181.386C204.912 181.087 204.15 180.65 203.479 180.094L171.211 149.932L162.178 176.612C161.944 177.279 161.623 177.912 161.223 178.494C160.421 179.664 159.323 180.6 158.042 181.207C157.404 181.509 156.729 181.725 156.035 181.848H118.584C117.387 181.852 116.206 181.566 115.142 181.015C114.078 180.463 113.161 179.663 112.471 178.683C111.78 177.702 111.336 176.569 111.174 175.38C111.014 174.19 111.141 172.979 111.545 171.848L156.843 37.3481C157.079 36.5958 157.434 35.8872 157.894 35.2481C158.351 34.609 158.91 34.0453 159.544 33.5808C160.179 33.1163 160.884 32.7551 161.631 32.5129C162.378 32.2708 163.161 32.1477 163.948 32.1517H211.028H211.026Z" fill="#C2CFF7"/>
<path d="M269.236 171.97C269.614 173.096 269.721 174.296 269.547 175.471C269.371 176.646 268.919 177.762 268.229 178.728C267.537 179.693 266.627 180.479 265.572 181.022C264.517 181.565 263.348 181.848 262.162 181.848H209.878C211.063 181.848 212.233 181.564 213.289 181.023C214.343 180.481 215.255 179.693 215.947 178.728C216.638 177.763 217.09 176.646 217.267 175.471C217.443 174.296 217.336 173.095 216.957 171.97L171.584 37.2429C171.084 35.7588 170.133 34.469 168.863 33.555C168.233 33.1005 167.535 32.7492 166.796 32.511C166.057 32.2728 165.284 32.1517 164.509 32.1517H216.791C217.568 32.1517 218.339 32.2728 219.08 32.511C219.819 32.7492 220.517 33.1025 221.149 33.555C221.779 34.0096 222.336 34.5594 222.798 35.1846C223.26 35.8098 223.62 36.5045 223.87 37.2429L269.243 171.97H269.236Z" fill="white"/>
</g>
<defs>
<linearGradient id="paint0_linear_623_1741" x1="181.067" y1="43.2472" x2="132.179" y2="187.442" gradientUnits="userSpaceOnUse">
<stop stop-color="#114A8B"/>
<stop offset="1" stop-color="#0669BC"/>
</linearGradient>
<clipPath id="clip0_623_1741">
<rect width="158.721" height="150" fill="white" transform="translate(111 32)"/>
</clipPath>
</defs>
</svg>
