<svg width="380" height="215" viewBox="0 0 380 215" fill="none" xmlns="http://www.w3.org/2000/svg">
<path d="M190.028 166.962L220.597 158.202L220.821 155.597L224.325 115.003L224.689 110.863L227.381 79.6539H152.67L154.619 95.0733H190.026H211.039L209.682 110.863H190.026V126.282H208.389L206.658 146.28L190.026 150.921V150.96L174.574 146.85L173.477 134.89H165.137H158.007L160.166 158.436L190.028 167.031V166.962ZM248.727 56.4903L237.87 178.353L189.063 191.908L140.392 178.372L129.545 56.4903H248.727ZM154.133 110.608L155.819 125.981L190.026 126.349V110.935L154.133 110.608Z" fill="white"/>
<path d="M158.007 22.6364H177.573V30.3573H166.189V38.0782H177.573V45.8009H158.007V22.6364Z" fill="white"/>
<path d="M181.132 22.6364H200.699V29.2553H189.314V30.5784H200.699V45.8009H181.132V38.8503H192.517V37.5272H181.132V22.6364Z" fill="white"/>
<path d="M202.477 22.6364H222.044V29.2553H210.659V30.5784H222.044V45.8009H202.477V38.8503H213.862V37.5272H202.477V22.6364Z" fill="white"/>
</svg>
