<svg width="380" height="215" viewBox="0 0 380 215" fill="none" xmlns="http://www.w3.org/2000/svg">
<path d="M129.969 129.53H124.373V86.112H149.787V91.4463H129.97V105.701H147.845V110.912H129.97V129.53L129.969 129.53ZM160.309 92.3606C158.975 93.6967 156.88 93.9066 155.306 92.8619C153.733 91.8172 153.118 89.809 153.839 88.0661C154.561 86.3232 156.416 85.3311 158.27 85.697C160.125 86.0629 161.462 87.6849 161.463 89.5702C161.481 90.6203 161.062 91.6308 160.304 92.3606H160.309H160.309ZM160.309 129.53H154.713V99.8173H160.309V129.53V129.53ZM172.588 129.53H166.992V99.8173H172.341V104.668H172.584C173.23 102.959 174.471 101.538 176.08 100.665C177.617 99.6815 179.394 99.1359 181.22 99.0878C182.653 99.0471 184.079 99.2953 185.414 99.8173L183.286 105.028C182.326 104.71 181.318 104.565 180.308 104.602C178.256 104.612 176.303 105.482 174.926 106.999C173.364 108.597 172.584 110.69 172.584 113.276L172.588 129.53L172.588 129.53ZM200.748 130.478C196.248 130.478 192.59 128.982 189.775 125.992C186.96 123.001 185.55 119.228 185.547 114.674C185.464 110.574 186.929 106.592 189.651 103.518C192.258 100.458 196.115 98.7401 200.14 98.8459C204.558 98.8459 208.095 100.281 210.752 103.152C213.409 106.023 214.736 109.863 214.732 114.674L214.67 115.706H191.133C191.294 118.697 192.298 121.066 194.144 122.812C195.871 124.502 198.2 125.44 200.618 125.418C204.631 125.418 207.346 123.72 208.765 120.325L213.753 122.386C212.742 124.735 211.075 126.745 208.95 128.175C206.718 129.71 203.983 130.477 200.747 130.477L200.748 130.478ZM208.776 111.054C208.656 109.355 207.875 107.738 206.434 106.203C204.993 104.668 202.851 103.917 200.007 103.948C198.035 103.914 196.118 104.605 194.625 105.891C193.06 107.258 191.965 109.081 191.494 111.102L208.776 111.054L208.776 111.054ZM234.95 130.478C232.833 130.519 230.739 130.031 228.86 129.056C227.21 128.227 225.814 126.97 224.818 125.418H224.575V129.53H219.222V86.112H224.818V99.8173L224.575 103.939H224.818C225.814 102.387 227.21 101.13 228.86 100.301C230.736 99.3148 232.83 98.8147 234.95 98.8462C238.801 98.8462 242.126 100.362 244.926 103.394C247.725 106.426 249.123 110.186 249.12 114.674C249.117 119.162 247.722 122.922 244.926 125.953C242.129 128.985 238.804 130.493 234.95 130.478L234.95 130.478ZM234.038 125.385C236.587 125.405 239.022 124.334 240.726 122.443C242.591 120.482 243.524 117.884 243.524 114.65C243.524 111.416 242.591 108.818 240.726 106.857C239.003 104.989 236.575 103.923 234.03 103.918C231.484 103.912 229.052 104.968 227.321 106.828C225.478 108.768 224.556 111.375 224.556 114.65C224.556 117.925 225.487 120.54 227.349 122.495C229.064 124.379 231.506 125.439 234.057 125.408L234.038 125.385L234.038 125.385ZM263.366 130.478C260.199 130.478 257.555 129.568 255.433 127.749C253.311 125.93 252.247 123.525 252.241 120.534C252.241 117.3 253.498 114.764 256.013 112.926C258.527 111.087 261.628 110.168 265.314 110.168C268.598 110.168 271.29 110.775 273.389 111.988V111.14C273.469 109.142 272.642 107.216 271.138 105.895C269.606 104.579 267.634 103.885 265.613 103.948C264.066 103.929 262.543 104.326 261.205 105.099C259.951 105.792 258.99 106.912 258.497 108.255L253.391 106.071C254.081 104.286 255.44 102.631 257.473 101.106C259.506 99.5804 262.176 98.8224 265.501 98.8319C269.301 98.8319 272.468 99.9373 275.001 102.148C277.535 104.359 278.792 107.492 278.773 111.547V129.53H273.405V125.409H273.163C270.93 128.788 267.667 130.471 263.373 130.471L263.366 130.478ZM264.278 125.385C266.63 125.377 268.887 124.462 270.577 122.831C272.378 121.317 273.421 119.089 273.427 116.739C271.844 115.444 269.469 114.797 266.302 114.797C263.585 114.797 261.537 115.383 260.16 116.554C258.874 117.54 258.113 119.059 258.093 120.676C258.067 122.083 258.79 123.399 259.994 124.134C261.259 124.983 262.754 125.427 264.279 125.408V125.385L264.278 125.385ZM295.226 130.478C291.901 130.478 289.155 129.669 286.989 128.052C284.882 126.5 283.239 124.403 282.239 121.988L287.227 119.927C288.81 123.648 291.502 125.508 295.302 125.508C296.812 125.57 298.304 125.168 299.578 124.357C300.628 123.707 301.261 122.557 301.25 121.325C301.25 119.386 299.891 118.072 297.168 117.383L291.149 115.929C289.168 115.406 287.323 114.466 285.738 113.172C284.051 111.86 283.1 109.818 283.183 107.686C283.183 105.059 284.348 102.927 286.679 101.29C289.117 99.6214 292.021 98.7625 294.978 98.8365C297.446 98.7971 299.88 99.4171 302.027 100.632C304.054 101.78 305.621 103.59 306.464 105.758L301.604 107.738C300.512 105.111 298.241 103.797 294.792 103.797C293.325 103.748 291.874 104.105 290.598 104.829C289.553 105.369 288.897 106.446 288.897 107.62C288.897 109.319 290.215 110.472 292.849 111.078L298.745 112.475C301.541 113.107 303.609 114.212 304.948 115.792C306.246 117.267 306.959 119.164 306.953 121.126C306.979 123.742 305.762 126.216 303.671 127.796C301.482 129.584 298.665 130.478 295.22 130.478L295.226 130.478ZM325.324 130.478C320.824 130.478 317.166 128.982 314.351 125.992C311.535 123.001 310.126 119.22 310.123 114.65C310.04 110.55 311.505 106.568 314.227 103.493C316.844 100.441 320.705 98.7329 324.73 98.8461C329.163 98.8461 332.701 100.282 335.342 103.152C337.983 106.023 339.31 109.864 339.323 114.674L339.261 115.706H315.704C315.865 118.697 316.869 121.066 318.715 122.813C320.447 124.503 322.782 125.437 325.204 125.409C329.217 125.409 331.932 123.71 333.351 120.316L338.339 122.377C337.328 124.726 335.661 126.736 333.536 128.166C331.304 129.707 328.566 130.477 325.323 130.477L325.324 130.478ZM333.352 111.054C333.231 109.355 332.451 107.738 331.01 106.203C329.569 104.668 327.43 103.917 324.592 103.948C322.62 103.914 320.704 104.606 319.21 105.891C317.646 107.258 316.551 109.081 316.08 111.102L333.352 111.054V111.054Z" fill="white"/>
<path d="M40.7106 132.863L51.0002 66.7107C51.126 65.8994 51.754 65.2599 52.5597 65.1223C53.3654 64.9848 54.1683 65.3805 54.5536 66.1045L65.1949 86.0457L69.4365 77.9317C69.765 77.3043 70.4125 76.9115 71.1182 76.9115C71.8238 76.9115 72.4713 77.3043 72.7999 77.9317L101.517 132.863H40.7106V132.863Z" fill="#FFA000"/>
<path d="M76.2588 107.094L65.1901 86.0361L40.7107 132.863L76.2588 107.094Z" fill="#F57C00"/>
<path d="M101.517 132.863L93.6364 83.8643C93.5173 83.1607 93.0175 82.5827 92.3407 82.3648C91.6638 82.1469 90.923 82.3283 90.4203 82.8327L40.7108 132.862L68.2163 148.36C69.9436 149.329 72.0472 149.329 73.7744 148.36L101.517 132.862V132.863Z" fill="#FFCA28"/>
<path d="M93.6361 83.8645C93.5171 83.1608 93.0172 82.5828 92.3404 82.3649C91.6635 82.147 90.9227 82.3284 90.42 82.8328L80.5539 92.7707L72.7956 77.9313C72.4671 77.304 71.8195 76.9111 71.1139 76.9111C70.4082 76.9111 69.7607 77.304 69.4322 77.9313L65.1906 86.0453L54.5488 66.1045C54.1629 65.3802 53.359 64.9852 52.5524 65.1238C51.7457 65.2623 51.1198 65.9035 50.9954 66.7154L40.7105 132.863H40.6774L40.7105 132.901L40.9813 133.035L90.4057 83.3203C90.9081 82.8131 91.6507 82.6308 92.3294 82.848C93.0081 83.0653 93.5088 83.6456 93.6266 84.3512L101.441 132.911L101.517 132.863L93.6362 83.8643L93.6361 83.8645ZM40.8008 132.772L51.0002 67.1832C51.1244 66.3713 51.7518 65.7301 52.5578 65.5916C53.3637 65.453 54.1677 65.8479 54.5542 66.5723L65.1948 86.5134L69.4364 78.3995C69.7649 77.7721 70.4125 77.3793 71.1181 77.3793C71.8238 77.3793 72.4713 77.7721 72.7999 78.3995L80.4007 92.9234L40.8003 132.772H40.8008Z" fill="white" fill-opacity="0.2"/>
<path opacity="0.2" d="M73.7742 147.893C72.047 148.862 69.9434 148.862 68.2162 147.893L40.7771 132.439L40.7106 132.863L68.2161 148.356C69.9434 149.325 72.0469 149.325 73.7742 148.356L101.517 132.863L101.446 132.424L73.7742 147.893V147.893Z" fill="#A52714"/>
<path d="M93.5574 83.8745C93.4388 83.1711 92.9406 82.5929 92.2662 82.3763C91.5917 82.1597 90.8535 82.3397 90.3525 82.8441L80.5203 92.7769L72.7897 77.9444C72.4623 77.3173 71.817 76.9246 71.114 76.9246C70.4109 76.9246 69.7656 77.3173 69.4382 77.9444L65.2108 86.0549L54.6068 66.1223C54.2222 65.3984 53.4212 65.0034 52.6181 65.142C51.8149 65.2806 51.1897 65.9213 51.0659 66.733L40.8169 132.852L68.2263 148.338C69.9475 149.306 72.0437 149.306 73.765 148.338L101.411 132.852L93.5574 83.8744V83.8745Z" fill="white"/>
</svg>
