<svg width="380" height="215" viewBox="0 0 380 215" fill="none" xmlns="http://www.w3.org/2000/svg">
<g clip-path="url(#clip0_623_1718)">
<path d="M84.5948 97.5009H86.1666L90.6463 93.0815L90.8664 91.2053C88.3001 88.9707 85.1988 87.4184 81.8554 86.6951C78.5119 85.9718 75.0368 86.1012 71.7582 87.0712C68.4795 88.0413 65.5057 89.8198 63.1176 92.2389C60.7294 94.658 59.0058 97.6378 58.1096 100.897C58.6087 100.695 59.1615 100.662 59.6814 100.804L68.6408 99.3461C68.6408 99.3461 69.0967 98.6018 69.3324 98.6484C71.2521 96.5684 73.9051 95.291 76.7483 95.0777C79.5915 94.8644 82.4098 95.7313 84.6263 97.5009H84.5948Z" fill="#C2CFF7"/>
<path d="M97.0279 100.897C95.9982 97.1561 93.8841 93.7933 90.945 91.2208L84.6577 97.4234C85.968 98.4796 87.0181 99.8156 87.7288 101.331C88.4394 102.846 88.7921 104.5 88.7601 106.169V107.27C89.495 107.27 90.2226 107.413 90.9015 107.69C91.5804 107.968 92.1973 108.374 92.7169 108.887C93.2365 109.399 93.6487 110.008 93.9299 110.678C94.2111 111.348 94.3558 112.065 94.3558 112.79C94.3558 113.515 94.2111 114.233 93.9299 114.903C93.6487 115.573 93.2365 116.181 92.7169 116.694C92.1973 117.206 91.5804 117.613 90.9015 117.89C90.2226 118.168 89.495 118.311 88.7601 118.311H77.5688L76.4528 119.427V126.048L77.5688 127.149H88.7601C91.8853 127.173 94.9353 126.204 97.4589 124.386C99.9826 122.567 101.846 119.995 102.773 117.051C103.7 114.107 103.642 110.946 102.608 108.037C101.573 105.128 99.6166 102.624 97.0279 100.897Z" fill="white"/>
<path d="M66.3617 127.087H77.5531V118.249H66.3617C65.5643 118.248 64.7764 118.079 64.0511 117.752L62.4793 118.233L57.9682 122.652L57.5752 124.203C60.1049 126.088 63.1918 127.101 66.3617 127.087Z" fill="#C2CFF7"/>
<path d="M66.3617 98.4159C63.3294 98.4337 60.3784 99.3855 57.921 101.138C55.4636 102.891 53.6224 105.357 52.6547 108.192C51.6869 111.027 51.6409 114.09 52.5231 116.952C53.4052 119.814 55.1715 122.333 57.5752 124.157L64.0668 117.752C63.2419 117.385 62.5197 116.825 61.9622 116.121C61.4046 115.418 61.0285 114.591 60.866 113.713C60.7034 112.834 60.7594 111.93 61.029 111.078C61.2986 110.225 61.7739 109.45 62.414 108.818C63.0541 108.187 63.8399 107.718 64.7041 107.452C65.5682 107.186 66.4849 107.131 67.3754 107.291C68.2659 107.451 69.1037 107.823 69.8169 108.373C70.5301 108.923 71.0974 109.635 71.4701 110.449L77.9617 104.045C76.5992 102.287 74.8431 100.865 72.8307 99.8885C70.8184 98.912 68.6043 98.408 66.3617 98.4159Z" fill="white"/>
<path d="M133.227 120.916C131.3 120.94 129.388 120.58 127.606 119.858C125.823 119.136 124.207 118.066 122.853 116.713C121.457 115.418 120.349 113.85 119.599 112.11C118.85 110.369 118.475 108.494 118.499 106.603C118.476 104.713 118.851 102.838 119.601 101.097C120.35 99.3571 121.458 97.7892 122.853 96.493C124.2 95.126 125.814 94.0421 127.596 93.3065C129.379 92.571 131.295 92.1991 133.227 92.2133C135.068 92.189 136.896 92.5261 138.604 93.205C140.312 93.8838 141.867 94.8908 143.177 96.1674L140.379 98.9741C138.463 97.1473 135.891 96.1437 133.227 96.1829C131.845 96.1662 130.475 96.4332 129.203 96.9671C127.931 97.501 126.786 98.2901 125.84 99.2842C124.856 100.246 124.081 101.395 123.559 102.661C123.038 103.927 122.782 105.284 122.806 106.65C122.794 108 123.057 109.339 123.578 110.588C124.099 111.837 124.868 112.971 125.84 113.922C127.786 115.836 130.413 116.925 133.161 116.956C135.908 116.988 138.56 115.961 140.552 114.093C141.785 112.761 142.541 111.067 142.705 109.27H133.274V105.301H146.619C146.75 106.1 146.803 106.91 146.776 107.72C146.859 109.395 146.597 111.07 146.005 112.642C145.414 114.215 144.505 115.652 143.334 116.869C142.032 118.206 140.459 119.257 138.718 119.955C136.976 120.652 135.105 120.979 133.227 120.916ZM164.255 118.28C162.464 119.973 160.079 120.919 157.598 120.919C155.117 120.919 152.732 119.973 150.942 118.28C150.05 117.427 149.348 116.401 148.88 115.266C148.412 114.132 148.188 112.914 148.222 111.689C148.189 110.465 148.413 109.247 148.881 108.113C149.349 106.979 150.051 105.952 150.942 105.099C152.734 103.409 155.119 102.466 157.598 102.466C160.078 102.466 162.462 103.409 164.255 105.099C165.146 105.952 165.847 106.979 166.315 108.113C166.783 109.247 167.008 110.465 166.974 111.689C167.006 112.915 166.78 114.134 166.309 115.268C165.838 116.403 165.133 117.428 164.239 118.28H164.255ZM153.881 115.69C154.357 116.192 154.933 116.592 155.572 116.865C156.212 117.139 156.901 117.28 157.598 117.28C158.295 117.28 158.985 117.139 159.624 116.865C160.264 116.592 160.839 116.192 161.316 115.69C161.835 115.16 162.242 114.534 162.512 113.847C162.782 113.159 162.909 112.426 162.887 111.689C162.911 110.95 162.783 110.214 162.513 109.524C162.243 108.835 161.836 108.205 161.316 107.673C160.833 107.176 160.253 106.781 159.612 106.511C158.97 106.241 158.28 106.102 157.583 106.102C156.885 106.102 156.195 106.241 155.553 106.511C154.912 106.781 154.332 107.176 153.849 107.673C153.329 108.205 152.922 108.835 152.652 109.524C152.382 110.214 152.254 110.95 152.278 111.689C152.258 112.427 152.388 113.161 152.661 113.848C152.933 114.535 153.343 115.162 153.865 115.69H153.881ZM184.72 118.28C182.929 119.973 180.544 120.919 178.063 120.919C175.583 120.919 173.198 119.973 171.407 118.28C170.515 117.427 169.813 116.401 169.345 115.266C168.877 114.132 168.653 112.914 168.687 111.689C168.654 110.465 168.878 109.247 169.346 108.113C169.815 106.979 170.516 105.952 171.407 105.099C173.198 103.406 175.583 102.46 178.063 102.46C180.544 102.46 182.929 103.406 184.72 105.099C185.611 105.952 186.312 106.979 186.78 108.113C187.248 109.247 187.473 110.465 187.439 111.689C187.474 112.914 187.25 114.132 186.782 115.266C186.313 116.401 185.611 117.427 184.72 118.28ZM174.346 115.69C174.822 116.192 175.398 116.592 176.037 116.865C176.677 117.139 177.366 117.28 178.063 117.28C178.76 117.28 179.45 117.139 180.089 116.865C180.729 116.592 181.304 116.192 181.781 115.69C182.3 115.16 182.707 114.534 182.977 113.847C183.247 113.159 183.374 112.426 183.353 111.689C183.376 110.95 183.249 110.214 182.979 109.524C182.709 108.835 182.301 108.205 181.781 107.673C181.298 107.176 180.718 106.781 180.077 106.511C179.435 106.241 178.745 106.102 178.048 106.102C177.35 106.102 176.66 106.241 176.018 106.511C175.377 106.781 174.797 107.176 174.315 107.673C173.794 108.205 173.387 108.835 173.117 109.524C172.847 110.214 172.72 110.95 172.743 111.689C172.723 112.427 172.853 113.161 173.126 113.848C173.398 114.535 173.808 115.162 174.33 115.69H174.346ZM198.175 129.196C196.291 129.255 194.443 128.675 192.941 127.552C191.606 126.563 190.556 125.249 189.891 123.738L193.475 122.265C193.865 123.168 194.475 123.961 195.251 124.575C196.082 125.236 197.124 125.582 198.191 125.552C198.867 125.593 199.544 125.489 200.176 125.248C200.808 125.007 201.38 124.635 201.853 124.157C202.8 123.03 203.267 121.585 203.157 120.125V118.791H203.016C202.417 119.493 201.661 120.048 200.807 120.411C199.953 120.774 199.025 120.937 198.096 120.885C196.916 120.888 195.748 120.65 194.666 120.186C193.584 119.721 192.611 119.041 191.809 118.187C190.939 117.339 190.252 116.327 189.79 115.21C189.328 114.093 189.1 112.895 189.121 111.689C189.099 110.476 189.326 109.271 189.788 108.147C190.25 107.022 190.937 106.002 191.809 105.146C192.609 104.288 193.581 103.604 194.663 103.137C195.746 102.669 196.915 102.43 198.096 102.432C199.096 102.43 200.084 102.647 200.988 103.068C201.771 103.405 202.468 103.908 203.032 104.541H203.173V103.068H207.071V119.582C207.174 120.889 207.005 122.202 206.575 123.442C206.146 124.681 205.464 125.822 204.572 126.793C203.723 127.594 202.719 128.22 201.62 128.633C200.521 129.046 199.35 129.237 198.175 129.196ZM198.458 117.287C199.129 117.302 199.795 117.17 200.409 116.902C201.023 116.634 201.57 116.236 202.01 115.737C202.98 114.64 203.491 113.221 203.44 111.767C203.499 110.288 202.988 108.842 202.01 107.72C201.57 107.219 201.024 106.82 200.41 106.552C199.796 106.284 199.129 106.153 198.458 106.169C197.768 106.155 197.084 106.286 196.449 106.554C195.815 106.821 195.246 107.218 194.78 107.72C193.74 108.802 193.175 110.245 193.208 111.736C193.192 112.467 193.322 113.194 193.592 113.875C193.862 114.557 194.266 115.179 194.78 115.706C195.244 116.212 195.812 116.614 196.446 116.887C197.08 117.16 197.766 117.296 198.458 117.287ZM214.003 93.2522V120.357H209.901V93.2522H214.003ZM225.257 120.916C224.029 120.947 222.807 120.727 221.668 120.271C220.529 119.815 219.499 119.132 218.64 118.264C217.769 117.403 217.084 116.376 216.627 115.246C216.171 114.116 215.952 112.906 215.984 111.689C215.937 110.47 216.14 109.254 216.58 108.114C217.02 106.974 217.689 105.932 218.546 105.053C219.353 104.213 220.329 103.549 221.412 103.103C222.495 102.657 223.66 102.439 224.833 102.463C225.912 102.452 226.981 102.658 227.977 103.068C228.873 103.425 229.69 103.952 230.381 104.618C230.975 105.184 231.502 105.813 231.953 106.495C232.318 107.07 232.628 107.677 232.881 108.309L233.305 109.363L220.73 114.465C221.111 115.327 221.747 116.055 222.555 116.553C223.363 117.052 224.305 117.297 225.257 117.256C226.184 117.259 227.095 117.024 227.902 116.576C228.709 116.127 229.385 115.48 229.863 114.698L233.006 116.791C232.204 117.923 231.177 118.883 229.988 119.613C228.575 120.494 226.93 120.947 225.257 120.916ZM220.007 111.41L228.37 107.983C228.112 107.379 227.651 106.881 227.065 106.572C226.408 106.207 225.665 106.019 224.912 106.03C223.632 106.062 222.418 106.592 221.532 107.503C221.002 108.003 220.59 108.613 220.327 109.288C220.063 109.964 219.954 110.688 220.007 111.41ZM254.792 120.916C253.047 120.945 251.314 120.627 249.697 119.98C248.081 119.332 246.613 118.369 245.383 117.148C244.153 115.927 243.185 114.474 242.539 112.875C241.892 111.276 241.579 109.565 241.62 107.844C241.579 106.123 241.892 104.411 242.539 102.813C243.185 101.214 244.153 99.7601 245.383 98.5392C246.613 97.3183 248.081 96.3553 249.697 95.7079C251.314 95.0605 253.047 94.7421 254.792 94.7718C256.558 94.7173 258.313 95.0572 259.927 95.7661C261.541 96.475 262.972 97.5345 264.113 98.8655L261.849 101.036C261.012 99.9973 259.938 99.1679 258.714 98.6155C257.491 98.0631 256.152 97.8035 254.808 97.8576C253.513 97.8288 252.226 98.0585 251.024 98.5328C249.822 99.0072 248.73 99.7163 247.813 100.618C246.859 101.564 246.114 102.694 245.625 103.937C245.135 105.181 244.912 106.511 244.968 107.844C244.912 109.177 245.135 110.507 245.625 111.75C246.114 112.994 246.859 114.124 247.813 115.07C248.73 115.971 249.822 116.68 251.024 117.155C252.226 117.629 253.513 117.859 254.808 117.83C256.31 117.847 257.796 117.529 259.157 116.901C260.518 116.273 261.717 115.35 262.667 114.201L264.93 116.434C263.745 117.832 262.257 118.95 260.576 119.706C258.764 120.531 256.787 120.945 254.792 120.916ZM271.013 120.357H267.759V95.3145H271.013V120.357ZM276.326 105.285C278.031 103.615 280.336 102.677 282.739 102.677C285.142 102.677 287.447 103.615 289.152 105.285C289.986 106.154 290.637 107.176 291.069 108.294C291.5 109.411 291.704 110.602 291.667 111.798C291.704 112.993 291.5 114.184 291.069 115.302C290.637 116.42 289.986 117.442 289.152 118.311C287.447 119.981 285.142 120.918 282.739 120.918C280.336 120.918 278.031 119.981 276.326 118.311C275.492 117.442 274.841 116.42 274.409 115.302C273.977 114.184 273.774 112.993 273.811 111.798C273.774 110.602 273.977 109.411 274.409 108.294C274.841 107.176 275.492 106.154 276.326 105.285ZM278.746 116.295C279.259 116.829 279.877 117.255 280.562 117.546C281.247 117.837 281.985 117.987 282.731 117.987C283.477 117.987 284.215 117.837 284.9 117.546C285.585 117.255 286.203 116.829 286.716 116.295C287.284 115.693 287.726 114.985 288.015 114.213C288.303 113.441 288.433 112.62 288.397 111.798C288.433 110.976 288.303 110.155 288.015 109.383C287.726 108.611 287.284 107.903 286.716 107.301C286.203 106.767 285.585 106.341 284.9 106.05C284.215 105.759 283.477 105.609 282.731 105.609C281.985 105.609 281.247 105.759 280.562 106.05C279.877 106.341 279.259 106.767 278.746 107.301C278.178 107.903 277.736 108.611 277.447 109.383C277.159 110.155 277.029 110.976 277.065 111.798C277.033 112.619 277.166 113.437 277.458 114.207C277.749 114.976 278.193 115.68 278.762 116.279L278.746 116.295ZM309.696 120.357H306.552V117.985H306.458C305.898 118.886 305.106 119.625 304.163 120.125C303.184 120.685 302.072 120.979 300.941 120.978C300.022 121.04 299.101 120.896 298.246 120.558C297.392 120.22 296.625 119.695 296.005 119.024C294.814 117.538 294.216 115.674 294.323 113.783V103.238H297.577V113.193C297.577 116.388 299.007 117.985 301.868 117.985C302.504 118.005 303.135 117.874 303.709 117.604C304.283 117.335 304.784 116.933 305.169 116.434C306.012 115.38 306.462 114.071 306.442 112.728V103.238H309.696V120.357ZM320.746 120.916C319.642 120.919 318.55 120.687 317.546 120.235C316.542 119.782 315.65 119.12 314.93 118.295C313.3 116.52 312.428 114.192 312.493 111.798C312.428 109.404 313.3 107.076 314.93 105.301C315.65 104.475 316.542 103.814 317.546 103.361C318.55 102.909 319.642 102.676 320.746 102.68C321.982 102.661 323.204 102.949 324.298 103.517C325.259 103.995 326.074 104.718 326.656 105.611H326.797L326.656 103.238V95.3145H329.909V120.357H326.766V117.985H326.624C326.042 118.878 325.228 119.601 324.266 120.078C323.182 120.642 321.971 120.93 320.746 120.916ZM321.28 117.985C322.015 117.996 322.745 117.852 323.419 117.563C324.094 117.274 324.699 116.847 325.194 116.31C326.299 115.069 326.864 113.447 326.766 111.798C326.864 110.148 326.299 108.527 325.194 107.286C324.696 106.746 324.089 106.314 323.412 106.019C322.736 105.724 322.004 105.572 321.264 105.572C320.524 105.572 319.793 105.724 319.116 106.019C318.439 106.314 317.833 106.746 317.335 107.286C316.786 107.896 316.364 108.608 316.094 109.379C315.825 110.151 315.712 110.968 315.763 111.782C315.712 112.597 315.825 113.414 316.094 114.185C316.364 114.957 316.786 115.669 317.335 116.279C317.83 116.826 318.439 117.261 319.119 117.555C319.8 117.85 320.537 117.996 321.28 117.985Z" fill="white"/>
</g>
<defs>
<clipPath id="clip0_623_1718">
<rect width="279.818" height="48.3636" fill="white" transform="translate(50.0909 82.9091)"/>
</clipPath>
</defs>
</svg>
