<svg width="380" height="215" viewBox="0 0 380 215" fill="none" xmlns="http://www.w3.org/2000/svg">
<path d="M141.636 24.3637H149.155V31.7835H156.085V24.3637H163.603V46.8183H156.085V39.3334H149.22V46.8183H141.636M173.541 31.8486H166.905V24.3637H187.728V31.8486H181.06V46.8183H173.541M191.03 24.3637H198.908L203.746 32.2716L208.584 24.3637H216.462V46.8183H208.943V35.6886L203.68 43.7592L198.417 35.6886V46.8183H191.03M220.188 24.3637H227.707V39.3985H238.364V46.8183H220.188M188.273 126.494V126.562H206.972L205.202 145.985L189.238 150.207L173.067 145.935L172 133.994H156.8L158.933 157.448L188.273 165.525V166L189.139 165.763L190 166V165.528L219.327 157.507L223.501 111.617H190V111.593H170L168.6 96.2976H188.273V96.3092H224.87L226.273 81.3637H188.273H152L156.133 126.494H188.273ZM140.386 178.482L129.545 57.1819H248.727L237.887 178.417L189.038 191.909L140.386 178.482Z" fill="white"/>
</svg>
