<svg width="380" height="215" viewBox="0 0 380 215" fill="none" xmlns="http://www.w3.org/2000/svg">
<path d="M138.358 100.023L138.358 100.02L136.373 106.996L138.358 100.023ZM148.005 125.586H148.007L134.901 125.645L148.005 125.586ZM149.154 124.7L151.437 116.067L149.154 124.702V124.7Z" fill="white"/>
<path d="M196.677 84.0487H187.583C187.079 84.0487 186.578 84.4501 186.47 84.939L183.242 99.75L180.013 114.561C179.906 115.05 179.406 115.45 178.901 115.45H172.465C166.097 115.45 166.833 111.083 168.137 105.099C168.15 105.039 168.163 104.98 168.176 104.918L168.319 104.164C168.328 104.115 168.338 104.067 168.346 104.022L168.637 102.487L168.948 100.841C169.043 100.345 169.187 99.6194 169.281 99.1635L170.748 92.0528L172.217 84.9421C172.318 84.4518 171.987 84.0489 171.483 84.0489H162.148C161.644 84.0489 161.144 84.4518 161.041 84.9407L159.034 94.3827L157.027 103.824C157.026 103.828 157.025 103.834 157.024 103.838L156.838 104.715C154.526 115.181 155.139 125.161 167.703 125.473C167.908 125.479 168.067 125.48 168.067 125.48H187.789C188.294 125.48 188.793 125.079 188.899 124.589L193.152 104.766L197.405 84.941C197.509 84.4507 197.182 84.0487 196.677 84.0487ZM232.956 115.553C233.461 115.553 233.792 115.955 233.69 116.445L232.807 120.725M230.818 125.908C230.819 125.908 230.821 125.906 230.822 125.906C228.146 125.933 220.104 126.009 214.059 126.009C221.416 126.009 230.818 125.908 230.818 125.908ZM208.634 110.041C208.627 109.572 209.165 108.765 209.67 108.765L208.534 108.746C208.022 113.85 208.634 110.041 208.634 110.041Z" fill="white"/>
<path d="M232.957 115.553C233.463 115.553 233.793 115.955 233.692 116.445L232.808 120.725L232.664 121.423M230.825 125.906C228.864 125.925 224.021 125.97 219.191 125.994C224.019 125.972 228.863 125.925 230.825 125.906ZM231.927 125.008L232.75 121.423L231.926 125.011C231.926 125.01 231.927 125.01 231.927 125.008ZM82.373 110.149L83.7856 103.939L82.1706 111.037L80.6207 118.267L81.979 111.929C82.0839 111.439 82.2617 110.637 82.373 110.149ZM99.2806 83.9442H89.2936C88.7883 83.9442 88.2844 84.3442 88.1716 84.8316L87.2246 88.9763L86.2776 93.1225C86.1663 93.6099 86.488 94.0099 86.9933 94.0099H97.0579C97.5625 94.0099 98.0642 93.6099 98.1726 93.121L99.0878 88.9763L100.003 84.8345C100.111 84.3456 99.7859 83.9442 99.2806 83.9442ZM68.0948 142.254C68.0948 142.254 73.1291 142.335 76.3294 142.335C73.8983 142.335 69.8833 142.28 68.0906 142.253C68.0924 142.253 68.093 142.254 68.0948 142.254Z" fill="white"/>
<path d="M96.3842 96.8421H86.3184C85.8139 96.8421 85.3093 97.2421 85.1979 97.731L83.7839 103.94L82.3714 110.15C82.2601 110.638 82.0822 111.44 81.9774 111.93L80.619 118.268L79.2614 124.606C79.1559 125.095 78.939 125.885 78.7771 126.359C78.7771 126.359 76.8968 131.908 73.7355 131.845C73.601 131.842 73.4702 131.84 73.3408 131.837C71.8089 131.808 70.6053 131.787 70.6053 131.787H70.6029C70.0991 131.78 69.5923 132.17 69.4745 132.656L68.4306 137.007L67.3881 141.357C67.271 141.843 67.5877 142.244 68.0894 142.253C69.8822 142.274 73.8972 142.319 76.3282 142.319C84.2247 142.319 88.3873 137.98 91.0558 125.496L94.1787 111.169L97.108 97.7312C97.2142 97.2423 96.8888 96.8421 96.3842 96.8421ZM239.37 125.48C238.866 125.48 238.538 125.079 238.645 124.589L246.217 89.4198" fill="white"/>
<path d="M238.754 125.036C238.693 124.79 238.729 124.19 238.836 123.699L242.429 107.006L238.643 124.59C238.537 125.08 238.865 125.481 239.369 125.481H240.289C239.784 125.481 238.815 125.281 238.754 125.036ZM249.295 125.28C249.021 125.391 248.382 125.481 247.876 125.481H248.796C249.3 125.481 249.796 125.08 249.896 124.588L250.078 123.696C249.978 124.186 249.571 125.17 249.295 125.28ZM251.427 117.083L252.779 110.458C252.779 110.462 252.778 110.468 252.777 110.471L251.427 117.083ZM281.341 91.7763L281.811 93.4852C281.94 93.9741 281.581 94.3712 281.014 94.3726M252.779 110.458C252.88 109.967 253.044 109.174 253.149 108.688L254.593 101.981L252.958 109.578L252.779 110.458ZM246.34 88.8442C246.24 89.3173 246.111 89.9152 246.026 90.3109L242.432 107.006L246.218 89.4207L246.34 88.8442Z" fill="white"/>
<path d="M281.719 93.4836L281.302 91.7746L280.889 90.0241L280.68 89.1381C279.863 85.9883 277.463 84.1705 272.251 84.1705L264.138 84.1619L256.666 84.1533H248.259C247.754 84.1533 247.255 84.5533 247.15 85.0436L246.778 86.7855L246.34 88.8428L246.217 89.4191L242.431 107.004L238.838 123.698C238.731 124.188 238.695 124.789 238.756 125.034C238.817 125.279 239.786 125.48 240.291 125.48H247.876C248.381 125.48 249.02 125.39 249.295 125.279C249.57 125.169 249.977 124.185 250.078 123.695L251.426 117.082L252.776 110.469C252.776 110.466 252.777 110.461 252.778 110.456L252.958 109.576L254.593 101.979L256.038 95.2697C256.145 94.7822 256.642 94.3837 257.146 94.3823L281.012 94.3708C281.516 94.3696 281.834 93.9724 281.719 93.4836Z" fill="white"/>
<path d="M312.443 78.0324C311.938 78.0359 311.111 78.039 310.606 78.039H302.967C302.462 78.039 301.815 78.3773 301.53 78.7909L284.638 103.329C284.353 103.744 284.028 103.682 283.915 103.195L282.673 97.7883C282.561 97.2994 282.055 96.9009 281.55 96.9009H270.691C270.185 96.9009 269.886 97.2937 270.024 97.7754L274.89 114.678C275.029 115.16 275.039 115.951 274.914 116.436L272.793 124.616C272.667 125.102 272.978 125.5 273.483 125.5H284.216C284.721 125.5 285.237 125.102 285.362 124.616L287.484 116.436C287.609 115.951 287.96 115.226 288.264 114.826L315.687 78.7355C315.991 78.3355 315.827 78.0101 315.322 78.0137L312.443 78.0324ZM226.17 99.2016L226.169 99.1916C226.106 99.7349 225.601 100.133 225.096 100.133H211.328C210.853 100.133 210.61 99.8123 210.681 99.4166C210.685 99.4052 210.686 99.3951 210.694 99.3851C210.694 99.3851 210.689 99.3863 210.685 99.3892C210.688 99.3734 210.688 99.3592 210.692 99.3434C210.692 99.3434 210.718 99.2473 210.755 99.1111C212.07 95.6445 214.749 93.3693 219.782 93.3693C225.449 93.3693 226.555 96.115 226.17 99.2016ZM222.131 83.444C204.459 83.444 200.272 94.0804 197.922 104.815C195.573 115.757 195.775 125.988 214.062 125.988H214.711C214.769 125.987 214.828 125.987 214.886 125.987H216.066C216.137 125.986 216.207 125.986 216.28 125.986C216.462 125.986 216.646 125.984 216.831 125.984H216.96C217.684 125.983 218.418 125.98 219.154 125.977H219.191C224.021 125.958 228.864 125.923 230.826 125.907C231.328 125.899 231.819 125.498 231.922 125.012L232.662 121.424L232.806 120.726L233.689 116.446C233.791 115.956 233.46 115.554 232.955 115.554H216.515C209.976 115.554 208.034 113.831 208.75 108.766H235.03L235.028 108.769C235.034 108.769 235.04 108.766 235.046 108.766C235.464 108.759 235.85 108.474 236.003 108.094C236.032 108.021 236.056 107.945 236.066 107.866L236.064 107.869C239.966 93.2737 238.848 83.444 222.131 83.444ZM138.606 99.1458L138.358 100.019C138.358 100.022 138.357 100.022 138.357 100.022L136.373 106.995L134.389 113.967C134.252 114.449 133.727 114.843 133.221 114.843H122.717C114.75 114.843 112.81 108.664 114.75 99.5507C116.69 90.2291 120.493 84.4344 128.334 83.8477C139.05 83.0463 141.194 90.5195 138.606 99.1458ZM145.809 114.307C145.809 114.307 150.761 102.384 151.886 95.4974C153.426 86.2785 148.771 72.9092 130.791 72.9092C112.913 72.9092 105.151 85.6737 102.188 99.5498C99.2267 113.526 103.107 125.784 120.883 125.684L134.906 125.632L148.012 125.585C148.516 125.581 149.032 125.183 149.161 124.7L151.444 116.065C151.571 115.58 151.263 115.182 150.758 115.179L148.57 115.166L146.382 115.153C145.953 115.15 145.707 114.875 145.759 114.509C145.769 114.444 145.784 114.376 145.813 114.306L145.809 114.307Z" fill="white"/>
<path d="M234.307 106.327C234.307 106.657 234.037 106.925 233.704 106.925C233.372 106.925 233.101 106.657 233.101 106.327C233.101 105.997 233.372 105.731 233.704 105.731C234.037 105.731 234.307 105.997 234.307 106.327Z" fill="white"/>
</svg>
