<svg width="380" height="215" viewBox="0 0 380 215" fill="none" xmlns="http://www.w3.org/2000/svg">
<path fill-rule="evenodd" clip-rule="evenodd" d="M78.9677 55.4375C81.5985 54.6818 83.4347 56.6134 85.0959 59.4352C96.2345 78.359 107.512 97.1996 118.622 116.141C119.916 118.347 121.059 118.793 123.528 118.166C136.627 114.846 149.773 111.714 162.935 108.653C165.239 108.117 165.441 107.62 164.043 105.703C159.676 99.7155 155.479 93.6018 151.236 87.5223C149.519 85.062 149.809 84.1961 152.616 83.7073C159.505 82.5086 166.418 81.4502 173.296 80.1959C175.451 79.8034 176.981 80.4669 178.273 82.0761C183.924 89.116 189.567 96.1617 195.225 103.196C196.934 105.321 195.521 106 193.743 106.479C188.085 108.004 182.451 109.643 176.744 110.956C174.173 111.55 174.546 112.282 175.814 113.967C181.244 121.18 186.584 128.462 191.92 135.744C193.86 138.391 193.683 139.159 190.646 140.263C174.381 146.174 158.109 152.07 141.802 157.859C137.235 159.479 135.809 158.907 133.387 154.695C128.415 146.042 123.513 137.345 118.75 128.575C117.703 126.648 116.783 126.136 114.635 126.731C105.526 129.254 96.3633 131.582 87.2148 133.96C81.8949 135.342 79.9737 134.36 77.6264 129.237C68.0065 108.236 58.3703 87.2408 48.7528 66.2377C48.0805 64.7704 47.3791 63.2975 46.9118 61.7593C46.1553 59.2761 46.9361 58.1573 49.5166 57.9321C59.0304 57.1022 68.5491 56.3163 78.9677 55.4375ZM78.0792 59.7869C70.4096 60.492 62.8818 61.2231 55.3459 61.8507C53.3024 62.0204 53.8758 62.9907 54.4128 64.1062C64.3033 84.667 74.2043 105.223 84.0502 125.805C84.678 127.118 85.3859 127.384 86.7004 127.06C95.0512 124.999 103.402 122.934 111.783 121.006C113.786 120.546 114.088 119.872 113.048 118.153C111.081 114.901 109.233 111.576 107.338 108.28C98.4279 92.7857 89.5215 77.29 80.6047 61.8017C80.0093 60.7686 79.6319 59.3789 78.0792 59.7869ZM185.062 134.685C184.884 134.378 184.72 134.035 184.5 133.731C179.659 127.034 174.8 120.351 169.983 113.635C169.284 112.661 168.461 112.675 167.492 112.929C153.422 116.618 139.352 120.306 125.281 123.99C124.246 124.261 123.556 124.503 124.352 125.855C128.931 133.63 133.439 141.448 137.957 149.259C138.669 150.49 139.558 151.001 141.005 150.502C155.21 145.608 169.425 140.746 183.635 135.867C184.23 135.663 184.952 135.588 185.062 134.685ZM189.377 102.074C184.765 96.1617 180.448 90.6412 176.148 85.1077C175.453 84.2125 174.584 84.1961 173.601 84.3797C168.589 85.3108 163.581 86.2762 158.553 87.1192C156.812 87.4121 156.77 87.9515 157.736 89.2662C161.672 94.6226 165.544 100.026 169.432 105.419C169.944 106.13 170.41 106.84 171.47 106.573C177.304 105.101 183.14 103.64 189.377 102.074ZM315.804 143.233C313.155 143.234 310.502 143.332 307.86 143.199C306.173 143.113 305.911 143.856 306.216 145.236C306.905 148.345 308.608 150.666 311.661 151.644C314.862 152.668 317.826 151.993 320.348 149.694C320.833 149.252 321.276 148.727 321.612 148.164C322.224 147.14 322.903 146.943 323.927 147.61C325.186 148.431 324.205 149.108 323.794 149.695C321.089 153.556 317.326 155.219 312.722 154.541C308.073 153.856 305.035 151.022 303.66 146.541C301.72 140.23 305.443 133.298 311.435 131.826C317.999 130.212 323.971 134.041 325.334 140.637C325.737 142.592 325.355 143.427 323.181 143.272C320.732 143.098 318.264 143.232 315.804 143.233ZM232.255 135.477C232.255 134.573 232.26 134.003 232.254 133.434C232.247 132.656 232.526 132.184 233.396 132.176C234.318 132.168 234.798 132.534 234.797 133.502C234.792 139.873 234.795 146.244 234.802 152.615C234.803 153.531 234.457 154.006 233.465 154.004C232.399 154.001 232.225 153.38 232.245 152.527C232.257 152.053 232.247 151.58 232.247 150.474C229.313 153.078 226.461 155.032 222.743 154.654C219.023 154.276 216.181 152.459 214.147 149.325C211.113 144.656 211.905 138.29 215.993 134.481C220.407 130.369 225.728 130.627 232.255 135.477ZM272.505 135.639C272.539 134.886 272.544 134.536 272.573 134.19C272.645 133.307 272.275 132.173 273.822 132.179C275.305 132.185 275.126 133.242 275.13 134.173C275.144 137.405 275.137 140.638 275.137 143.871C275.138 146.534 275.163 149.197 275.122 151.858C275.108 152.723 275.489 153.88 273.976 153.987C272.235 154.111 272.646 152.829 272.564 151.857C272.541 151.59 272.486 151.326 272.381 150.631C269.123 153.602 265.69 155.531 261.301 154.351C258.526 153.605 256.366 152.057 254.735 149.715C251.394 144.921 252.113 138.33 256.394 134.414C260.909 130.286 266.775 130.611 272.505 135.639ZM279.644 132.547C281.645 131.661 282.592 132.353 283.305 134.069C285.261 138.771 287.341 143.418 289.612 148.64C291.791 143.677 293.756 139.199 295.723 134.722C296.028 134.026 296.245 133.268 296.67 132.658C297.172 131.935 298.032 132.097 298.76 132.236C299.588 132.396 299.399 133.019 299.163 133.556C296.1 140.551 293.029 147.542 289.675 155.181C286.143 147.214 282.903 139.904 279.644 132.547ZM204.972 138.489C204.971 134.293 204.952 130.097 204.988 125.9C204.997 124.962 204.545 123.709 206.301 123.664C207.932 123.623 207.827 124.656 207.827 125.743C207.82 134.516 207.822 143.29 207.823 152.064C207.823 153.034 207.928 153.983 206.469 154.03C204.811 154.083 204.973 152.99 204.972 151.937C204.971 147.453 204.972 142.971 204.972 138.489ZM330.499 138.939C330.499 134.553 330.494 130.166 330.503 125.779C330.504 124.76 330.257 123.622 331.949 123.66C333.639 123.699 333.341 124.865 333.343 125.863C333.355 134.541 333.351 143.22 333.348 151.898C333.348 152.941 333.538 154.05 331.875 154.027C330.144 154.004 330.517 152.783 330.51 151.813C330.483 147.523 330.499 143.231 330.499 138.939ZM240.65 142.843C240.65 139.984 240.626 137.127 240.667 134.27C240.679 133.491 240.314 132.394 241.583 132.221C242.482 132.098 243.441 131.895 243.641 133.397C243.852 134.98 244.483 133.694 244.736 133.383C245.844 132.013 247.198 131.313 248.956 131.641C249.537 131.75 250.474 131.597 250.382 132.594C250.311 133.351 249.869 134.282 249.101 134.304C244.476 134.432 244.039 137.928 243.755 141.232C243.454 144.731 243.644 148.274 243.595 151.796C243.581 152.783 243.92 153.969 242.227 154.022C240.376 154.079 240.661 152.808 240.656 151.699C240.64 148.749 240.649 145.796 240.65 142.843ZM306.659 140.853C311.302 140.853 315.912 140.816 320.522 140.873C322.264 140.894 322.419 140.211 321.809 138.791C320.521 135.793 316.972 133.807 313.416 134.182C309.731 134.573 307.351 136.866 306.659 140.853ZM215.2 143.287C215.249 148.131 219.162 152.158 223.794 152.132C228.609 152.106 232.377 148.051 232.334 142.942C232.292 138.027 228.478 134.133 223.741 134.171C218.84 134.21 215.149 138.149 215.2 143.287ZM272.662 143.085C272.671 138.14 268.949 134.212 264.211 134.171C259.303 134.128 255.529 138.027 255.528 143.144C255.525 148.012 259.318 152.047 263.98 152.133C268.753 152.222 272.652 148.159 272.662 143.085Z" fill="white"/>
</svg>
