<svg width="380" height="215" viewBox="0 0 380 215" fill="none" xmlns="http://www.w3.org/2000/svg">
<path d="M138.877 164.062H131.196C130.924 151.106 130.176 138.926 128.953 127.513H128.885L117.191 164.062H111.344L99.7196 127.513H99.6528C98.7905 138.471 98.2473 150.654 98.0217 164.062H91.0209C91.4721 147.757 92.606 132.471 94.4182 118.203H103.938L115.017 151.9H115.085L126.233 118.203H135.341C137.336 134.915 138.514 150.203 138.877 164.062ZM172.186 130.227C169.059 147.186 164.933 159.508 159.812 167.2C155.823 173.121 151.452 176.085 146.692 176.085C145.423 176.085 143.858 175.702 142.002 174.943V170.853C142.909 170.984 143.973 171.058 145.196 171.058C147.42 171.058 149.206 170.447 150.569 169.222C152.199 167.73 153.013 166.052 153.013 164.197C153.013 162.924 152.378 160.323 151.111 156.383L142.682 130.225H150.228L156.277 149.789C157.637 154.231 158.204 157.332 157.976 159.099C161.285 150.269 163.596 140.642 164.912 130.224H172.186V130.227ZM274.423 164.062H252.606V118.203H259.945V158.417H274.423V164.062ZM246.895 165.17L238.459 161.009C239.207 160.395 239.922 159.731 240.566 158.961C244.152 154.752 245.941 148.527 245.941 140.282C245.941 125.11 239.983 117.52 228.064 117.52C222.219 117.52 217.66 119.446 214.399 123.297C210.816 127.51 209.028 133.712 209.028 141.913C209.028 149.974 210.613 155.888 213.784 159.639C216.686 163.037 221.06 164.738 226.909 164.738C229.091 164.738 231.093 164.471 232.917 163.933L243.9 170.322L246.895 165.17ZM219.567 154.885C217.709 151.898 216.779 147.101 216.779 140.488C216.779 128.941 220.29 123.161 227.317 123.161C230.99 123.161 233.683 124.543 235.404 127.302C237.26 130.294 238.193 135.047 238.193 141.569C238.193 153.211 234.68 159.032 227.657 159.032C223.982 159.034 221.29 157.656 219.567 154.885ZM205.829 151.351C205.829 155.24 204.401 158.43 201.549 160.929C198.693 163.418 194.864 164.665 190.066 164.665C185.578 164.665 181.226 163.233 177.014 160.382L178.986 156.444C182.611 158.258 185.892 159.16 188.838 159.16C191.603 159.16 193.764 158.547 195.332 157.332C196.897 156.113 197.831 154.403 197.831 152.241C197.831 149.516 195.93 147.187 192.442 145.237C189.226 143.472 182.793 139.782 182.793 139.782C179.307 137.243 177.562 134.516 177.562 130.025C177.562 126.308 178.863 123.308 181.468 121.025C184.076 118.734 187.44 117.592 191.565 117.592C195.824 117.592 199.697 118.732 203.184 120.99L201.415 124.929C198.432 123.662 195.487 123.029 192.583 123.029C190.231 123.029 188.414 123.594 187.151 124.729C185.877 125.859 185.092 127.305 185.092 129.079C185.092 131.79 187.034 134.149 190.616 136.138C193.876 137.906 200.468 141.659 200.468 141.659C204.044 144.194 205.829 146.895 205.829 151.351ZM283.637 102.843C279.199 102.73 275.764 103.176 272.88 104.396C272.047 104.728 270.723 104.728 270.608 105.779C271.057 106.224 271.109 106.942 271.5 107.556C272.164 108.664 273.324 110.155 274.382 110.932C275.544 111.822 276.71 112.703 277.933 113.479C280.09 114.812 282.534 115.588 284.636 116.917C285.86 117.689 287.077 118.689 288.303 119.521C288.906 119.965 289.292 120.684 290.074 120.961V120.792C289.682 120.294 289.571 119.573 289.186 119.018L287.521 117.414C285.912 115.254 283.913 113.369 281.757 111.82C279.982 110.598 276.099 108.937 275.379 106.893L275.266 106.781C276.486 106.666 277.933 106.224 279.093 105.885C280.979 105.388 282.699 105.501 284.634 105.004C285.525 104.781 286.408 104.502 287.302 104.228V103.728C286.298 102.73 285.583 101.404 284.528 100.461C281.705 98.0237 278.594 95.6402 275.379 93.6453C273.658 92.5344 271.443 91.8195 269.61 90.8747C268.95 90.5409 267.837 90.3763 267.448 89.8216C266.453 88.6024 265.894 86.9976 265.172 85.5544C263.57 82.5094 262.013 79.1307 260.629 75.9106C259.629 73.7511 259.021 71.5945 257.801 69.5967C252.087 60.1783 245.881 54.4739 236.344 48.8749C234.294 47.7091 231.856 47.2122 229.251 46.6011L225.091 46.3816C224.203 45.993 223.314 44.9384 222.54 44.4401C219.375 42.4467 211.229 38.1261 208.901 43.8305C207.402 47.4361 211.119 50.981 212.395 52.8098C213.338 54.0794 214.559 55.524 215.218 56.9657C215.608 57.9075 215.718 58.9072 216.109 59.9025C216.996 62.3408 217.826 65.0536 218.992 67.3288C219.601 68.4887 220.264 69.7079 221.042 70.758C221.487 71.3721 222.262 71.6435 222.431 72.6446C221.658 73.7481 221.597 75.4138 221.153 76.7991C219.159 83.0597 219.938 90.8153 222.765 95.4162C223.65 96.8015 225.76 99.851 228.583 98.6822C231.082 97.6855 230.529 94.5278 231.247 91.7587C231.412 91.0897 231.304 90.6507 231.636 90.2117V90.32C232.409 91.8699 233.19 93.3635 233.907 94.9179C235.627 97.6307 238.622 100.458 241.117 102.337C242.445 103.339 243.498 105.054 245.161 105.667V105.501H245.052C244.715 105.004 244.222 104.781 243.78 104.396C242.779 103.397 241.672 102.178 240.896 101.072C238.572 97.9673 236.515 94.5308 234.689 90.9844C233.796 89.2639 233.025 87.3832 232.305 85.6657C231.97 85.0027 231.97 84.003 231.413 83.6693C230.579 84.887 229.364 85.9415 228.755 87.4336C227.7 89.8201 227.59 92.7554 227.198 95.8078L226.98 95.9146C225.214 95.4711 224.6 93.6453 223.929 92.0953C222.268 88.1589 221.989 81.8405 223.43 77.2989C223.816 76.1376 225.486 72.48 224.819 71.3735C224.485 70.313 223.375 69.7094 222.767 68.8743C222.051 67.8242 221.268 66.4953 220.769 65.3295C219.439 62.2281 218.77 58.7915 217.338 55.6916C216.668 54.247 215.506 52.7519 214.565 51.4215C213.508 49.9264 212.346 48.8734 211.511 47.1009C211.235 46.4913 210.847 45.4946 211.291 44.8316C211.399 44.3867 211.625 44.2206 212.067 44.1093C212.786 43.5027 214.838 44.274 215.558 44.6077C217.614 45.4383 219.332 46.214 221.048 47.3768C221.824 47.933 222.657 48.9861 223.653 49.2634H224.819C226.59 49.6491 228.586 49.3702 230.253 49.8716C233.19 50.8149 235.851 52.1987 238.238 53.6923C245.5 58.2947 251.488 64.8341 255.531 72.6446C256.195 73.9172 256.477 75.083 257.082 76.4105C258.25 79.1277 259.694 81.8983 260.854 84.5577C262.019 87.1607 263.129 89.8186 264.793 91.9811C265.622 93.144 268.956 93.7536 270.45 94.3632C271.556 94.86 273.278 95.302 274.275 95.9116C276.161 97.073 278.04 98.4064 279.814 99.6834C280.697 100.348 283.472 101.733 283.637 102.843ZM227.081 54.692C226.316 54.684 225.553 54.7778 224.812 54.9708V55.082H224.919C225.365 55.9675 226.142 56.5816 226.695 57.3543C227.142 58.2428 227.529 59.1238 227.967 60.0107L228.074 59.901C228.856 59.3477 229.245 58.4608 229.245 57.1303C228.908 56.7388 228.856 56.3561 228.576 55.9675C228.249 55.4128 227.529 55.1369 227.081 54.692ZM288.918 164.054H290.067V158.436H288.343L286.938 162.27L285.411 158.436H283.751V164.054H284.836V159.78H284.897L286.497 164.054H287.324L288.918 159.78V164.054ZM279.664 164.054H280.88V159.388H282.471V158.434H278.006V159.388H279.661L279.664 164.054Z" fill="white"/>
</svg>
