<svg width="380" height="215" viewBox="0 0 380 215" fill="none" xmlns="http://www.w3.org/2000/svg">
<path fill-rule="evenodd" clip-rule="evenodd" d="M190.277 67.3638C190.068 67.3663 189.857 67.4162 189.671 67.5256C189.298 67.7443 189.064 68.1459 189.064 68.5778V99.5357C189.064 99.8399 188.923 100.112 188.66 100.264C188.396 100.417 188.075 100.417 187.811 100.264L182.756 97.3506C182.003 96.916 181.083 96.9163 180.33 97.3506L160.153 109.005C159.399 109.441 158.94 110.279 158.94 111.15V134.46C158.94 135.33 159.4 136.128 160.153 136.564L180.33 148.219C181.085 148.654 182.002 148.654 182.756 148.219L202.933 136.564C203.687 136.128 204.146 135.33 204.146 134.46V76.3477C204.146 75.4637 203.664 74.6341 202.893 74.2028L190.884 67.4852C190.695 67.3799 190.486 67.3614 190.277 67.3638ZM60.4817 96.4602C60.0969 96.4757 59.7354 96.543 59.39 96.7435L39.213 108.398C38.4612 108.833 38 109.626 38 110.503L38.0403 141.784C38.0403 142.219 38.2646 142.623 38.6469 142.837C39.0215 143.061 39.4865 143.061 39.8599 142.837L51.8286 135.957C52.5867 135.506 53.0821 134.722 53.0821 133.853V119.244C53.0821 118.372 53.5401 117.573 54.2951 117.139L59.3899 114.185C59.7701 113.965 60.1784 113.862 60.6029 113.862C61.0188 113.862 61.4462 113.965 61.816 114.185L66.9107 117.139C67.6657 117.573 68.1238 118.372 68.1238 119.244V133.853C68.1238 134.722 68.624 135.511 69.3773 135.957L81.3459 142.837C81.7218 143.061 82.1862 143.061 82.559 142.837C82.9305 142.623 83.1655 142.219 83.1655 141.784L83.2058 110.503C83.2058 109.626 82.7497 108.833 81.9928 108.398L61.8159 96.7435C61.4747 96.543 61.1116 96.476 60.7242 96.4602H60.4817ZM241.791 96.7435C241.369 96.743 240.956 96.8497 240.578 97.0672L220.401 108.722C219.647 109.158 219.188 109.955 219.188 110.826V134.136C219.188 135.012 219.681 135.807 220.441 136.24L240.457 147.652C241.196 148.075 242.098 148.106 242.842 147.692L254.973 140.934C255.358 140.72 255.618 140.321 255.62 139.882C255.622 139.442 255.393 139.048 255.013 138.83L234.715 127.175C234.335 126.958 234.068 126.519 234.068 126.082V118.798C234.068 118.363 234.338 117.963 234.715 117.746L241.023 114.104C241.398 113.886 241.859 113.886 242.236 114.104L248.544 117.746C248.92 117.963 249.15 118.363 249.15 118.798V124.545C249.15 124.981 249.38 125.379 249.757 125.597C250.135 125.815 250.593 125.816 250.97 125.597L263.06 118.555C263.81 118.119 264.273 117.32 264.273 116.451V110.826C264.273 109.957 263.812 109.158 263.06 108.722L243.004 97.0668C242.626 96.8477 242.213 96.744 241.791 96.7435ZM181.462 114.145C181.568 114.145 181.691 114.171 181.786 114.225L188.7 118.231C188.888 118.34 189.024 118.541 189.024 118.757V126.77C189.024 126.988 188.889 127.188 188.7 127.296L181.786 131.302C181.598 131.41 181.368 131.41 181.179 131.302L174.265 127.296C174.077 127.187 173.942 126.988 173.942 126.77V118.757C173.942 118.541 174.077 118.341 174.265 118.231L181.179 114.226C181.274 114.171 181.357 114.145 181.462 114.145Z" fill="white"/>
<path fill-rule="evenodd" clip-rule="evenodd" d="M304.666 96.7273C303.964 96.7273 303.281 96.8718 302.678 97.2119L283.564 108.197C282.327 108.906 281.576 110.245 281.576 111.67V133.6C281.576 135.024 282.327 136.362 283.564 137.073L288.556 139.94C290.981 141.13 291.875 141.111 292.979 141.111C296.569 141.111 298.619 138.943 298.619 135.175V113.528C298.619 113.222 298.353 113.003 298.051 113.003H295.657C295.35 113.003 295.089 113.222 295.089 113.528V135.175C295.089 136.845 293.341 138.525 290.503 137.113L285.309 134.084C285.126 133.985 284.985 133.809 284.985 133.6V111.67C284.985 111.462 285.124 111.25 285.309 111.145L304.382 100.2C304.56 100.098 304.773 100.098 304.95 100.2L324.023 111.145C324.205 111.254 324.347 111.456 324.347 111.67V133.6C324.347 133.809 324.242 134.024 324.063 134.125L304.95 145.069C304.786 145.166 304.56 145.166 304.382 145.069L299.472 142.161C299.326 142.076 299.126 142.083 298.985 142.161C297.629 142.926 297.374 143.015 296.104 143.454C295.79 143.562 295.315 143.731 296.266 144.261L302.678 148.017C303.288 148.369 303.968 148.542 304.666 148.542C305.374 148.542 306.044 148.369 306.654 148.017L325.768 137.073C327.005 136.357 327.756 135.024 327.756 133.6V111.67C327.756 110.245 327.005 108.909 325.768 108.197L306.654 97.2119C306.055 96.8718 305.368 96.7273 304.666 96.7273ZM122.866 97.1715C122.444 97.1715 122.027 97.2774 121.649 97.4946L101.399 109.085C100.642 109.52 100.182 110.357 100.182 111.226V134.488C100.182 135.358 100.643 136.153 101.399 136.588L121.649 148.219C122.406 148.654 123.327 148.654 124.084 148.219L144.333 136.588C145.089 136.153 145.551 135.358 145.551 134.488V111.226C145.551 110.356 145.09 109.52 144.333 109.085L124.084 97.4946C123.706 97.2774 123.288 97.1715 122.866 97.1715ZM333.032 97.293V97.8584H334.614V102.018H335.264V97.8584H336.887V97.293H333.032ZM337.455 97.293V102.018H338.064V99.2315C338.064 99.1177 338.069 98.9419 338.064 98.7065C338.056 98.4668 338.064 98.2578 338.064 98.141V98.0195L339.403 102.018H340.052L341.432 98.0195C341.432 98.2738 341.398 98.5194 341.391 98.7465C341.389 98.9674 341.391 99.1334 341.391 99.2311V102.018H342V97.2926H341.107L339.727 101.291L338.388 97.2926L337.455 97.293ZM309.779 112.397C304.336 112.397 301.095 114.702 301.095 118.536C301.095 122.695 304.312 123.837 309.536 124.351C315.785 124.96 316.272 125.873 316.272 127.098C316.272 129.221 314.571 130.127 310.55 130.127C305.499 130.127 304.388 128.872 304.017 126.371C303.973 126.103 303.765 125.886 303.489 125.886H301.014C300.709 125.886 300.446 126.147 300.446 126.452C300.446 129.653 302.195 133.438 310.55 133.438C316.598 133.438 320.086 131.076 320.086 126.936C320.086 122.832 317.269 121.731 311.402 120.959C305.474 120.178 304.909 119.796 304.909 118.415C304.909 117.274 305.388 115.749 309.779 115.749C313.701 115.749 315.15 116.591 315.744 119.223C315.796 119.47 316.015 119.667 316.272 119.667H318.747C318.9 119.667 319.048 119.574 319.153 119.465C319.257 119.348 319.33 119.217 319.315 119.061C318.932 114.529 315.895 112.397 309.779 112.397ZM243.958 117.93C243.877 117.93 243.787 117.93 243.714 117.97L239.819 120.232C239.673 120.315 239.575 120.468 239.575 120.636V125.078C239.575 125.245 239.673 125.399 239.819 125.482L243.714 127.703C243.86 127.787 244.016 127.787 244.161 127.703L248.056 125.482C248.201 125.399 248.3 125.245 248.3 125.078V120.636C248.3 120.468 248.201 120.315 248.056 120.232L244.161 117.97C244.089 117.928 244.039 117.93 243.958 117.93Z" fill="white"/>
</svg>
