<svg width="380" height="215" viewBox="0 0 380 215" fill="none" xmlns="http://www.w3.org/2000/svg">
<g clip-path="url(#clip0_323_284)">
<path d="M101.684 125.139C109.379 125.139 115.124 123.696 118.759 120.851C122.355 118.035 124.839 113.156 126.141 106.351C127.355 99.9897 126.892 95.5482 124.767 93.1513C122.594 90.7031 117.895 89.4615 110.803 89.4615H98.5047L91.6869 125.139H101.684ZM61.46 169.088C60.8892 169.088 60.347 168.828 59.9841 168.38C59.6205 167.931 59.4732 167.341 59.5822 166.771L77.6508 72.224C77.8256 71.31 78.6133 70.6496 79.5292 70.6496H118.471C130.71 70.6496 139.82 74.0293 145.546 80.6958C151.302 87.3974 153.08 96.7651 150.829 108.538C149.913 113.335 148.337 117.789 146.146 121.777C143.953 125.77 141.054 129.464 137.529 132.759C133.309 136.776 128.533 139.689 123.346 141.403C118.241 143.094 111.686 143.951 103.861 143.951H88.0928L83.5896 167.513C83.4149 168.428 82.6278 169.088 81.7119 169.088H61.46ZM198.848 143.951C198.284 143.951 197.749 143.692 197.391 143.243C197.032 142.795 196.886 142.205 196.994 141.634L204.884 99.801C205.635 95.8226 205.45 92.967 204.363 91.7605C203.699 91.0229 201.701 89.7859 195.796 89.7859H181.501L171.581 142.376C171.408 143.291 170.631 143.951 169.727 143.951H149.892C149.328 143.951 148.793 143.692 148.435 143.243C148.076 142.795 147.93 142.204 148.038 141.634L165.875 47.0873C166.047 46.1733 166.825 45.5129 167.729 45.5129H187.563C188.128 45.5129 188.662 45.7724 189.021 46.2207C189.38 46.6696 189.526 47.2592 189.418 47.8301L185.113 70.6496H200.491C212.206 70.6496 220.15 72.7773 224.776 77.1546C229.492 81.6202 230.964 88.7603 229.151 98.379L220.852 142.376C220.679 143.291 219.902 143.951 218.997 143.951H198.848ZM265.661 125.139C273.652 125.139 279.617 123.696 283.391 120.851C287.125 118.036 289.704 113.157 291.057 106.351C292.317 99.9897 291.837 95.5482 289.63 93.1513C287.373 90.7031 282.495 89.4615 275.13 89.4615H262.36L255.28 125.139H265.661ZM223.894 169.088C223.302 169.088 222.739 168.828 222.362 168.38C221.984 167.931 221.831 167.341 221.944 166.771L240.706 72.224C240.888 71.31 241.705 70.6496 242.657 70.6496H283.093C295.802 70.6496 305.26 74.0293 311.206 80.6958C317.184 87.3968 319.029 96.7645 316.692 108.538C315.74 113.335 314.104 117.789 311.829 121.777C309.552 125.77 306.542 129.464 302.881 132.759C298.499 136.776 293.54 139.689 288.154 141.403C282.854 143.094 276.046 143.951 267.922 143.951H251.548L246.874 167.513C246.692 168.428 245.874 169.088 244.923 169.088H223.894Z" fill="white"/>
</g>
<defs>
<clipPath id="clip0_323_284">
<rect width="380" height="214.182" fill="white"/>
</clipPath>
</defs>
</svg>
