<svg width="380" height="215" viewBox="0 0 380 215" fill="none" xmlns="http://www.w3.org/2000/svg">
<path d="M267.727 108.334C267.727 97.9268 254.688 88.0637 234.695 81.9473C239.309 61.5805 237.258 45.3768 228.224 40.1891C226.141 38.9722 223.706 38.3958 221.047 38.3958V45.537C222.521 45.537 223.706 45.8252 224.699 46.3696C229.057 48.8674 230.947 58.3782 229.473 70.6111C229.121 73.6212 228.544 76.7915 227.839 80.0259C221.56 78.4888 214.703 77.3039 207.495 76.5354C203.169 70.6111 198.684 65.2312 194.166 60.5238C204.611 50.8208 214.415 45.5049 221.079 45.5049V38.3638C212.268 38.3638 200.734 44.6403 189.072 55.5282C177.41 44.7044 165.876 38.4919 157.066 38.4919V45.633C163.698 45.633 173.534 50.9168 183.978 60.5558C179.493 65.2632 175.007 70.6111 170.746 76.5354C163.505 77.3039 156.649 78.4888 150.37 80.0579C149.633 76.8556 149.088 73.7493 148.704 70.7712C147.198 58.5383 149.056 49.0275 153.381 46.4976C154.342 45.9212 155.592 45.665 157.066 45.665V38.5239C154.374 38.5239 151.939 39.1003 149.825 40.3172C140.822 45.5049 138.804 61.6766 143.449 81.9793C123.521 88.1277 110.545 97.9588 110.545 108.334C110.545 118.742 123.585 128.605 143.577 134.721C138.964 155.088 141.014 171.292 150.049 176.48C152.132 177.696 154.567 178.273 157.258 178.273C166.069 178.273 177.602 171.996 189.265 161.108C200.927 171.932 212.461 178.145 221.271 178.145C223.962 178.145 226.397 177.568 228.512 176.351C237.515 171.164 239.533 154.992 234.888 134.689C254.752 128.573 267.727 118.71 267.727 108.334ZM226.013 86.9749C224.827 91.1059 223.354 95.365 221.688 99.624C220.374 97.0622 218.996 94.5003 217.491 91.9385C216.017 89.3766 214.447 86.8788 212.877 84.4451C217.427 85.1176 221.816 85.9502 226.013 86.9749ZM211.339 121.08C208.84 125.403 206.277 129.502 203.618 133.312C198.844 133.729 194.006 133.953 189.136 133.953C184.299 133.953 179.461 133.729 174.719 133.344C172.06 129.534 169.465 125.467 166.966 121.176C164.531 116.981 162.32 112.721 160.302 108.43C162.288 104.139 164.531 99.8482 166.934 95.6532C169.433 91.33 171.996 87.2311 174.655 83.4203C179.429 83.004 184.266 82.7799 189.136 82.7799C193.974 82.7799 198.812 83.004 203.554 83.3883C206.213 87.1991 208.808 91.266 211.307 95.5571C213.742 99.7521 215.953 104.011 217.971 108.302C215.953 112.593 213.742 116.885 211.339 121.08ZM221.688 116.917C223.418 121.208 224.892 125.499 226.109 129.662C221.912 130.686 217.491 131.551 212.909 132.224C214.479 129.758 216.049 127.228 217.523 124.634C218.996 122.072 220.374 119.478 221.688 116.917ZM189.2 151.085C186.221 148.011 183.241 144.585 180.294 140.838C183.177 140.966 186.125 141.062 189.104 141.062C192.116 141.062 195.096 140.998 198.011 140.838C195.128 144.585 192.148 148.011 189.2 151.085ZM165.364 132.224C160.814 131.551 156.425 130.719 152.228 129.694C153.413 125.563 154.887 121.304 156.553 117.045C157.867 119.606 159.244 122.168 160.75 124.73C162.256 127.292 163.794 129.79 165.364 132.224ZM189.04 65.5834C192.02 68.6577 194.999 72.0841 197.947 75.8308C195.064 75.7028 192.116 75.6067 189.136 75.6067C186.125 75.6067 183.145 75.6707 180.23 75.8308C183.113 72.0841 186.093 68.6577 189.04 65.5834ZM165.332 84.4451C163.762 86.9108 162.192 89.4407 160.718 92.0346C159.244 94.5964 157.867 97.1583 156.553 99.7201C154.823 95.429 153.349 91.1379 152.132 86.9749C156.329 85.9822 160.75 85.1176 165.332 84.4451ZM136.337 124.538C124.995 119.703 117.658 113.362 117.658 108.334C117.658 103.307 124.995 96.9341 136.337 92.1306C139.092 90.9458 142.104 89.889 145.211 88.8963C147.038 95.1728 149.44 101.706 152.42 108.398C149.472 115.059 147.102 121.56 145.307 127.804C142.136 126.812 139.124 125.723 136.337 124.538ZM153.573 170.299C149.216 167.801 147.326 158.29 148.8 146.058C149.152 143.047 149.729 139.877 150.434 136.643C156.713 138.18 163.569 139.365 170.778 140.133C175.103 146.058 179.589 151.437 184.106 156.145C173.662 165.848 163.858 171.164 157.194 171.164C155.752 171.132 154.535 170.843 153.573 170.299ZM229.569 145.897C231.075 158.13 229.217 167.641 224.892 170.171C223.93 170.747 222.681 171.004 221.207 171.004C214.575 171.004 204.739 165.72 194.295 156.081C198.78 151.373 203.265 146.026 207.527 140.101C214.767 139.333 221.624 138.148 227.903 136.579C228.64 139.813 229.217 142.919 229.569 145.897ZM241.904 124.538C239.149 125.723 236.137 126.78 233.029 127.772C231.203 121.496 228.8 114.963 225.821 108.27C228.768 101.609 231.139 95.1088 232.933 88.8643C236.105 89.857 239.117 90.9458 241.936 92.1306C253.278 96.9661 260.615 103.307 260.615 108.334C260.583 113.362 253.246 119.735 241.904 124.538Z" fill="white"/>
<path d="M189.136 123C197.245 123 203.818 116.427 203.818 108.318C203.818 100.21 197.245 93.6365 189.136 93.6365C181.028 93.6365 174.455 100.21 174.455 108.318C174.455 116.427 181.028 123 189.136 123Z" fill="white"/>
</svg>
