<svg width="380" height="215" viewBox="0 0 380 215" fill="none" xmlns="http://www.w3.org/2000/svg">
<path fill-rule="evenodd" clip-rule="evenodd" d="M198.902 39.3145C188.609 39.3145 179.303 43.6201 172.618 50.5621C165.263 40.9773 153.662 34.7916 140.609 34.7916C118.376 34.7916 100.35 52.7307 100.35 74.8604C100.35 80.5254 101.534 85.9138 103.663 90.7957C93.3228 96.8195 86.3635 108.079 86.3635 120.974C86.3635 140.217 101.853 155.814 120.959 155.814C123.398 155.814 125.775 155.561 128.069 155.075C133.319 169.268 146.995 179.388 163.043 179.388C178.452 179.388 191.674 170.06 197.349 156.755C201.666 158.854 206.514 160.034 211.64 160.034C223.884 160.034 234.552 153.309 240.15 143.357C243.047 143.94 245.996 144.233 248.952 144.231C273.629 144.231 293.636 124.117 293.636 99.3033C293.636 74.4927 273.629 54.3786 248.952 54.3786C242.518 54.3786 236.403 55.7471 230.879 58.2071C224.522 46.9186 212.585 39.3145 198.902 39.3145ZM209.892 85.6833C209.508 85.5657 209.16 85.486 208.705 85.4008C208.244 85.3185 207.695 85.2772 207.073 85.2772C204.899 85.2772 203.187 85.8893 201.985 87.0957C200.789 88.2965 199.977 90.124 199.57 92.5283L199.422 93.3375H196.694C196.694 93.3375 196.363 93.3257 196.292 93.6849L195.847 96.1773C195.814 96.4129 195.918 96.5628 196.236 96.5628H198.891L196.198 111.547C195.988 112.754 195.746 113.746 195.477 114.499C195.214 115.241 194.958 115.797 194.639 116.203C194.332 116.592 194.042 116.88 193.54 117.048C193.127 117.186 192.649 117.251 192.126 117.251C191.837 117.251 191.45 117.203 191.164 117.144C190.88 117.088 190.73 117.027 190.514 116.935C190.514 116.935 190.204 116.818 190.08 117.127C189.982 117.383 189.274 119.322 189.188 119.561C189.106 119.799 189.224 119.984 189.374 120.04C189.728 120.164 189.991 120.246 190.472 120.361C191.14 120.517 191.704 120.526 192.232 120.526C193.336 120.526 194.346 120.37 195.182 120.07C196.02 119.767 196.752 119.24 197.402 118.528C198.102 117.757 198.542 116.95 198.961 115.847C199.378 114.758 199.735 113.404 200.018 111.827L202.726 96.5628H206.682C206.682 96.5628 207.016 96.5746 207.084 96.2127L207.533 93.7231C207.562 93.4849 207.462 93.3377 207.14 93.3377H203.298C203.3 93.3295 203.304 93.3098 203.309 93.2796C203.311 93.2633 203.315 93.2438 203.318 93.2215C203.377 92.8557 203.558 91.717 203.933 90.6364C204.122 90.0979 204.477 89.6593 204.775 89.359C205.07 89.0648 205.41 88.8559 205.782 88.7351C206.163 88.6115 206.597 88.5528 207.072 88.5528C207.433 88.5528 207.79 88.5939 208.058 88.6497C208.43 88.7294 208.575 88.7705 208.673 88.8001C209.065 88.9177 209.118 88.803 209.195 88.6148L210.114 86.1017C210.208 85.8304 209.975 85.7156 209.892 85.6833ZM156.221 111.58C156.221 111.78 156.077 111.942 155.876 111.942H152.69C152.489 111.942 152.347 111.78 152.347 111.58V86.0247C152.347 85.8248 152.489 85.6628 152.69 85.6628H155.876C156.077 85.6628 156.221 85.8248 156.221 86.0247V111.58ZM116.388 109.774C116.28 110.054 116.383 110.151 116.445 110.209C116.454 110.217 116.461 110.224 116.468 110.231C116.471 110.235 116.474 110.238 116.477 110.242C116.785 110.466 117.098 110.64 117.413 110.815C117.495 110.861 117.578 110.907 117.661 110.954C119.775 112.072 121.771 112.399 123.858 112.399C128.11 112.399 130.75 110.145 130.75 106.516V106.446C130.75 103.091 127.771 101.872 124.974 100.993L124.611 100.875L124.608 100.874C122.501 100.191 120.684 99.603 120.684 98.2205V98.1471C120.684 96.9641 121.747 96.0929 123.395 96.0929C125.225 96.0929 127.399 96.6992 128.798 97.4701C128.798 97.4701 129.208 97.735 129.359 97.3378C129.442 97.1258 130.15 95.2248 130.224 95.0188C130.304 94.7951 130.162 94.6302 130.018 94.5419C128.42 93.5737 126.212 92.9116 123.926 92.9116L123.501 92.9145C119.61 92.9145 116.893 95.257 116.893 98.6147V98.6854C116.893 102.225 119.89 103.373 122.698 104.174L123.15 104.312L123.156 104.314C125.2 104.94 126.959 105.479 126.959 106.913V106.984C126.959 108.297 125.813 109.274 123.965 109.274C123.247 109.274 120.959 109.259 118.488 107.702C118.316 107.602 118.186 107.518 118.062 107.438C117.971 107.379 117.883 107.322 117.785 107.264C117.664 107.187 117.36 107.054 117.227 107.455L116.388 109.774ZM178.632 109.774C178.524 110.054 178.627 110.151 178.689 110.209C178.702 110.221 178.713 110.232 178.72 110.242C179.029 110.466 179.341 110.639 179.655 110.815L179.658 110.816C179.74 110.862 179.822 110.907 179.904 110.954C182.018 112.072 184.014 112.399 186.102 112.399C190.353 112.399 192.993 110.145 192.993 106.516V106.446C192.993 103.091 190.014 101.872 187.218 100.993L186.855 100.875L186.851 100.874C184.744 100.191 182.927 99.6029 182.927 98.2205V98.1471C182.927 96.9641 183.99 96.0929 185.638 96.0929C187.469 96.0929 189.642 96.6992 191.041 97.4701C191.041 97.4701 191.452 97.735 191.602 97.3378C191.685 97.1258 192.394 95.2248 192.467 95.0188C192.547 94.7951 192.405 94.6302 192.261 94.5419C190.663 93.5737 188.455 92.9116 186.17 92.9116L185.744 92.9145C181.853 92.9145 179.136 95.257 179.136 98.6147V98.6854C179.136 102.225 182.133 103.373 184.941 104.174L185.393 104.312L185.403 104.315C187.445 104.941 189.205 105.48 189.205 106.913V106.984C189.205 108.297 188.056 109.274 186.208 109.274C185.491 109.274 183.202 109.259 180.731 107.702C180.498 107.566 180.339 107.463 180.173 107.355C180.127 107.325 180.08 107.295 180.031 107.264C179.955 107.213 179.594 107.075 179.47 107.455L178.632 109.774ZM221.124 102.667C221.124 104.718 220.74 106.333 219.984 107.475C219.237 108.605 218.106 109.155 216.53 109.155C214.95 109.155 213.825 108.608 213.09 107.475C212.346 106.336 211.968 104.718 211.968 102.667C211.968 100.618 212.346 99.0057 213.09 97.8756C213.825 96.7575 214.95 96.213 216.53 96.213C218.106 96.213 219.237 96.7575 219.987 97.8756C220.74 99.0055 221.124 100.618 221.124 102.667ZM224.673 98.8645C224.324 97.6901 223.781 96.6543 223.058 95.7922C222.334 94.927 221.419 94.2326 220.332 93.7264C219.249 93.2232 217.968 92.9672 216.53 92.9672C215.089 92.9672 213.807 93.2232 212.724 93.7264C211.637 94.2326 210.722 94.9272 209.996 95.7922C209.275 96.6574 208.732 97.6932 208.381 98.8645C208.035 100.033 207.861 101.31 207.861 102.667C207.861 104.023 208.035 105.303 208.381 106.469C208.732 107.64 209.272 108.676 209.999 109.541C210.722 110.406 211.64 111.098 212.724 111.589C213.81 112.08 215.089 112.331 216.53 112.331C217.968 112.331 219.246 112.08 220.333 111.589C221.416 111.098 222.334 110.406 223.058 109.541C223.781 108.679 224.325 107.643 224.673 106.469C225.022 105.3 225.196 104.02 225.196 102.667C225.196 101.313 225.021 100.033 224.673 98.8645ZM253.817 108.608C253.699 108.263 253.365 108.393 253.365 108.393C252.849 108.59 252.299 108.772 251.715 108.864C251.121 108.955 250.469 109.002 249.769 109.002C248.051 109.002 246.687 108.493 245.709 107.486C244.729 106.48 244.18 104.853 244.186 102.651C244.192 100.647 244.676 99.1406 245.547 97.9931C246.412 96.8514 247.729 96.2655 249.486 96.2655C250.95 96.2655 252.066 96.4333 253.235 96.8011C253.235 96.8011 253.516 96.9217 253.649 96.5569C253.749 96.2795 253.84 96.0275 253.93 95.7817C254.118 95.2661 254.296 94.7775 254.52 94.1379C254.614 93.8701 254.384 93.7553 254.301 93.7228C253.84 93.5433 252.754 93.2522 251.933 93.1285C251.165 93.0109 250.268 92.949 249.27 92.949C247.779 92.949 246.45 93.2021 245.313 93.7084C244.18 94.2115 243.217 94.9059 242.455 95.7713C241.694 96.6365 241.115 97.6721 240.728 98.8434C240.344 100.012 240.149 101.295 240.149 102.651C240.149 105.585 240.944 107.957 242.512 109.694C244.082 111.436 246.442 112.321 249.518 112.321C251.337 112.321 253.203 111.954 254.544 111.427C254.544 111.427 254.801 111.303 254.688 111.006L253.817 108.608ZM260.027 100.702C260.195 99.5628 260.511 98.6151 260.998 97.8767C261.733 96.7554 262.855 96.1404 264.432 96.1404C266.009 96.1404 267.051 96.7583 267.798 97.8767C268.294 98.6151 268.51 99.6042 268.595 100.702H260.027ZM271.976 98.1972C271.675 97.0642 270.928 95.9194 270.438 95.3956C269.664 94.5657 268.908 93.9861 268.158 93.6623C267.178 93.2443 266.003 92.9678 264.716 92.9678C263.216 92.9678 261.854 93.2181 260.75 93.7359C259.643 94.2539 258.713 94.9603 257.984 95.8402C257.254 96.717 256.705 97.7617 256.357 98.9476C256.005 100.128 255.828 101.414 255.828 102.77C255.828 104.15 256.011 105.437 256.374 106.593C256.741 107.758 257.325 108.785 258.116 109.636C258.905 110.492 259.921 111.163 261.137 111.631C262.345 112.096 263.812 112.337 265.498 112.334C268.967 112.322 270.795 111.551 271.548 111.136C271.681 111.063 271.808 110.933 271.648 110.563L270.863 108.37C270.745 108.044 270.411 108.164 270.411 108.164C270.336 108.192 270.258 108.222 270.177 108.253C269.326 108.577 268.081 109.052 265.48 109.047C263.617 109.044 262.235 108.497 261.37 107.64C260.481 106.763 260.047 105.474 259.97 103.656L271.985 103.668C271.985 103.668 272.3 103.662 272.333 103.356C272.334 103.347 272.337 103.328 272.34 103.301C272.394 102.913 272.695 100.715 271.976 98.1972ZM163.811 100.702C163.982 99.5628 164.295 98.6151 164.782 97.8767C165.517 96.7554 166.639 96.1404 168.216 96.1404C169.793 96.1404 170.835 96.7583 171.585 97.8767C172.078 98.6151 172.294 99.6042 172.379 100.702H163.811ZM175.757 98.1972C175.456 97.0642 174.712 95.9194 174.222 95.3956C173.448 94.5657 172.692 93.9861 171.942 93.6623C170.962 93.2443 169.787 92.9678 168.5 92.9678C167.003 92.9678 165.639 93.2181 164.534 93.7359C163.427 94.2539 162.497 94.9603 161.768 95.8402C161.039 96.717 160.489 97.7617 160.141 98.9476C159.793 100.128 159.613 101.414 159.613 102.77C159.613 104.15 159.796 105.437 160.159 106.593C160.525 107.758 161.11 108.785 161.901 109.636C162.689 110.492 163.705 111.163 164.921 111.631C166.129 112.096 167.596 112.337 169.282 112.334C172.752 112.322 174.579 111.551 175.332 111.136C175.465 111.063 175.592 110.933 175.433 110.563L174.65 108.37C174.529 108.044 174.196 108.164 174.196 108.164C174.12 108.192 174.042 108.222 173.96 108.253C173.11 108.578 171.866 109.052 169.262 109.047C167.402 109.044 166.02 108.497 165.155 107.64C164.266 106.763 163.832 105.474 163.755 103.656L175.769 103.668C175.769 103.668 176.085 103.662 176.118 103.356C176.118 103.347 176.121 103.328 176.125 103.299C176.178 102.905 176.477 100.711 175.757 98.1972ZM137.842 108.542C137.373 108.168 137.308 108.074 137.149 107.833C136.912 107.465 136.791 106.941 136.791 106.276C136.791 105.222 137.14 104.466 137.863 103.957C137.854 103.96 138.897 103.06 141.347 103.092C143.068 103.115 144.607 103.369 144.607 103.369V108.813H144.61C144.61 108.813 143.083 109.139 141.365 109.242C138.92 109.39 137.834 108.539 137.842 108.542ZM142.623 100.129C142.135 100.093 141.503 100.073 140.748 100.073C139.717 100.073 138.722 100.202 137.789 100.452C136.85 100.702 136.006 101.094 135.279 101.612C134.554 102.127 133.958 102.803 133.537 103.586C133.112 104.375 132.897 105.305 132.897 106.347C132.897 107.406 133.08 108.327 133.446 109.081C133.812 109.837 134.341 110.466 135.014 110.952C135.681 111.438 136.505 111.794 137.461 112.009C138.403 112.223 139.472 112.332 140.641 112.332C141.873 112.332 143.101 112.232 144.291 112.029C145.469 111.829 146.916 111.537 147.317 111.446C147.599 111.379 147.879 111.307 148.159 111.232C148.457 111.158 148.433 110.84 148.433 110.84L148.427 99.8902C148.427 97.4887 147.784 95.7082 146.517 94.6048C145.256 93.5043 143.399 92.9478 140.999 92.9478C140.098 92.9478 138.648 93.0717 137.78 93.2452C137.78 93.2452 135.155 93.7514 134.075 94.593C134.075 94.593 133.839 94.7403 133.968 95.0699L134.819 97.3477C134.925 97.6419 135.212 97.5419 135.212 97.5419C135.212 97.5419 135.303 97.5065 135.41 97.4447C137.721 96.1911 140.644 96.2294 140.644 96.2294C141.944 96.2294 142.942 96.4883 143.615 97.0032C144.27 97.5034 144.604 98.2596 144.604 99.8546V100.361C143.57 100.214 142.623 100.129 142.623 100.129ZM239.522 93.9588C239.613 93.6879 239.421 93.5584 239.342 93.5291C239.138 93.4497 238.116 93.2348 237.328 93.1848C235.819 93.0936 234.981 93.3467 234.231 93.6821C233.487 94.0175 232.66 94.5589 232.199 95.1741V93.7175C232.199 93.5144 232.055 93.3525 231.854 93.3525H228.774C228.574 93.3525 228.429 93.5142 228.429 93.7175V111.577C228.429 111.777 228.594 111.942 228.795 111.942H231.951C232.048 111.942 232.141 111.903 232.209 111.834C232.277 111.766 232.315 111.674 232.314 111.577V102.655C232.314 101.457 232.447 100.262 232.713 99.5119C232.973 98.7702 233.327 98.1759 233.764 97.7491C234.204 97.3253 234.703 97.0282 235.249 96.8605C235.807 96.6897 236.424 96.6338 236.862 96.6338C237.49 96.6338 238.181 96.7955 238.181 96.7955C238.411 96.822 238.542 96.6808 238.618 96.4719C238.825 95.9245 239.41 94.2853 239.522 93.9588Z" fill="white"/>
</svg>
