<svg width="380" height="215" viewBox="0 0 380 215" fill="none" xmlns="http://www.w3.org/2000/svg">
<path d="M253.375 118.093C247.169 118.125 241.774 119.615 237.258 121.818C235.6 118.546 233.943 115.631 233.651 113.493C233.326 110.999 232.936 109.476 233.326 106.496C233.716 103.516 235.47 99.2725 235.438 98.9485C235.405 98.6246 235.048 97.1021 231.473 97.0697C227.899 97.0373 224.812 97.75 224.454 98.6894C224.097 99.6288 223.414 101.767 222.959 103.969C222.342 107.209 215.81 118.773 212.073 124.831C210.871 122.466 209.831 120.393 209.604 118.741C209.279 116.247 208.889 114.724 209.279 111.744C209.669 108.764 211.423 104.52 211.391 104.196C211.358 103.872 211.001 102.35 207.426 102.317C203.852 102.285 200.765 102.998 200.407 103.937C200.05 104.876 199.66 107.079 198.913 109.217C198.165 111.355 189.489 130.661 187.214 135.65C186.044 138.209 185.037 140.25 184.322 141.643C184.322 141.643 184.289 141.74 184.192 141.902C183.575 143.1 183.217 143.748 183.217 143.748C183.217 143.748 183.217 143.748 183.217 143.781C182.73 144.655 182.21 145.465 181.95 145.465C181.755 145.465 181.397 143.133 182.015 139.958C183.315 133.253 186.402 122.822 186.369 122.466C186.369 122.272 186.954 120.458 184.354 119.518C181.82 118.579 180.91 120.134 180.682 120.134C180.455 120.134 180.292 120.684 180.292 120.684C180.292 120.684 183.12 108.958 174.898 108.958C169.764 108.958 162.68 114.562 159.17 119.615C156.96 120.814 152.249 123.373 147.212 126.126C145.294 127.195 143.312 128.264 141.46 129.269C141.33 129.139 141.2 128.977 141.07 128.847C131.126 118.255 112.734 110.772 113.514 96.5514C113.806 91.3685 115.593 77.7634 148.837 61.2428C176.198 47.7997 197.97 51.5249 201.74 59.7852C207.134 71.5763 190.074 93.4741 161.802 96.6486C151.014 97.8472 145.359 93.7008 143.93 92.146C142.435 90.5263 142.207 90.4291 141.655 90.7531C140.745 91.239 141.33 92.6966 141.655 93.5389C142.5 95.7416 145.977 99.6288 151.859 101.54C157.058 103.224 169.699 104.164 185.004 98.2683C202.13 91.6601 215.518 73.2931 211.586 57.9063C207.654 42.2928 181.657 37.1423 157.058 45.8561C142.435 51.039 126.577 59.2021 115.171 69.827C101.62 82.4604 99.4754 93.4417 100.353 98.0415C103.505 114.368 126.089 124.993 135.123 132.864C134.668 133.123 134.246 133.35 133.888 133.544C129.372 135.78 112.149 144.753 107.859 154.244C102.985 164.998 108.639 172.708 112.376 173.744C123.977 176.951 135.903 171.185 142.305 161.662C148.707 152.138 147.927 139.764 144.97 134.095C144.937 134.03 144.905 133.966 144.84 133.901C146.009 133.221 147.212 132.508 148.382 131.828C150.689 130.467 152.964 129.204 154.913 128.167C153.808 131.18 152.996 134.775 152.606 139.958C152.119 146.048 154.621 153.952 157.903 157.062C159.365 158.422 161.087 158.455 162.192 158.455C166.027 158.455 167.749 155.28 169.666 151.523C172.006 146.923 174.118 141.578 174.118 141.578C174.118 141.578 171.486 156.025 178.635 156.025C181.235 156.025 183.867 152.656 185.037 150.94C185.037 150.972 185.037 150.972 185.037 150.972C185.037 150.972 185.102 150.875 185.232 150.648C185.492 150.227 185.654 149.968 185.654 149.968C185.654 149.968 185.654 149.935 185.654 149.903C186.694 148.089 189.034 143.975 192.511 137.14C196.995 128.329 201.317 117.315 201.317 117.315C201.317 117.315 201.707 120.004 203.04 124.474C203.819 127.098 205.444 129.981 206.744 132.767C205.704 134.225 205.054 135.035 205.054 135.035C205.054 135.035 205.054 135.035 205.087 135.067C204.242 136.168 203.332 137.367 202.325 138.533C198.783 142.744 194.558 147.571 193.973 148.964C193.291 150.616 193.453 151.814 194.753 152.786C195.695 153.499 197.385 153.596 199.108 153.499C202.292 153.272 204.534 152.495 205.639 152.009C207.361 151.393 209.376 150.454 211.261 149.061C214.738 146.502 216.85 142.841 216.655 138.015C216.558 135.358 215.68 132.702 214.608 130.208C214.933 129.754 215.225 129.301 215.55 128.847C221.042 120.846 225.299 112.068 225.299 112.068C225.299 112.068 225.689 114.756 227.021 119.227C227.671 121.494 229.004 123.956 230.173 126.353C225.007 130.532 221.822 135.391 220.685 138.565C218.637 144.461 220.23 147.117 223.252 147.733C224.617 148.024 226.566 147.376 227.996 146.761C229.816 146.178 231.961 145.174 234.008 143.684C237.485 141.124 240.832 137.561 240.637 132.735C240.54 130.532 239.955 128.362 239.142 126.256C243.529 124.442 249.184 123.438 256.398 124.28C271.866 126.094 274.92 135.715 274.335 139.764C273.75 143.813 270.501 146.016 269.428 146.696C268.356 147.376 267.999 147.603 268.096 148.089C268.226 148.802 268.746 148.769 269.656 148.64C270.923 148.413 277.78 145.368 278.072 137.918C278.56 128.394 269.461 117.996 253.375 118.093ZM134.051 158.196C128.917 163.767 121.768 165.873 118.68 164.091C115.366 162.18 116.666 153.952 122.97 148.057C126.804 144.461 131.744 141.124 135.026 139.084C135.773 138.63 136.878 137.982 138.21 137.173C138.438 137.043 138.568 136.978 138.568 136.978C138.828 136.816 139.088 136.654 139.348 136.492C141.655 144.914 139.445 152.333 134.051 158.196ZM171.421 132.864C169.634 137.205 165.897 148.316 163.622 147.7C161.672 147.182 160.47 138.76 163.232 130.435C164.629 126.256 167.587 121.267 169.309 119.324C172.104 116.214 175.191 115.178 175.938 116.441C176.88 118.093 172.526 130.143 171.421 132.864ZM202.26 147.571C201.512 147.959 200.797 148.219 200.472 148.024C200.245 147.895 200.797 147.376 200.797 147.376C200.797 147.376 204.664 143.23 206.192 141.351C207.069 140.25 208.109 138.954 209.214 137.496C209.214 137.626 209.214 137.788 209.214 137.918C209.214 142.874 204.404 146.21 202.26 147.571ZM226.047 142.161C225.494 141.772 225.592 140.477 227.444 136.427C228.159 134.84 229.849 132.184 232.741 129.625C233.066 130.661 233.293 131.666 233.261 132.605C233.228 138.857 228.744 141.189 226.047 142.161Z" fill="white"/>
</svg>
