<svg width="380" height="215" viewBox="0 0 380 215" fill="none" xmlns="http://www.w3.org/2000/svg">
<g clip-path="url(#clip0_623_1726)">
<path fill-rule="evenodd" clip-rule="evenodd" d="M115.553 98.2578C112.437 98.2578 109.766 99.3815 107.54 101.179V98.7073H99.9731V127.699H107.763V109.27C108.876 107.697 111.546 105.674 114.885 105.674C115.998 105.674 117.111 105.899 118.001 106.124V98.7073C117.111 98.4826 116.22 98.2578 115.553 98.2578Z" fill="white"/>
<path fill-rule="evenodd" clip-rule="evenodd" d="M48.561 118.705C50.5641 120.503 53.68 121.627 56.3507 121.627C58.3538 121.627 60.1343 120.503 60.1343 119.155C60.1343 114.66 46.1128 116.233 46.1128 107.018C46.1128 101.4 51.4543 98.0286 57.0184 98.0286C60.802 98.0286 64.8081 99.377 66.8112 100.95L63.2502 106.569C61.6922 105.67 59.9117 104.546 57.6861 104.546C55.4605 104.546 53.9025 105.445 53.9025 107.018C53.9025 110.839 67.924 109.266 67.924 119.379C67.924 124.998 62.5825 128.369 56.5733 128.369C52.5672 128.369 48.3384 127.021 45 124.548L48.561 118.705Z" fill="white"/>
<path fill-rule="evenodd" clip-rule="evenodd" d="M96.6347 112.862C96.6347 104.771 91.0706 98.0286 83.0584 98.0286C74.6009 98.0286 69.0369 105.22 69.0369 113.086C69.0369 122.301 75.4912 128.144 83.9486 128.144C88.3999 128.144 92.8511 126.346 95.7445 122.975L91.2932 118.48C89.9578 120.054 87.2871 121.851 84.1712 121.851C80.165 121.851 76.8266 118.93 76.3815 114.884H96.1896C96.6347 114.435 96.6347 113.761 96.6347 112.862ZM77.0491 109.491C77.4943 106.794 80.165 104.321 83.2809 104.321C86.3968 104.321 88.6224 106.794 89.0676 109.491H77.0491Z" fill="white"/>
<path fill-rule="evenodd" clip-rule="evenodd" d="M151.83 98.7075L138.699 127.7H133.358L120.226 98.7075H128.016L136.028 116.462L143.818 98.7075H151.83Z" fill="white"/>
<path fill-rule="evenodd" clip-rule="evenodd" d="M158.285 84.9982C161.178 84.9982 163.404 87.2456 163.404 89.9425C163.404 92.8642 161.178 94.8869 158.285 94.8869C155.391 94.8869 153.388 92.6395 153.388 89.9425C153.388 87.0209 155.391 84.9982 158.285 84.9982Z" fill="white"/>
<path d="M162.291 98.7073H154.501V127.699H162.291V98.7073Z" fill="white"/>
<path fill-rule="evenodd" clip-rule="evenodd" d="M193.895 121.627C190.556 126.122 186.328 128.144 180.986 128.144C172.084 128.144 165.629 121.402 165.629 113.086C165.629 104.546 172.306 98.0286 180.986 98.0286C186.105 98.0286 190.334 100.501 193.005 103.872L187.886 108.592C186.328 106.569 184.102 105.22 181.431 105.22C176.98 105.22 173.642 108.816 173.642 113.086C173.642 117.581 176.758 120.952 181.431 120.952C184.547 120.952 186.995 119.155 188.331 117.132L193.895 121.627Z" fill="white"/>
<path fill-rule="evenodd" clip-rule="evenodd" d="M221.715 122.975C218.822 126.346 214.371 128.144 209.919 128.144C201.462 128.144 195.008 122.301 195.008 113.086C195.008 104.996 200.349 98.0286 209.029 98.0286C216.819 98.0286 222.605 104.771 222.605 112.862C222.605 113.761 222.605 114.435 222.383 115.109H202.352C202.797 119.155 206.136 122.076 210.142 122.076C213.258 122.076 215.929 120.278 217.264 118.705L221.715 122.975ZM214.593 109.491C214.371 107.018 212.145 104.321 208.806 104.321C205.691 104.321 203.02 106.794 202.575 109.491H214.593Z" fill="white"/>
<path fill-rule="evenodd" clip-rule="evenodd" d="M225.499 127.695V98.7028H232.843V101.175C235.069 99.377 237.74 98.2533 240.856 98.2533C244.862 98.2533 248.423 100.051 250.871 102.973C252.652 105.22 253.987 108.142 253.987 113.086V127.92H246.197V112.412C246.197 109.491 245.529 107.917 244.417 107.018C243.304 105.895 241.968 105.22 239.965 105.22C236.85 105.22 234.179 107.243 232.843 108.816V127.695H225.499Z" fill="white"/>
<path fill-rule="evenodd" clip-rule="evenodd" d="M273.795 98.0331C264.447 98.0331 257.103 105.45 257.103 114.889C257.103 119.833 259.106 124.328 262.222 127.475C263.335 128.598 265.338 128.598 266.673 127.699C268.454 126.126 271.124 125.227 273.795 125.227C276.688 125.227 278.914 126.126 280.917 127.699C282.252 128.823 284.033 128.598 285.368 127.25C288.484 124.103 290.487 119.833 290.487 114.889C290.265 105.674 282.92 98.0331 273.795 98.0331ZM273.572 123.654C268.454 123.654 265.115 119.833 265.115 115.114C265.115 110.394 268.454 106.573 273.572 106.573C278.691 106.573 282.03 110.394 282.03 115.114C282.03 119.833 278.691 123.654 273.572 123.654Z" fill="#C2CFF7"/>
<path fill-rule="evenodd" clip-rule="evenodd" d="M288.484 98.7075H296.052L302.283 115.339L308.515 98.7075H314.969L320.979 115.339L327.21 98.7075H335L323.649 127.7H317.863L311.631 111.293L305.622 127.7H299.835L288.484 98.7075Z" fill="white"/>
</g>
<defs>
<clipPath id="clip0_623_1726">
<rect width="290" height="43.4299" fill="white" transform="translate(45 85)"/>
</clipPath>
</defs>
</svg>
