<svg width="380" height="215" viewBox="0 0 380 215" fill="none" xmlns="http://www.w3.org/2000/svg">
<path d="M108.261 81.6907C107.977 81.6907 102.009 81.1224 102.009 81.1224C102.009 81.1224 97.7462 76.8596 97.1778 76.5754C96.8936 76.2912 96.8936 76.2912 96.6095 76.2912L93.1992 146.201L117.639 140.802C117.639 140.802 109.114 82.8275 109.114 82.2591C109.114 81.9749 108.545 81.6907 108.261 81.6907Z" fill="#5A863E"/>
<path fill-rule="evenodd" clip-rule="evenodd" d="M81.1455 70.1016C80.811 69.9085 80.5472 69.7562 80.1311 69.7562C72.7423 69.7562 68.7637 79.4186 66.7744 85.1023L73.0265 83.3972C74.7316 75.44 78.1418 71.7456 81.5521 70.3246C81.3998 70.2485 81.2679 70.1723 81.1455 70.1016ZM84.3939 79.4186C84.3939 76.2925 83.8256 74.3032 83.2572 72.5981C80.6995 73.7349 77.8577 76.2925 76.1525 82.2605L84.3939 79.987V79.4186ZM86.9516 78.8502L90.646 77.7135C89.7935 74.8716 88.0884 72.3139 86.0991 71.7456C86.6674 73.4507 86.9516 75.44 86.9516 77.9977V78.8502ZM108.55 81.6921C108.834 81.6921 109.118 81.9763 109.118 82.2605C109.118 82.8288 117.644 140.803 117.644 140.803L93.2037 146.202L48.0181 137.677C48.0181 137.677 53.7018 92.7754 53.986 91.3544C53.9911 91.3184 53.9962 91.2828 54.0012 91.2479C54.2709 89.3547 54.3114 89.0706 56.5437 88.5126C57.197 88.2948 57.8318 88.077 58.4527 87.864C60.2628 87.243 61.9556 86.6623 63.6483 86.2391C65.3534 79.7028 70.1846 66.9144 80.4153 67.1986C81.8363 67.1986 83.5414 67.7669 84.6781 69.4721H84.9623C89.2251 69.4721 91.7828 73.1665 93.2037 77.1451C94.6247 76.5767 95.4772 76.2925 95.4772 76.2925C95.5341 76.2925 95.6136 76.2812 95.7091 76.2675C96.0911 76.213 96.7276 76.122 97.1823 76.5767C97.7507 76.8609 102.014 81.1237 102.014 81.1237C102.014 81.1237 107.981 81.6921 108.55 81.6921ZM81.8334 104.427L84.9595 95.3333C84.9595 95.3333 82.9702 93.9123 78.139 94.1965C67.6241 94.1965 62.2246 101.301 62.2246 108.69C62.2246 113.631 64.9961 115.891 67.4301 117.875C69.3357 119.428 71.0343 120.813 71.0343 123.184C71.0343 124.604 70.1818 126.31 67.9083 126.31C64.4981 126.31 60.5194 122.899 60.5194 122.899L58.5301 129.72C58.5301 129.72 62.5088 134.551 70.1818 134.551C76.7181 134.551 81.5493 129.72 81.5493 122.047C81.5493 116.161 77.5424 113.228 74.41 110.935C72.4001 109.464 70.7502 108.256 70.7502 106.701C70.7502 105.848 71.0343 103.006 75.8655 103.006C79.2758 103.006 81.8334 104.427 81.8334 104.427Z" fill="white"/>
<path d="M146.347 112.102C143.789 110.681 142.652 109.544 142.652 108.123C142.652 106.134 144.357 104.997 147.199 104.997C150.325 104.997 153.167 106.418 153.167 106.418L155.441 99.5978C155.441 99.5978 153.451 97.8927 147.483 97.8927C138.958 97.8927 133.274 102.724 133.274 109.544C133.274 113.523 136.116 116.365 139.526 118.354C142.368 120.059 143.505 121.196 143.505 122.901C143.505 124.606 142.084 126.311 139.242 126.311C135.263 126.311 131.285 124.322 131.285 124.322L129.011 131.143C129.011 131.143 132.421 133.416 138.389 133.416C146.915 133.416 153.167 129.153 153.167 121.48C153.167 117.217 150.041 114.091 146.347 112.102ZM180.733 97.6085C176.47 97.6085 173.06 99.5978 170.502 102.724L174.197 83.3992H164.535L155.156 132.563H164.819L167.945 115.796C169.082 109.544 172.492 105.566 175.618 105.566C177.891 105.566 178.744 106.987 178.744 109.26C178.744 110.681 178.744 112.102 178.46 113.523L174.765 132.848H184.428L188.122 112.955C188.406 110.965 188.69 108.408 188.69 106.702C188.69 101.019 185.849 97.6085 180.733 97.6085ZM205.457 125.743C202.047 125.743 200.91 122.901 200.91 119.491C200.91 114.091 203.752 104.997 208.868 104.997C212.278 104.997 213.415 107.839 213.415 110.681C213.415 116.933 210.573 125.743 205.457 125.743ZM210.289 97.6085C198.637 97.6085 190.964 108.123 190.964 119.775C190.964 127.164 195.511 133.132 204.321 133.132C215.688 133.132 223.361 122.901 223.361 110.965C223.361 104.145 219.383 97.6085 210.289 97.6085ZM238.707 126.027C236.15 126.027 234.729 124.606 234.729 124.606L236.434 115.512C237.571 109.544 240.697 105.566 244.107 105.566C246.949 105.566 248.085 108.408 248.085 110.965C247.801 117.217 244.107 126.027 238.707 126.027ZM248.085 97.6085C241.549 97.6085 237.855 103.292 237.855 103.292L238.423 98.1769H229.897C229.613 101.587 228.761 106.987 227.908 110.965L221.088 146.204H230.75L233.308 131.995H233.592C233.592 131.995 235.581 133.132 239.276 133.132C250.643 133.132 258.032 121.48 258.032 109.829C258.032 103.576 255.19 97.6085 248.085 97.6085ZM271.673 83.9676C268.547 83.9676 266.273 86.5252 266.273 89.6513C266.273 92.4932 267.978 94.4825 270.82 94.4825C273.946 94.4825 276.504 92.4932 276.504 88.7987C276.504 85.9569 274.515 83.9676 271.673 83.9676ZM258.316 132.563H267.978L274.515 98.4611H264.852L258.316 132.563ZM298.955 98.4611H292.134L292.418 96.756C292.987 93.3457 294.976 90.5039 298.102 90.5039C299.807 90.5039 301.228 91.0722 301.228 91.0722L303.218 83.3992C303.218 83.3992 301.512 82.5466 298.102 82.5466C294.692 82.5466 291.282 83.3992 288.724 85.6727C285.314 88.5145 283.893 92.4932 283.04 96.4718L282.756 98.1769H278.209L276.788 105.566H281.335L276.22 132.563H285.882L290.998 105.566H297.534L298.955 98.4611ZM321.974 98.4611C321.974 98.4611 316.006 113.523 313.164 121.764C312.88 119.207 310.891 98.4611 310.891 98.4611H300.66L306.344 129.722C306.344 130.29 306.344 130.858 306.059 131.427C304.923 133.7 302.933 135.69 300.944 137.11C299.239 138.531 296.965 139.384 295.545 139.952L298.102 148.194C300.092 147.91 304.07 146.204 307.48 143.078C311.743 139.1 316.006 132.563 319.985 124.038L331.636 98.7453L321.974 98.4611Z" fill="white"/>
</svg>
