<svg width="380" height="215" viewBox="0 0 380 215" fill="none" xmlns="http://www.w3.org/2000/svg">
<path d="M229.076 165.315C211.375 175.546 187.037 176.597 162.55 166.097C142.724 157.657 126.273 142.884 115.727 126.005C120.789 130.225 126.695 133.602 133.022 136.554C158.31 148.413 183.592 147.601 201.384 136.585C201.373 136.573 201.365 136.566 201.358 136.554C176.048 117.14 154.535 91.8176 138.506 71.1399C135.13 67.7633 132.599 63.5427 130.068 59.7445C149.472 77.4699 180.267 99.8364 191.232 106.17C168.035 81.6897 147.364 51.3049 148.206 52.1474C184.905 89.2869 219.075 110.39 219.075 110.39C220.205 111.027 221.078 111.558 221.779 112.033C222.519 110.151 223.168 108.196 223.714 106.17C229.619 84.6459 222.872 60.1657 208.106 39.9092C242.272 60.5889 262.522 99.4152 254.083 131.914C253.863 132.79 253.624 133.655 253.366 134.506C253.465 134.623 253.563 134.745 253.662 134.87C270.533 155.973 265.894 178.339 263.785 174.119C254.633 156.2 237.69 161.68 229.076 165.315Z" fill="white"/>
</svg>
