<svg width="380" height="215" viewBox="0 0 380 215" fill="none" xmlns="http://www.w3.org/2000/svg">
<g clip-path="url(#clip0_323_289)">
<path d="M72.4315 143.916C50.9999 143.916 33.6262 126.699 33.6262 105.46C33.6262 84.2217 50.9999 67.0043 72.4315 67.0043C93.8631 67.0043 111.237 84.2217 111.237 105.46C111.237 126.699 93.8631 143.916 72.4315 143.916ZM89.3971 81.2335C85.456 81.3705 82.0126 83.524 79.4538 86.5022C76.6159 89.7681 74.7303 93.6435 73.3701 97.5971C70.9385 95.6217 69.0627 93.0654 65.1617 91.9503C62.144 91.0914 58.9785 91.4448 56.0658 93.5956C54.6849 94.6175 53.7352 96.1614 53.2832 97.6121C52.1109 101.385 54.5121 104.743 55.6041 105.949L57.9887 108.478C58.4808 108.976 59.6627 110.271 59.0863 112.128C58.4601 114.148 56.005 115.454 53.485 114.685C52.3598 114.34 50.7424 113.511 51.106 112.344C51.2553 111.865 51.6009 111.504 51.7875 111.095C51.9575 110.739 52.0377 110.473 52.0888 110.317C52.5491 108.826 51.9202 106.889 50.3111 106.397C48.8085 105.943 47.2741 106.304 46.6783 108.218C46.001 110.397 47.0529 114.344 52.6832 116.066C59.2798 118.076 64.8604 114.514 65.6511 109.873C66.1501 106.966 64.823 104.804 62.397 102.025L60.4202 99.8588C59.2217 98.6711 58.8112 96.6505 60.0498 95.0984C61.0962 93.7874 62.585 93.2284 65.0276 93.8846C68.5899 94.8408 70.1783 97.2916 72.8268 99.2684C71.7334 102.823 71.0173 106.392 70.3718 109.595L69.975 111.978C68.0798 121.822 66.6353 127.227 62.8781 130.33C62.1219 130.865 61.0382 131.663 59.4084 131.719C58.5527 131.746 58.2776 131.163 58.2638 130.908C58.2444 130.313 58.7518 130.041 59.0877 129.773C59.5895 129.501 60.3484 129.051 60.2972 127.612C60.2405 125.905 58.8167 124.428 56.7598 124.498C55.2157 124.549 52.8671 125.986 52.9556 128.621C53.0468 131.339 55.6041 133.379 59.4609 133.248C61.5234 133.18 66.1266 132.349 70.6621 127.005C75.9413 120.877 77.419 113.854 78.5304 108.714L79.769 101.929C80.4588 102.01 81.1942 102.066 81.996 102.084C88.5718 102.223 91.8604 98.8464 91.9116 96.3916C91.9434 94.9052 90.9273 93.4435 89.5035 93.4764C88.4861 93.5052 87.206 94.1764 86.8992 95.571C86.5992 96.9409 88.992 98.1765 87.1217 99.378C85.7933 100.231 83.4115 100.831 80.0579 100.344L80.6689 97.0025C81.9116 90.6681 83.4488 82.8761 89.2726 82.6884C89.697 82.6665 91.2508 82.7076 91.2867 83.724C91.2964 84.0638 91.2121 84.1514 90.8112 84.9296C90.4006 85.5351 90.2472 86.0515 90.2652 86.646C90.3232 88.2625 91.5632 89.3256 93.3589 89.2626C95.76 89.1845 96.4512 86.868 96.4125 85.6762C96.313 82.8747 93.3354 81.1075 89.3971 81.2335Z" fill="white"/>
<path d="M268.911 94.6399C277.86 94.6399 283.858 101.047 283.858 109.91C283.858 118.263 277.742 125.179 268.911 125.179C260.025 125.179 253.909 118.263 253.909 109.91C253.909 101.047 259.906 94.6399 268.911 94.6399ZM268.911 120.839C275.26 120.839 278.085 115.119 278.085 109.91C278.085 104.365 274.68 98.9894 268.911 98.9894C263.083 98.9894 259.676 104.365 259.676 109.91C259.676 115.119 262.506 120.839 268.911 120.839ZM253.166 97.3551V95.3263H245.372V92.5536C245.372 88.6069 245.951 85.6287 250.622 85.6287C250.708 85.6287 250.799 85.6369 250.889 85.641C250.899 85.641 250.896 85.626 250.907 85.626C252.203 85.7191 253.284 84.6739 253.356 83.3889L253.45 81.6272C252.354 81.4546 251.197 81.2847 249.815 81.2847C241.793 81.2847 239.948 85.9178 239.948 93.0111V95.3263H233.015V97.5907C233.193 98.7647 234.208 99.6702 235.445 99.6702C235.451 99.6702 235.458 99.6757 235.465 99.6757H239.948V124.497H242.933C242.94 124.497 242.936 124.497 242.943 124.497C244.187 124.497 245.202 123.568 245.371 122.386V99.6757H250.798C252.075 99.6333 253.102 98.6209 253.166 97.3551ZM180.902 95.3263C180.894 95.3263 180.887 95.3331 180.873 95.3331C179.731 95.3331 178.624 96.1112 178.14 97.1647L170.677 119.464H170.561L163.26 97.1756C162.782 96.1167 161.671 95.3317 160.521 95.3317C160.507 95.3317 160.503 95.3249 160.491 95.3249H156.708L166.693 122.55C167.041 123.524 167.735 125.012 167.735 125.638C167.735 126.214 166.118 132.844 161.267 132.844C161.148 132.844 161.026 132.83 160.909 132.822C159.672 132.755 158.737 133.611 158.531 134.93L158.383 136.792C159.365 136.963 160.349 137.193 162.08 137.193C169.235 137.193 171.371 130.726 173.393 125.123L184.24 95.3235H180.902V95.3263ZM146.415 101.251C141.936 98.9798 137.033 97.4359 136.947 92.8659C136.961 88.0123 141.462 86.737 144.929 86.7411C144.946 86.7383 144.959 86.7383 144.968 86.7383C146.474 86.7383 147.678 86.8863 148.855 87.1424C148.87 87.1424 148.867 87.1233 148.885 87.1233C150.129 87.2137 151.173 86.2506 151.318 85.0369L151.418 83.2738C149.144 82.7149 146.768 82.4286 144.7 82.4286C137.159 82.4752 131.559 86.2356 131.541 93.4125C131.549 99.6867 135.815 102.118 140.407 104.321C144.908 106.466 149.836 108.236 149.879 113.416C149.854 118.817 144.593 120.808 140.967 120.816C138.847 120.808 136.545 120.286 134.604 119.679C133.389 119.48 132.392 120.543 132.233 121.95L132.07 123.52C134.737 124.374 137.47 125.12 140.219 125.12H140.225C140.232 125.12 140.241 125.12 140.25 125.12C148.699 125.059 155.265 121.72 155.291 113.05C155.281 106.362 150.984 103.553 146.415 101.251ZM228.467 124.497C228.471 124.497 228.474 124.497 228.474 124.497C229.645 124.497 230.622 123.681 230.867 122.594V105.794C230.867 99.4442 228.16 94.6386 220.653 94.6386C217.999 94.6386 213.556 96.129 211.535 100.303C209.978 96.3564 206.572 94.6386 203.17 94.6386C198.839 94.6386 195.895 96.1825 193.819 99.5593H193.702V97.7455C193.686 96.4099 192.595 95.3317 191.246 95.3317C191.234 95.3317 191.228 95.3249 191.22 95.3249H188.625V124.496H191.561C191.565 124.496 191.568 124.496 191.568 124.496C192.928 124.496 194.029 123.401 194.029 122.056C194.029 122.019 194.041 122.005 194.054 121.981V109.795C194.054 104.364 196.245 98.988 201.784 98.988C206.167 98.988 207.039 103.505 207.039 107.109V124.494H210.016C210.016 124.494 210.018 124.494 210.024 124.494C211.309 124.494 212.345 123.515 212.46 122.271V109.795C212.46 104.364 214.655 98.988 220.194 98.988C224.58 98.988 225.447 103.505 225.447 107.109V124.494H228.467V124.497ZM312.304 124.497C312.304 124.497 312.307 124.497 312.311 124.497C313.634 124.497 314.7 123.461 314.762 122.164V107.166C314.762 99.3319 311.353 94.6386 303.735 94.6386C299.637 94.6386 295.716 96.6427 294.096 99.962H293.982V97.7825C293.982 97.7825 293.977 97.7798 293.977 97.7743C293.977 96.4222 292.872 95.3317 291.518 95.3317C291.502 95.3317 291.5 95.3249 291.49 95.3249H288.728V124.496H291.71C291.71 124.496 291.71 124.496 291.715 124.496C293.006 124.496 294.053 123.5 294.152 122.245V110.997C294.152 103.906 296.925 98.988 303.1 98.988C307.838 99.2716 309.33 102.587 309.33 109.395V124.494H312.304V124.497ZM341.51 95.3263C341.496 95.3263 341.491 95.3331 341.48 95.3331C340.337 95.3331 339.228 96.1112 338.745 97.1647L331.285 119.464H331.163L323.862 97.1756C323.383 96.1167 322.272 95.3317 321.125 95.3317C321.114 95.3317 321.107 95.3249 321.097 95.3249H317.314L327.3 122.55C327.645 123.524 328.343 125.012 328.343 125.638C328.343 126.214 326.725 132.844 321.873 132.844C321.755 132.844 321.636 132.83 321.515 132.822C320.277 132.755 319.347 133.611 319.134 134.93L318.989 136.792C319.969 136.963 320.955 137.193 322.687 137.193C329.842 137.193 331.976 130.726 334 125.123L344.85 95.3235H341.51V95.3263Z" fill="white"/>
</g>
<defs>
<clipPath id="clip0_323_289">
<rect width="380" height="214.182" fill="white"/>
</clipPath>
</defs>
</svg>
