<svg width="380" height="215" viewBox="0 0 380 215" fill="none" xmlns="http://www.w3.org/2000/svg">
<path d="M214.396 101.426H203.117V102.64C206.645 102.64 207.212 103.408 207.212 107.95V116.14C207.212 120.681 206.645 121.513 203.117 121.513C200.408 121.13 198.58 119.658 196.06 116.843L193.161 113.645C197.068 112.94 199.147 110.446 199.147 107.63C199.147 104.113 196.186 101.426 190.641 101.426H179.551V102.64C183.079 102.64 183.646 103.408 183.646 107.95V116.14C183.646 120.681 183.079 121.513 179.551 121.513V122.729H192.09V121.513C188.562 121.513 187.994 120.681 187.994 116.14V113.837H189.065L196.06 122.729H214.396C223.406 122.729 227.313 117.867 227.313 112.045C227.313 106.223 223.407 101.426 214.396 101.426ZM187.995 111.852V103.345H190.578C193.413 103.345 194.674 105.328 194.674 107.631C194.674 109.87 193.413 111.853 190.578 111.853L187.995 111.852ZM214.585 120.746H214.144C211.876 120.746 211.561 120.17 211.561 117.227V103.345C211.561 103.345 214.333 103.345 214.585 103.345C221.138 103.345 222.335 108.206 222.335 111.981C222.335 115.883 221.138 120.746 214.585 120.746ZM145.324 113.54L149.673 101.041C150.935 97.4268 150.367 96.3857 146.333 96.3857V95.1599H158.183V96.3857C154.212 96.3857 153.267 97.3045 151.691 101.777L144.504 122.729H143.685L137.255 103.553L130.7 122.729H129.88L122.883 101.777C121.371 97.3045 120.362 96.3857 116.706 96.3857V95.1599H130.7V96.3857C126.98 96.3857 125.971 97.2431 127.296 101.041L131.519 113.54L137.886 95.1599H139.084L145.324 113.54ZM166.353 122.729C159.786 122.729 154.413 117.64 154.413 111.419C154.413 105.262 159.787 100.172 166.353 100.172C172.921 100.172 178.294 105.262 178.294 111.419C178.294 117.64 172.921 122.729 166.353 122.729ZM166.353 102.122C160.861 102.122 158.95 107.336 158.95 111.42C158.95 115.567 160.861 120.719 166.353 120.719C171.906 120.719 173.817 115.567 173.817 111.42C173.817 107.336 171.906 102.122 166.353 102.122ZM241.43 120.26V121.475H227.313V120.26C231.443 120.26 232.183 119.227 232.183 113.149V103.426C232.183 97.3477 231.443 96.3759 227.313 96.3759V95.1599H240.073C246.422 95.1599 249.937 98.381 249.937 102.697C249.937 106.89 246.422 110.172 240.073 110.172H236.559V113.148C236.559 119.227 237.299 120.26 241.43 120.26ZM240.073 97.3477H236.559V107.923H240.073C243.526 107.923 245.128 105.553 245.128 102.697C245.128 99.7796 243.526 97.3477 240.073 97.3477ZM291.755 116.715L291.449 117.867C290.9 119.978 290.227 120.746 285.89 120.746H285.034C281.858 120.746 281.308 119.978 281.308 115.436V112.493C286.073 112.493 286.44 112.941 286.44 116.268H287.601V106.735H286.44C286.44 110.062 286.073 110.509 281.308 110.509V103.345H284.668C289.006 103.345 289.677 104.113 290.227 106.224L290.533 107.439H291.51L291.083 101.426H273.123V102.64C276.543 102.64 277.093 103.408 277.093 107.95V116.14C277.093 120.295 276.626 121.341 273.929 121.491C271.366 121.081 269.606 119.616 267.198 116.843L264.388 113.645C268.176 112.94 270.192 110.446 270.192 107.63C270.192 104.113 267.321 101.426 261.945 101.426H251.194V102.64C254.614 102.64 255.164 103.408 255.164 107.95V116.14C255.164 120.681 254.615 121.513 251.194 121.513V122.729H263.351V121.513C259.93 121.513 259.38 120.681 259.38 116.14V113.837H260.418L267.199 122.729H292.305L292.672 116.716L291.755 116.715ZM259.379 111.852V103.345H261.883C264.632 103.345 265.855 105.328 265.855 107.631C265.855 109.87 264.632 111.853 261.883 111.853L259.379 111.852ZM305.333 122.729C302.89 122.729 300.752 121.41 299.836 120.592C299.531 120.907 298.982 121.849 298.86 122.729H297.699V114.059H298.921C299.41 118.205 302.218 120.656 305.821 120.656C307.775 120.656 309.363 119.525 309.363 117.64C309.363 116.007 307.959 114.75 305.455 113.556L301.974 111.86C299.531 110.665 297.699 108.592 297.699 105.828C297.699 102.812 300.447 100.236 304.234 100.236C306.249 100.236 307.958 100.99 308.997 101.87C309.302 101.618 309.607 100.927 309.791 100.172H310.951V107.587H309.668C309.241 104.634 307.653 102.183 304.417 102.183C302.707 102.183 301.119 103.189 301.119 104.76C301.119 106.393 302.401 107.273 305.333 108.655L308.691 110.352C311.623 111.797 312.782 114.122 312.782 116.007C312.782 119.965 309.424 122.729 305.333 122.729ZM324.187 122.729C321.743 122.729 319.606 121.41 318.69 120.592C318.385 120.907 317.836 121.849 317.714 122.729H316.553V114.059H317.775C318.263 118.205 321.072 120.656 324.675 120.656C326.629 120.656 328.217 119.525 328.217 117.64C328.217 116.007 326.813 114.75 324.308 113.556L320.828 111.86C318.385 110.665 316.553 108.592 316.553 105.828C316.553 102.812 319.301 100.236 323.087 100.236C325.102 100.236 326.812 100.99 327.85 101.87C328.155 101.618 328.461 100.927 328.643 100.172H329.804V107.587H328.522C328.094 104.634 326.507 102.183 323.271 102.183C321.561 102.183 319.972 103.189 319.972 104.76C319.972 106.393 321.255 107.273 324.187 108.655L327.544 110.352C330.476 111.797 331.636 114.122 331.636 116.007C331.636 119.965 328.277 122.729 324.187 122.729ZM54.6284 108.193C54.6284 119.001 60.9286 128.342 70.0644 132.768L56.9996 97.0801C55.4799 100.476 54.6284 104.234 54.6284 108.193ZM100.507 106.815C100.507 103.44 99.2907 101.103 98.2479 99.2842C96.8595 97.0349 95.5582 95.1301 95.5582 92.8808C95.5582 90.3707 97.4677 88.0341 100.157 88.0341C100.279 88.0341 100.394 88.0492 100.512 88.0559C95.6395 83.6051 89.1475 80.8877 82.0171 80.8877C72.4487 80.8877 64.0305 85.7822 59.1332 93.1957C59.7758 93.2149 60.3814 93.2284 60.8957 93.2284C63.7605 93.2284 68.195 92.8818 68.195 92.8818C69.6714 92.795 69.8455 94.957 68.3706 95.1311C68.3706 95.1311 66.8869 95.3052 65.2359 95.3914L75.2097 124.969L81.2035 107.047L76.9363 95.3904C75.4615 95.3041 74.0643 95.1301 74.0643 95.1301C72.5883 95.0438 72.7614 92.794 74.2373 92.8808C74.2373 92.8808 78.7604 93.2273 81.4516 93.2273C84.3159 93.2273 88.7509 92.8808 88.7509 92.8808C90.2283 92.794 90.4019 94.956 88.9265 95.1301C88.9265 95.1301 87.4397 95.3041 85.7918 95.3904L95.6895 124.744L98.4214 115.642C99.6055 111.865 100.507 109.153 100.507 106.815Z" fill="white"/>
<path d="M82.4987 110.582L74.2811 134.388C76.7347 135.108 79.3295 135.501 82.0182 135.501C85.2076 135.501 88.2663 134.951 91.1133 133.953C91.0399 133.836 90.9731 133.712 90.9184 133.577L82.4987 110.582ZM106.051 95.0922C106.168 95.962 106.235 96.8956 106.235 97.9C106.235 100.671 105.716 103.786 104.153 107.681L95.7865 131.796C103.929 127.062 109.406 118.267 109.406 108.194C109.406 103.446 108.19 98.9818 106.051 95.0922Z" fill="white"/>
<path d="M82.0178 76.3638C64.4137 76.3638 50.0909 90.6425 50.0909 108.194C50.0909 125.747 64.4137 140.025 82.0178 140.025C99.6213 140.025 113.946 125.747 113.946 108.194C113.946 90.6425 99.6213 76.3638 82.0178 76.3638ZM82.0178 138.566C65.221 138.566 51.5548 124.941 51.5548 108.194C51.5548 91.4474 65.2205 77.8233 82.0178 77.8233C98.814 77.8233 112.479 91.4474 112.479 108.194C112.479 124.941 98.814 138.566 82.0178 138.566Z" fill="white"/>
</svg>
